<?xml version="1.0" standalone="no"?><!-- Generator: Gravit.io --><svg xmlns="http://www.w3.org/2000/svg" xmlns:xlink="http://www.w3.org/1999/xlink" style="isolation:isolate" viewBox="0 0 60 60" width="60" height="60"><defs><clipPath id="_clipPath_Jb9u6sOlOTqAnkEpg11zqLPxjxs2439O"><rect width="60" height="60"/></clipPath></defs><g clip-path="url(#_clipPath_Jb9u6sOlOTqAnkEpg11zqLPxjxs2439O)"><circle vector-effect="non-scaling-stroke" cx="30.000000000000004" cy="30.000000000000004" r="24" fill="none" stroke-width="0.5" stroke="rgb(162,162,162)" stroke-linejoin="miter" stroke-linecap="square" stroke-miterlimit="3"/><g transform="matrix(1,0,0,1,27,0)"><text transform="matrix(1,0,0,1,0.468,5.344)" style="font-family:'Open Sans';font-weight:700;font-size:5px;font-style:normal;fill:#980000;stroke:none;">N</text></g><g transform="matrix(1,0,0,1,27,54)"><text transform="matrix(1,0,0,1,2.123,5.344)" style="font-family:'Open Sans';font-weight:700;font-size:5px;font-style:normal;fill:#000000;stroke:none;">S</text></g><g transform="matrix(1,0,0,1,55,26.595)"><text transform="matrix(1,0,0,1,0.1,5.344)" style="font-family:'Open Sans';font-weight:700;font-size:5px;font-style:normal;fill:#000000;stroke:none;">E</text></g><g transform="matrix(1,0,0,1,0,26.595)"><text transform="matrix(1,0,0,1,0.166,5.344)" style="font-family:'Open Sans';font-weight:700;font-size:5px;font-style:normal;fill:#000000;stroke:none;">W</text></g><polygon points="32.5,10,27.5,10,30,5.67" fill="rgb(152,0,0)"/></g></svg>