<?xml version="1.0" standalone="no"?><!-- Generator: Gravit.io --><svg xmlns="http://www.w3.org/2000/svg" xmlns:xlink="http://www.w3.org/1999/xlink" style="isolation:isolate" viewBox="0 0 200 400" width="200" height="400"><defs><clipPath id="_clipPath_6HPCoBNFvJjCG9BmU7nR99TSSYqXJgOy"><rect width="200" height="400"/></clipPath></defs><g clip-path="url(#_clipPath_6HPCoBNFvJjCG9BmU7nR99TSSYqXJgOy)"><rect width="200" height="400" style="fill:rgb(102,102,102)" fill-opacity="0"/><g style="isolation:isolate"><path d="M 81.824 97 L 118.176 97 C 126.91 97 134 104.09 134 112.824 L 134 186.176 C 134 194.91 126.91 202 118.176 202 L 81.824 202 C 73.09 202 66 194.91 66 186.176 L 66 112.824 C 66 104.09 73.09 97 81.824 97 Z" style="stroke:none;fill:#FFEFD6;stroke-miterlimit:10;"/><path d=" M 110.879 232 C 127.679 227.33 140 212.075 140 194 C 140 172.199 122.077 154.5 100 154.5 C 77.923 154.5 60 172.199 60 194 C 60 212.075 72.321 227.33 89.121 232 L 110.879 232 L 110.879 232 Z " fill="rgb(255,239,214)"/><path d="M 100.131 72.5 L 101.869 72.5 C 110.772 72.5 118 79.728 118 88.631 L 118 95.869 C 118 104.772 110.772 112 101.869 112 L 100.131 112 C 91.228 112 84 104.772 84 95.869 L 84 88.631 C 84 79.728 91.228 72.5 100.131 72.5 Z" style="stroke:none;fill:#FFC266;stroke-miterlimit:10;"/></g><g><path d=" M 119.437 116.878 C 117.518 115.052 116.399 112.542 116.332 109.889 C 116.275 107.235 117.257 104.661 119.093 102.742 C 120.919 100.823 123.429 99.704 126.082 99.637 C 128.735 99.58 131.31 100.562 133.229 102.398 C 136.675 105.669 140.018 109.038 143.278 112.504 C 146.353 115.774 149.296 119.165 152.107 122.656 C 154.821 126.055 157.373 129.577 159.754 133.212 C 162.114 136.839 164.284 140.591 166.231 144.461 C 168.226 148.417 170.009 152.481 171.567 156.632 C 173.203 160.997 174.625 165.45 175.83 169.96 C 177.124 174.824 178.231 179.742 179.14 184.696 C 180.14 190.165 180.972 195.667 181.634 201.182 C 181.95 203.815 181.215 206.471 179.573 208.555 C 177.941 210.639 175.539 211.991 172.905 212.307 C 170.272 212.623 167.616 211.888 165.532 210.246 C 163.448 208.614 162.097 206.212 161.78 203.578 C 161.159 198.461 160.389 193.366 159.461 188.303 C 158.653 183.862 157.667 179.466 156.503 175.113 C 155.467 171.232 154.245 167.406 152.837 163.644 C 151.543 160.175 150.053 156.781 148.38 153.471 C 146.755 150.268 144.966 147.148 142.995 144.133 C 140.978 141.051 138.819 138.06 136.507 135.182 C 134.028 132.086 131.426 129.09 128.703 126.203 C 125.704 123.008 122.612 119.899 119.437 116.878 Z " fill="rgb(255,239,214)"/><path d=" M 157.544 207.25 C 157.016 200.51 162.06 194.609 168.801 194.082 C 175.541 193.554 181.442 198.598 181.969 205.339 C 182.497 212.079 177.453 217.98 170.712 218.507 C 163.972 219.035 158.071 213.99 157.544 207.25 Z " fill="rgb(255,239,214)"/><path d=" M 158.498 203.414 C 158.261 200.388 160.525 197.739 163.552 197.502 C 166.578 197.265 169.227 199.53 169.464 202.556 C 169.701 205.582 167.436 208.231 164.41 208.468 C 161.384 208.705 158.734 206.44 158.498 203.414 Z " fill="rgb(255,224,179)"/></g><g><path d=" M 40.944 202.115 C 40.99 204.764 39.968 207.332 38.132 209.232 C 36.284 211.14 33.757 212.234 31.108 212.28 C 28.459 212.326 25.891 211.304 23.991 209.468 C 22.082 207.62 20.988 205.093 20.942 202.444 C 20.853 197.026 21.065 191.618 21.566 186.231 C 22.023 181.262 22.779 176.324 23.84 171.447 C 24.82 166.864 26.085 162.341 27.623 157.906 C 29.096 153.616 30.85 149.415 32.853 145.341 C 34.843 141.295 37.091 137.377 39.576 133.604 C 42.107 129.766 44.864 126.082 47.842 122.581 C 50.959 118.915 54.308 115.433 57.845 112.172 C 61.647 108.677 65.628 105.402 69.797 102.347 C 71.94 100.791 74.612 100.134 77.234 100.538 C 79.857 100.942 82.211 102.374 83.777 104.518 C 85.334 106.66 85.99 109.333 85.586 111.955 C 85.183 114.577 83.751 116.932 81.607 118.498 C 78.049 121.093 74.64 123.895 71.393 126.885 C 68.446 129.594 65.671 132.492 63.081 135.54 C 60.63 138.422 58.353 141.452 56.276 144.604 C 54.256 147.681 52.425 150.878 50.804 154.178 C 49.161 157.506 47.738 160.927 46.518 164.439 C 45.25 168.118 44.207 171.86 43.388 175.666 C 42.499 179.755 41.866 183.902 41.482 188.075 C 41.046 192.745 40.869 197.432 40.944 202.115 Z " fill="rgb(255,239,214)"/><path d=" M 21.106 205.025 C 21.806 198.3 27.835 193.409 34.559 194.11 C 41.284 194.811 46.174 200.839 45.474 207.563 C 44.773 214.288 38.745 219.179 32.021 218.478 C 25.296 217.778 20.405 211.749 21.106 205.025 Z " fill="rgb(255,239,214)"/><path d=" M 33.678 202.564 C 33.993 199.545 36.699 197.349 39.719 197.664 C 42.738 197.978 44.934 200.685 44.619 203.704 C 44.305 206.723 41.598 208.919 38.579 208.605 C 35.56 208.29 33.364 205.583 33.678 202.564 Z " fill="rgb(255,224,179)"/></g><g style="isolation:isolate"><path d=" M 119.481 232 C 120.041 231.687 120.595 231.363 121.139 231.027 C 120.971 230.149 120.77 229.286 120.54 228.422 C 120.4 227.895 120.23 227.369 120.02 226.861 C 119.04 224.452 119.08 221.769 120.13 219.389 C 121.18 217.019 123.16 215.146 125.62 214.19 C 128.08 213.234 130.84 213.273 133.27 214.297 C 134.093 214.643 134.856 215.09 135.542 215.626 C 137.652 211.604 139.082 207.179 139.682 202.5 L 60.318 202.5 C 60.9 207.04 62.263 211.341 64.272 215.267 C 64.82 214.885 65.414 214.561 66.043 214.297 C 68.473 213.273 71.233 213.234 73.693 214.19 C 76.153 215.146 78.133 217.019 79.183 219.389 C 80.233 221.769 80.273 224.452 79.293 226.861 C 79.083 227.369 78.913 227.895 78.773 228.422 C 78.578 229.152 78.405 229.883 78.254 230.622 C 79.011 231.111 79.786 231.575 80.586 232 L 119.481 232 L 119.481 232 Z " fill="rgb(152,0,0)"/><g><path d=" M 83.54 96.81 L 84.46 97.19 L 69.46 133.19 L 68.54 132.81 L 83.54 96.81 Z " fill="rgb(0,0,0)"/><path d=" M 130.47 131.84 L 130.64 132.31 L 129.69 132.64 L 129.53 132.16 L 117.53 97.16 L 117.36 96.69 L 118.31 96.36 L 118.47 96.84 L 130.47 131.84 Z " fill="rgb(0,0,0)"/><path d="M 71 129 L 129 129 C 131.76 129 134 131.24 134 134 L 134 148 L 66 148 L 66 134 C 66 131.24 68.24 129 71 129 Z" style="stroke:none;fill:#980000;stroke-miterlimit:10;"/><rect x="66" y="148" width="68" height="2" transform="matrix(1,0,0,1,0,0)" fill="rgb(255,255,255)"/><path d=" M 89.02 140.79 C 89.08 140.53 89.23 140.31 89.45 140.16 C 89.68 140.02 89.95 139.97 90.21 140.02 C 90.47 140.08 90.69 140.23 90.84 140.45 C 90.98 140.68 91.03 140.95 90.98 141.21 C 90.8 142.06 90.44 142.86 89.94 143.56 C 89.42 144.28 88.78 144.9 88.04 145.4 C 86.44 146.46 84.55 147.02 82.62 147 C 80.7 147.02 78.81 146.46 77.21 145.4 C 76.47 144.9 75.83 144.28 75.31 143.56 C 74.8 142.86 74.45 142.06 74.27 141.21 C 74.22 140.95 74.27 140.68 74.41 140.45 C 74.56 140.23 74.78 140.08 75.04 140.02 C 75.3 139.97 75.57 140.02 75.8 140.16 C 76.02 140.31 76.17 140.53 76.23 140.79 C 76.35 141.37 76.59 141.92 76.93 142.39 C 77.31 142.92 77.78 143.37 78.32 143.73 C 79.59 144.58 81.09 145.02 82.62 145 C 84.15 145.02 85.66 144.58 86.93 143.73 C 87.47 143.37 87.94 142.92 88.31 142.39 C 88.66 141.92 88.9 141.37 89.02 140.79 Z " fill="rgb(91,0,0)"/><path d=" M 125.4 140.79 C 125.45 140.53 125.61 140.31 125.83 140.16 C 126.05 140.02 126.32 139.97 126.58 140.02 C 126.84 140.08 127.07 140.23 127.21 140.45 C 127.36 140.68 127.41 140.95 127.35 141.21 C 127.18 142.06 126.82 142.86 126.31 143.56 C 125.79 144.28 125.15 144.9 124.42 145.4 C 122.82 146.46 120.93 147.02 119 147 C 117.07 147.02 115.18 146.46 113.58 145.4 C 112.85 144.9 112.21 144.28 111.69 143.56 C 111.18 142.86 110.82 142.06 110.65 141.21 C 110.59 140.95 110.64 140.68 110.79 140.45 C 110.93 140.23 111.16 140.08 111.42 140.02 C 111.68 139.97 111.95 140.02 112.17 140.16 C 112.39 140.31 112.55 140.53 112.6 140.79 C 112.72 141.37 112.97 141.92 113.31 142.39 C 113.69 142.92 114.16 143.37 114.69 143.73 C 115.97 144.58 117.47 145.02 119 145 C 120.53 145.02 122.03 144.58 123.31 143.73 C 123.84 143.37 124.31 142.92 124.69 142.39 C 125.03 141.92 125.28 141.37 125.4 140.79 Z " fill="rgb(76,0,0)"/></g><rect x="60.459" y="202" width="79.081" height="2" transform="matrix(1,0,0,1,0,0)" fill="rgb(255,255,255)"/></g><g><path d="M 44.24 360 L 74.76 360 C 78.204 360 81 362.796 81 366.24 L 81 369.76 C 81 373.204 78.204 376 74.76 376 L 44.24 376 C 40.796 376 38 373.204 38 369.76 L 38 366.24 C 38 362.796 40.796 360 44.24 360 Z" style="stroke:none;fill:#FFEFD6;stroke-miterlimit:10;"/><circle vector-effect="non-scaling-stroke" cx="51" cy="371" r="5" fill="rgb(255,224,179)"/><path d=" M 80.293 225.361 C 81.273 222.952 81.233 220.269 80.183 217.889 C 79.133 215.519 77.153 213.646 74.693 212.69 C 72.233 211.734 69.473 211.773 67.043 212.797 C 64.603 213.821 62.683 215.743 61.703 218.143 C 61.183 219.44 60.743 220.757 60.393 222.103 C 60.013 223.557 59.683 225.01 59.403 226.483 C 58.763 229.936 58.253 233.419 57.873 236.911 C 56.413 245.944 55.263 255.035 54.443 264.156 C 53.703 272.506 53.323 280.885 53.313 289.275 C 53.333 300.405 54.023 311.535 55.373 322.597 C 56.063 328.264 56.893 333.912 57.853 339.551 C 58.863 345.491 59.973 351.412 61.193 357.314 C 61.723 359.85 63.253 362.084 65.463 363.518 C 67.673 364.952 70.373 365.469 72.973 364.952 C 75.573 364.445 77.853 362.943 79.323 360.797 C 80.793 358.641 81.323 356.007 80.803 353.471 C 79.623 347.784 78.553 342.077 77.573 336.351 C 76.673 331.015 75.883 325.66 75.233 320.285 C 73.973 309.994 73.333 299.634 73.313 289.265 C 73.323 281.451 73.673 273.638 74.373 265.853 C 75.163 257.016 76.283 248.207 77.713 239.447 C 78.043 236.277 78.493 233.116 79.083 229.985 C 79.273 228.951 79.503 227.937 79.773 226.922 C 79.913 226.395 80.083 225.869 80.293 225.361 Z " fill="rgb(255,239,214)"/></g><g><path d=" M 120.02 226.361 C 119.04 223.952 119.08 221.269 120.13 218.889 C 121.18 216.519 123.16 214.646 125.62 213.69 C 128.08 212.734 130.84 212.773 133.27 213.797 C 135.71 214.821 137.63 216.743 138.61 219.143 C 139.13 220.44 139.57 221.757 139.92 223.103 C 140.3 224.557 140.63 226.01 140.91 227.483 C 141.55 230.936 142.06 234.419 142.44 237.911 C 143.9 246.944 145.05 256.035 145.87 265.156 C 146.61 273.506 146.99 281.885 147 290.275 C 146.98 301.405 146.29 312.535 144.94 323.597 C 144.25 329.264 143.42 334.912 142.46 340.551 C 141.45 346.491 140.34 352.412 139.12 358.314 C 138.59 360.85 137.06 363.084 134.85 364.518 C 132.64 365.952 129.94 366.469 127.34 365.952 C 124.74 365.445 122.46 363.943 120.99 361.797 C 119.52 359.641 118.99 357.007 119.51 354.471 C 120.69 348.784 121.76 343.077 122.74 337.351 C 123.64 332.015 124.43 326.66 125.08 321.285 C 126.34 310.994 126.98 300.634 127 290.265 C 126.99 282.451 126.64 274.638 125.94 266.853 C 125.15 258.016 124.03 249.207 122.6 240.447 C 122.27 237.277 121.82 234.116 121.23 230.985 C 121.04 229.951 120.81 228.937 120.54 227.922 C 120.4 227.395 120.23 226.869 120.02 226.361 Z " fill="rgb(255,239,214)"/><path d="M 123.273 359.319 L 153.947 359.319 C 157.348 359.319 160.11 362.08 160.11 365.482 L 160.11 368.763 C 160.11 372.165 157.348 374.926 153.947 374.926 L 123.273 374.926 C 119.872 374.926 117.11 372.165 117.11 368.763 L 117.11 365.482 C 117.11 362.08 119.872 359.319 123.273 359.319 Z" style="stroke:none;fill:#FFEFD6;stroke-miterlimit:10;"/><ellipse vector-effect="non-scaling-stroke" cx="147" cy="370.0490472874288" rx="5" ry="4.877381781427687" fill="rgb(255,224,179)"/></g><g style="isolation:isolate"><g><circle vector-effect="non-scaling-stroke" cx="55.75000000000007" cy="53.99999999999997" r="7.999999999999986" fill="rgb(255,239,214)"/><circle vector-effect="non-scaling-stroke" cx="57.24999999999993" cy="53.99999999999997" r="4.750000000000064" fill="rgb(255,224,179)"/></g><g><circle vector-effect="non-scaling-stroke" cx="144.24999999999994" cy="53.99999999999997" r="7.999999999999972" fill="rgb(255,239,214)"/><circle vector-effect="non-scaling-stroke" cx="144.24999999999994" cy="54" r="4.750000000000057" fill="rgb(255,224,179)"/></g><path d="M 100.131 72.5 L 101.869 72.5 C 110.772 72.5 118 79.728 118 88.631 L 118 95.869 C 118 104.772 110.772 112 101.869 112 L 100.131 112 C 91.228 112 84 104.772 84 95.869 L 84 88.631 C 84 79.728 91.228 72.5 100.131 72.5 Z" style="stroke:none;fill:#FFE0B3;stroke-miterlimit:10;"/><path d="M 56.873 47 L 145 47 L 145 90 C 145 92.76 142.76 95 140 95 L 61.873 95 C 59.113 95 56.873 92.76 56.873 90 L 56.873 47 Z" style="stroke:none;fill:#A36200;stroke-miterlimit:10;"/><circle vector-effect="non-scaling-stroke" cx="100.74999999999994" cy="54" r="43.5" fill="rgb(255,239,214)"/><ellipse vector-effect="non-scaling-stroke" cx="82.99999999999987" cy="50.999999999999986" rx="8.5" ry="5.000000000000007" fill="rgb(255,224,179)"/><g><circle vector-effect="non-scaling-stroke" cx="82.74999999999999" cy="54" r="5" fill="rgb(3,3,64)"/><circle vector-effect="non-scaling-stroke" cx="81.99999999999996" cy="52.75" r="2.750000000000014" fill="rgb(96,125,139)"/><circle vector-effect="non-scaling-stroke" cx="84.24999999999996" cy="55.500000000000014" r="1.5" fill="rgb(255,255,255)"/></g><ellipse vector-effect="non-scaling-stroke" cx="118.74999999999997" cy="50.999999999999986" rx="8.5" ry="5.000000000000007" fill="rgb(255,224,179)"/><g><circle vector-effect="non-scaling-stroke" cx="118.74999999999997" cy="54" r="5" fill="rgb(3,3,64)"/><circle vector-effect="non-scaling-stroke" cx="118.99999999999994" cy="52.75" r="2.750000000000014" fill="rgb(96,125,139)"/><circle vector-effect="non-scaling-stroke" cx="118.24999999999997" cy="55.500000000000014" r="1.5" fill="rgb(255,255,255)"/></g><path d=" M 77.44 49.34 C 77.35 49.59 77.16 49.8 76.92 49.91 C 76.68 50.02 76.41 50.03 76.16 49.94 C 75.91 49.85 75.7 49.66 75.59 49.42 C 75.48 49.18 75.47 48.91 75.56 48.66 C 75.77 48.09 76.11 47.59 76.55 47.19 C 77.04 46.72 77.59 46.32 78.19 46 C 79.65 45.19 81.29 44.76 82.96 44.76 C 84.26 44.76 85.54 45.03 86.72 45.57 C 88.1 46.23 89.31 47.18 90.28 48.37 C 90.44 48.58 90.52 48.84 90.49 49.1 C 90.47 49.37 90.34 49.61 90.13 49.78 C 89.92 49.94 89.66 50.02 89.4 49.99 C 89.13 49.97 88.89 49.84 88.72 49.63 C 87.95 48.68 86.98 47.91 85.87 47.39 C 84.96 46.97 83.97 46.76 82.97 46.76 C 81.63 46.76 80.32 47.1 79.15 47.75 C 78.7 47.99 78.28 48.3 77.91 48.66 C 77.7 48.84 77.54 49.08 77.44 49.34 Z " fill="rgb(204,122,0)"/><path d=" M 113.44 49.34 C 113.35 49.59 113.16 49.8 112.92 49.91 C 112.68 50.02 112.41 50.03 112.16 49.94 C 111.91 49.85 111.7 49.66 111.59 49.42 C 111.48 49.18 111.47 48.91 111.56 48.66 C 111.77 48.09 112.11 47.59 112.55 47.19 C 113.04 46.72 113.59 46.32 114.19 46 C 115.65 45.19 117.29 44.76 118.96 44.76 C 120.26 44.76 121.54 45.03 122.72 45.57 C 124.1 46.23 125.31 47.18 126.28 48.37 C 126.44 48.58 126.52 48.84 126.49 49.1 C 126.47 49.37 126.34 49.61 126.13 49.78 C 125.92 49.94 125.66 50.02 125.4 49.99 C 125.13 49.97 124.89 49.84 124.72 49.63 C 123.95 48.68 122.98 47.91 121.87 47.39 C 120.96 46.97 119.97 46.76 118.97 46.76 C 117.63 46.76 116.32 47.1 115.15 47.75 C 114.7 47.99 114.28 48.3 113.91 48.66 C 113.7 48.84 113.54 49.08 113.44 49.34 Z " fill="rgb(204,122,0)"/><path d=" M 112.394 71 C 112.467 71.489 112.5 71.99 112.5 72.5 C 112.5 78.847 107.347 84 101 84 C 94.653 84 89.5 78.847 89.5 72.5 C 89.5 71.99 89.533 71.489 89.606 71 L 112.394 71 L 112.394 71 Z " fill="rgb(46,46,46)"/><path d="M 91.5 71 L 110.5 71 L 110.5 73.04 C 110.5 73.57 110.07 74 109.54 74 L 92.46 74 C 91.93 74 91.5 73.57 91.5 73.04 L 91.5 71 Z" style="stroke:none;fill:#FFFFFF;stroke-miterlimit:10;"/><path d=" M 54 46.658 Q 98.591 43.997 109.771 24.305 Q 120.951 4.614 101.971 42.4 Q 114.191 35.215 117.571 24.305 Q 120.951 13.395 133.17 39.207 Q 136.81 45.061 141.49 46.658 Q 146.17 48.254 144.61 42.4 Q 143.375 20.447 133.17 11.532 Q 122.966 2.618 93.651 3.017 Q 75.907 5.612 67.652 15.79 Q 59.397 25.968 54 46.658 Z " fill="rgb(204,122,0)"/></g></g></svg>