<?xml version="1.0" standalone="no"?><!-- Generator: Gravit.io --><svg xmlns="http://www.w3.org/2000/svg" xmlns:xlink="http://www.w3.org/1999/xlink" style="isolation:isolate" viewBox="0 0 200 400" width="200" height="400"><defs><clipPath id="_clipPath_3Ntwaw6z7CyPzrTZby8BSzp2pz0N6W1e"><rect width="200" height="400"/></clipPath></defs><g clip-path="url(#_clipPath_3Ntwaw6z7CyPzrTZby8BSzp2pz0N6W1e)"><g style="isolation:isolate"><path d="M 75.195 97.5 L 121.305 97.5 C 132.589 97.5 141.75 106.661 141.75 117.945 L 141.75 214.055 C 141.75 225.339 132.589 234.5 121.305 234.5 L 75.195 234.5 C 63.911 234.5 54.75 225.339 54.75 214.055 L 54.75 117.945 C 54.75 106.661 63.911 97.5 75.195 97.5 Z" style="stroke:none;fill:#FFC266;stroke-miterlimit:10;"/><circle vector-effect="non-scaling-stroke" cx="126" cy="139" r="3" fill="rgb(166,101,5)"/><circle vector-effect="non-scaling-stroke" cx="74" cy="139" r="3" fill="rgb(166,101,5)"/></g><g style="isolation:isolate"><g><circle vector-effect="non-scaling-stroke" cx="53.2500000000002" cy="53.99999999999997" r="7.999999999999986" fill="rgb(255,214,153)"/><circle vector-effect="non-scaling-stroke" cx="54.75000000000006" cy="53.99999999999997" r="4.750000000000064" fill="rgb(166,101,5)"/></g><g><circle vector-effect="non-scaling-stroke" cx="141.75000000000006" cy="53.99999999999997" r="7.999999999999972" fill="rgb(255,214,153)"/><circle vector-effect="non-scaling-stroke" cx="141.75000000000006" cy="54" r="4.750000000000057" fill="rgb(166,101,5)"/></g><path d="M 94.013 72.5 L 102.488 72.5 C 112.843 72.5 121.25 80.907 121.25 91.263 L 121.25 93.238 C 121.25 103.593 112.843 112 102.488 112 L 94.013 112 C 83.657 112 75.25 103.593 75.25 93.238 L 75.25 91.263 C 75.25 80.907 83.657 72.5 94.013 72.5 Z" style="stroke:none;fill:#A66505;stroke-miterlimit:10;"/><circle vector-effect="non-scaling-stroke" cx="98.5" cy="54" r="43.49999999999999" fill="rgb(255,194,102)"/><ellipse vector-effect="non-scaling-stroke" cx="80.5" cy="50.99999999999999" rx="8.5" ry="5.000000000000007" fill="rgb(255,194,102)"/><g><circle vector-effect="non-scaling-stroke" cx="80.25000000000011" cy="54" r="5" fill="rgb(3,3,64)"/><circle vector-effect="non-scaling-stroke" cx="79.50000000000009" cy="52.75" r="2.750000000000014" fill="rgb(96,125,139)"/><circle vector-effect="non-scaling-stroke" cx="81.75000000000009" cy="55.500000000000014" r="1.5" fill="rgb(255,255,255)"/></g><ellipse vector-effect="non-scaling-stroke" cx="116.25000000000011" cy="50.999999999999986" rx="8.5" ry="5.000000000000007" fill="rgb(255,194,102)"/><g><circle vector-effect="non-scaling-stroke" cx="116.25000000000011" cy="54" r="5" fill="rgb(3,3,64)"/><circle vector-effect="non-scaling-stroke" cx="116.50000000000009" cy="52.75" r="2.750000000000014" fill="rgb(96,125,139)"/><circle vector-effect="non-scaling-stroke" cx="115.75000000000009" cy="55.500000000000014" r="1.5" fill="rgb(255,255,255)"/></g><path d=" M 74.94 49.34 C 74.85 49.59 74.66 49.8 74.42 49.91 C 74.18 50.02 73.91 50.03 73.66 49.94 C 73.41 49.85 73.2 49.66 73.09 49.42 C 72.98 49.18 72.97 48.91 73.06 48.66 C 73.27 48.09 73.61 47.59 74.05 47.19 C 74.54 46.72 75.09 46.32 75.69 46 C 77.15 45.19 78.79 44.76 80.46 44.76 C 81.76 44.76 83.04 45.03 84.22 45.57 C 85.6 46.23 86.81 47.18 87.78 48.37 C 87.94 48.58 88.02 48.84 87.99 49.1 C 87.97 49.37 87.84 49.61 87.63 49.78 C 87.42 49.94 87.16 50.02 86.9 49.99 C 86.63 49.97 86.39 49.84 86.22 49.63 C 85.45 48.68 84.48 47.91 83.37 47.39 C 82.46 46.97 81.47 46.76 80.47 46.76 C 79.13 46.76 77.82 47.1 76.65 47.75 C 76.2 47.99 75.78 48.3 75.41 48.66 C 75.2 48.84 75.04 49.08 74.94 49.34 Z " fill="rgb(0,0,0)"/><path d=" M 110.94 49.34 C 110.85 49.59 110.66 49.8 110.42 49.91 C 110.18 50.02 109.91 50.03 109.66 49.94 C 109.41 49.85 109.2 49.66 109.09 49.42 C 108.98 49.18 108.97 48.91 109.06 48.66 C 109.27 48.09 109.61 47.59 110.05 47.19 C 110.54 46.72 111.09 46.32 111.69 46 C 113.15 45.19 114.79 44.76 116.46 44.76 C 117.76 44.76 119.04 45.03 120.22 45.57 C 121.6 46.23 122.81 47.18 123.78 48.37 C 123.94 48.58 124.02 48.84 123.99 49.1 C 123.97 49.37 123.84 49.61 123.63 49.78 C 123.42 49.94 123.16 50.02 122.9 49.99 C 122.63 49.97 122.39 49.84 122.22 49.63 C 121.45 48.68 120.48 47.91 119.37 47.39 C 118.46 46.97 117.47 46.76 116.47 46.76 C 115.13 46.76 113.82 47.1 112.65 47.75 C 112.2 47.99 111.78 48.3 111.41 48.66 C 111.2 48.84 111.04 49.08 110.94 49.34 Z " fill="rgb(0,0,0)"/><path d=" M 109.894 71 C 109.967 71.489 110 71.99 110 72.5 C 110 78.847 104.847 84 98.5 84 C 92.153 84 87 78.847 87 72.5 C 87 71.99 87.033 71.489 87.106 71 L 109.894 71 L 109.894 71 Z " fill="rgb(46,46,46)"/><path d="M 89 71 L 108 71 L 108 73.04 C 108 73.57 107.57 74 107.04 74 L 89.96 74 C 89.43 74 89 73.57 89 73.04 L 89 71 Z" style="stroke:none;fill:#FFFFFF;stroke-miterlimit:10;"/><g><circle vector-effect="non-scaling-stroke" cx="87" cy="21.624999999999904" r="18.624999999999915" fill="rgb(0,0,0)"/><path d=" M 75.25 35 Q 68.75 36.5 61 46 Q 51.796 57.282 55 39 Q 56 28.667 60 26 C 64 23.333 62 20.333 64 16 Q 66 11.667 72 10 L 89 7 L 101 3 Q 123.333 5 128 10 C 132.667 15 132.667 23 136 26 C 139.333 29 142.333 30.667 142 35 C 141.667 39.333 143.333 44 142 48 C 140.667 52 139.667 53 140 57 C 140.333 61 136 41.667 133 39 Q 130 36.333 121.25 26 L 128 39 Q 118.667 29.333 116 26 Q 113.333 22.667 103 26 L 75.25 35 Z " fill="rgb(0,0,0)"/></g></g><g><path d=" M 127.81 118.68 C 126.04 116.71 125.12 114.12 125.26 111.47 C 125.41 108.82 126.59 106.33 128.57 104.56 C 130.54 102.79 133.13 101.87 135.78 102.01 C 138.43 102.16 140.92 103.34 142.69 105.32 C 145.87 108.85 148.94 112.47 151.92 116.18 C 154.73 119.68 157.4 123.29 159.93 126.99 C 162.37 130.59 164.64 134.3 166.73 138.11 C 168.8 141.91 170.67 145.82 172.31 149.83 C 173.99 153.93 175.45 158.12 176.68 162.38 C 177.97 166.86 179.04 171.41 179.89 176 C 180.8 180.95 181.52 185.94 182.04 190.95 C 182.61 196.48 183.01 202.03 183.24 207.58 C 183.35 210.23 182.41 212.82 180.61 214.77 C 178.82 216.72 176.32 217.88 173.67 217.99 C 171.02 218.1 168.43 217.16 166.48 215.36 C 164.53 213.57 163.37 211.07 163.26 208.42 C 163.04 203.27 162.67 198.13 162.14 193.01 C 161.68 188.52 161.04 184.06 160.22 179.63 C 159.49 175.68 158.57 171.77 157.46 167.91 C 156.44 164.35 155.22 160.85 153.81 157.42 C 152.44 154.1 150.9 150.85 149.17 147.69 C 147.4 144.46 145.48 141.31 143.4 138.26 C 141.17 134.98 138.81 131.79 136.32 128.7 C 133.58 125.28 130.74 121.94 127.81 118.68 Z " fill="rgb(255,194,102)"/><circle vector-effect="non-scaling-stroke" cx="170.99999999999997" cy="211.74999999999994" r="12.25" fill="rgb(255,194,102)"/><circle vector-effect="non-scaling-stroke" cx="165.50000000000006" cy="208" r="5.5" fill="rgb(166,101,5)"/></g><g><path d=" M 36.18 206.8 C 36.5 209.43 35.75 212.09 34.12 214.17 C 32.48 216.26 30.08 217.61 27.45 217.93 C 24.82 218.25 22.16 217.5 20.08 215.87 C 17.99 214.23 16.64 211.83 16.32 209.2 C 15.67 203.82 15.32 198.42 15.26 193.01 C 15.2 188.02 15.44 183.03 15.99 178.07 C 16.49 173.41 17.28 168.78 18.35 164.21 C 19.37 159.79 20.68 155.43 22.25 151.17 C 23.81 146.94 25.64 142.81 27.72 138.8 C 29.84 134.72 32.2 130.77 34.8 126.98 C 37.52 123.01 40.49 119.2 43.67 115.59 C 47.09 111.72 50.71 108.05 54.54 104.58 C 56.51 102.81 59.1 101.88 61.75 102.01 C 64.4 102.14 66.89 103.32 68.67 105.29 C 70.44 107.26 71.37 109.85 71.24 112.5 C 71.11 115.15 69.93 117.64 67.96 119.42 C 64.69 122.37 61.59 125.51 58.67 128.82 C 56.02 131.82 53.56 134.99 51.3 138.29 C 49.16 141.41 47.21 144.66 45.47 148.01 C 43.78 151.28 42.29 154.65 41.02 158.1 C 39.73 161.58 38.67 165.13 37.82 168.75 C 36.94 172.54 36.29 176.37 35.87 180.24 C 35.41 184.4 35.21 188.59 35.26 192.78 C 35.31 197.47 35.62 202.15 36.18 206.8 Z " fill="rgb(255,194,102)"/><circle vector-effect="non-scaling-stroke" cx="29" cy="211.74999999999994" r="12.25" fill="rgb(255,194,102)"/><circle vector-effect="non-scaling-stroke" cx="34.5" cy="208" r="5.5" fill="rgb(166,101,5)"/></g><g><path d=" M 80.8 358.03 C 81.33 360.63 80.8 363.33 79.33 365.54 C 77.86 367.74 75.57 369.28 72.97 369.8 C 70.37 370.33 67.67 369.8 65.46 368.33 C 63.26 366.86 61.72 364.57 61.2 361.97 C 59.98 355.92 58.86 349.85 57.85 343.76 C 56.89 337.98 56.07 332.19 55.37 326.38 C 54.02 315.04 53.33 303.63 53.31 292.22 C 53.33 283.62 53.7 275.03 54.45 266.47 C 55.27 257.12 56.41 247.8 57.88 238.54 C 58.25 234.96 58.76 231.39 59.41 227.85 C 59.68 226.34 60.01 224.85 60.39 223.36 C 60.74 221.98 61.18 220.63 61.71 219.3 C 62.69 216.84 64.61 214.87 67.04 213.82 C 69.48 212.77 72.23 212.73 74.7 213.71 C 77.16 214.69 79.13 216.61 80.18 219.04 C 81.23 221.48 81.27 224.23 80.29 226.7 C 80.08 227.22 79.91 227.76 79.77 228.3 C 79.51 229.34 79.28 230.38 79.08 231.44 C 78.5 234.65 78.04 237.89 77.71 241.14 C 76.28 250.12 75.17 259.15 74.37 268.21 C 73.68 276.19 73.33 284.2 73.31 292.21 C 73.33 302.84 73.97 313.46 75.23 324.01 C 75.89 329.52 76.67 335.01 77.58 340.48 C 78.55 346.35 79.63 352.2 80.8 358.03 Z " fill="rgb(255,194,102)"/><path d="M 45.24 360 L 75.76 360 C 79.204 360 82 362.796 82 366.24 L 82 369.76 C 82 373.204 79.204 376 75.76 376 L 45.24 376 C 41.796 376 39 373.204 39 369.76 L 39 366.24 C 39 362.796 41.796 360 45.24 360 Z" style="stroke:none;fill:#FFC266;stroke-miterlimit:10;"/><circle vector-effect="non-scaling-stroke" cx="52" cy="371" r="5" fill="rgb(166,101,5)"/></g><g><path d=" M 118.02 226.7 C 117.04 224.23 117.08 221.48 118.13 219.04 C 119.18 216.61 121.16 214.69 123.62 213.71 C 126.08 212.73 128.84 212.77 131.27 213.82 C 133.71 214.87 135.63 216.84 136.61 219.3 C 137.13 220.63 137.57 221.98 137.92 223.36 C 138.3 224.85 138.63 226.34 138.91 227.85 C 139.55 231.39 140.06 234.96 140.44 238.54 C 141.9 247.8 143.05 257.12 143.87 266.47 C 144.61 275.03 144.99 283.62 145 292.22 C 144.98 303.63 144.29 315.04 142.94 326.38 C 142.25 332.19 141.42 337.98 140.46 343.76 C 139.45 349.85 138.34 355.92 137.12 361.97 C 136.59 364.57 135.06 366.86 132.85 368.33 C 130.64 369.8 127.94 370.33 125.34 369.8 C 122.74 369.28 120.46 367.74 118.99 365.54 C 117.52 363.33 116.99 360.63 117.51 358.03 C 118.69 352.2 119.76 346.35 120.74 340.48 C 121.64 335.01 122.43 329.52 123.08 324.01 C 124.34 313.46 124.98 302.84 125 292.21 C 124.99 284.2 124.64 276.19 123.94 268.21 C 123.15 259.15 122.03 250.12 120.6 241.14 C 120.27 237.89 119.82 234.65 119.23 231.44 C 119.04 230.38 118.81 229.34 118.54 228.3 C 118.4 227.76 118.23 227.22 118.02 226.7 Z " fill="rgb(255,194,102)"/><path d="M 121.49 360 L 152.01 360 C 155.454 360 158.25 362.796 158.25 366.24 L 158.25 369.76 C 158.25 373.204 155.454 376 152.01 376 L 121.49 376 C 118.046 376 115.25 373.204 115.25 369.76 L 115.25 366.24 C 115.25 362.796 118.046 360 121.49 360 Z" style="stroke:none;fill:#FFC266;stroke-miterlimit:10;"/><circle vector-effect="non-scaling-stroke" cx="145.75000000000009" cy="371" r="5" fill="rgb(166,101,5)"/></g><g style="isolation:isolate"><path d=" M 76.542 249 C 76.904 246.376 77.293 243.756 77.71 241.14 C 77.935 238.92 78.222 236.704 78.565 234.5 L 119.749 234.5 C 120.093 236.704 120.375 238.92 120.6 241.14 C 121.017 243.756 121.407 246.376 121.77 249 L 141.953 249 C 141.493 245.506 140.988 242.019 140.44 238.54 C 140.06 234.96 139.55 231.39 138.91 227.85 C 138.749 226.983 138.572 226.124 138.384 225.265 C 140.516 222.052 141.75 218.196 141.75 214.055 L 141.75 213 L 54.75 213 L 54.75 214.055 C 54.75 219.052 56.547 223.633 59.54 227.176 C 59.492 227.399 59.45 227.624 59.41 227.85 C 58.76 231.39 58.25 234.96 57.88 238.54 C 57.328 242.019 56.822 245.506 56.362 249 L 76.542 249 Z " fill-rule="evenodd" fill="rgb(152,0,0)"/><rect x="54.75" y="210" width="87.203" height="3" transform="matrix(1,0,0,1,0,0)" fill="rgb(235,235,235)"/></g></g></svg>