<?xml version="1.0" standalone="no"?><!-- Generator: Gravit.io --><svg xmlns="http://www.w3.org/2000/svg" xmlns:xlink="http://www.w3.org/1999/xlink" style="isolation:isolate" viewBox="0 0 200 400" width="200" height="400"><defs><clipPath id="_clipPath_kmnluhfVokXnLORFJspjGcMDblaCRuPz"><rect width="200" height="400"/></clipPath></defs><g clip-path="url(#_clipPath_kmnluhfVokXnLORFJspjGcMDblaCRuPz)"><g style="isolation:isolate"><path d="M 75.195 97.5 L 121.305 97.5 C 132.589 97.5 141.75 106.661 141.75 117.945 L 141.75 214.055 C 141.75 225.339 132.589 234.5 121.305 234.5 L 75.195 234.5 C 63.911 234.5 54.75 225.339 54.75 214.055 L 54.75 117.945 C 54.75 106.661 63.911 97.5 75.195 97.5 Z" style="stroke:none;fill:#FFEFD6;stroke-miterlimit:10;"/><circle vector-effect="non-scaling-stroke" cx="126" cy="139" r="3" fill="rgb(166,101,5)"/><circle vector-effect="non-scaling-stroke" cx="74" cy="139" r="3" fill="rgb(166,101,5)"/></g><g style="isolation:isolate"><g><circle vector-effect="non-scaling-stroke" cx="53.2500000000002" cy="53.99999999999997" r="7.999999999999986" fill="rgb(255,239,214)"/><circle vector-effect="non-scaling-stroke" cx="54.75000000000006" cy="53.99999999999997" r="4.750000000000064" fill="rgb(255,224,179)"/></g><g><circle vector-effect="non-scaling-stroke" cx="141.75000000000006" cy="53.99999999999997" r="7.999999999999972" fill="rgb(255,239,214)"/><circle vector-effect="non-scaling-stroke" cx="141.75000000000006" cy="54" r="4.750000000000057" fill="rgb(255,224,179)"/></g><path d="M 94.013 72.5 L 102.488 72.5 C 112.843 72.5 121.25 80.907 121.25 91.263 L 121.25 93.238 C 121.25 103.593 112.843 112 102.488 112 L 94.013 112 C 83.657 112 75.25 103.593 75.25 93.238 L 75.25 91.263 C 75.25 80.907 83.657 72.5 94.013 72.5 Z" style="stroke:none;fill:#FFE0B3;stroke-miterlimit:10;"/><circle vector-effect="non-scaling-stroke" cx="98.25000000000006" cy="54" r="43.49999999999999" fill="rgb(255,239,214)"/><ellipse vector-effect="non-scaling-stroke" cx="80.5" cy="50.99999999999999" rx="8.5" ry="5.000000000000007" fill="rgb(255,224,179)"/><g><circle vector-effect="non-scaling-stroke" cx="80.25000000000011" cy="54" r="5" fill="rgb(3,3,64)"/><circle vector-effect="non-scaling-stroke" cx="79.50000000000009" cy="52.75" r="2.750000000000014" fill="rgb(96,125,139)"/><circle vector-effect="non-scaling-stroke" cx="81.75000000000009" cy="55.500000000000014" r="1.5" fill="rgb(255,255,255)"/></g><ellipse vector-effect="non-scaling-stroke" cx="116.25000000000011" cy="50.999999999999986" rx="8.5" ry="5.000000000000007" fill="rgb(255,224,179)"/><g><circle vector-effect="non-scaling-stroke" cx="116.25000000000011" cy="54" r="5" fill="rgb(3,3,64)"/><circle vector-effect="non-scaling-stroke" cx="116.50000000000009" cy="52.75" r="2.750000000000014" fill="rgb(96,125,139)"/><circle vector-effect="non-scaling-stroke" cx="115.75000000000009" cy="55.500000000000014" r="1.5" fill="rgb(255,255,255)"/></g><path d=" M 74.94 49.34 C 74.85 49.59 74.66 49.8 74.42 49.91 C 74.18 50.02 73.91 50.03 73.66 49.94 C 73.41 49.85 73.2 49.66 73.09 49.42 C 72.98 49.18 72.97 48.91 73.06 48.66 C 73.27 48.09 73.61 47.59 74.05 47.19 C 74.54 46.72 75.09 46.32 75.69 46 C 77.15 45.19 78.79 44.76 80.46 44.76 C 81.76 44.76 83.04 45.03 84.22 45.57 C 85.6 46.23 86.81 47.18 87.78 48.37 C 87.94 48.58 88.02 48.84 87.99 49.1 C 87.97 49.37 87.84 49.61 87.63 49.78 C 87.42 49.94 87.16 50.02 86.9 49.99 C 86.63 49.97 86.39 49.84 86.22 49.63 C 85.45 48.68 84.48 47.91 83.37 47.39 C 82.46 46.97 81.47 46.76 80.47 46.76 C 79.13 46.76 77.82 47.1 76.65 47.75 C 76.2 47.99 75.78 48.3 75.41 48.66 C 75.2 48.84 75.04 49.08 74.94 49.34 Z " fill="rgb(204,122,0)"/><path d=" M 110.94 49.34 C 110.85 49.59 110.66 49.8 110.42 49.91 C 110.18 50.02 109.91 50.03 109.66 49.94 C 109.41 49.85 109.2 49.66 109.09 49.42 C 108.98 49.18 108.97 48.91 109.06 48.66 C 109.27 48.09 109.61 47.59 110.05 47.19 C 110.54 46.72 111.09 46.32 111.69 46 C 113.15 45.19 114.79 44.76 116.46 44.76 C 117.76 44.76 119.04 45.03 120.22 45.57 C 121.6 46.23 122.81 47.18 123.78 48.37 C 123.94 48.58 124.02 48.84 123.99 49.1 C 123.97 49.37 123.84 49.61 123.63 49.78 C 123.42 49.94 123.16 50.02 122.9 49.99 C 122.63 49.97 122.39 49.84 122.22 49.63 C 121.45 48.68 120.48 47.91 119.37 47.39 C 118.46 46.97 117.47 46.76 116.47 46.76 C 115.13 46.76 113.82 47.1 112.65 47.75 C 112.2 47.99 111.78 48.3 111.41 48.66 C 111.2 48.84 111.04 49.08 110.94 49.34 Z " fill="rgb(204,122,0)"/><path d=" M 109.894 71 C 109.967 71.489 110 71.99 110 72.5 C 110 78.847 104.847 84 98.5 84 C 92.153 84 87 78.847 87 72.5 C 87 71.99 87.033 71.489 87.106 71 L 109.894 71 L 109.894 71 Z " fill="rgb(46,46,46)"/><path d="M 89 71 L 108 71 L 108 73.04 C 108 73.57 107.57 74 107.04 74 L 89.96 74 C 89.43 74 89 73.57 89 73.04 L 89 71 Z" style="stroke:none;fill:#FFFFFF;stroke-miterlimit:10;"/><g><circle vector-effect="non-scaling-stroke" cx="87" cy="21.624999999999904" r="18.624999999999915" fill="rgb(204,122,0)"/><path d=" M 75.25 35 Q 68.75 36.5 61 46 Q 51.796 57.282 55 39 Q 56 28.667 60 26 C 64 23.333 62 20.333 64 16 Q 66 11.667 72 10 L 89 7 L 101 3 Q 123.333 5 128 10 C 132.667 15 132.667 23 136 26 C 139.333 29 142.333 30.667 142 35 C 141.667 39.333 143.333 44 142 48 C 140.667 52 139.667 53 140 57 C 140.333 61 136 41.667 133 39 Q 130 36.333 121.25 26 L 128 39 Q 118.667 29.333 116 26 Q 113.333 22.667 103 26 L 75.25 35 Z " fill="rgb(204,122,0)"/></g></g><g><path d=" M 127.81 118.68 C 126.04 116.71 125.12 114.12 125.26 111.47 C 125.41 108.82 126.59 106.33 128.57 104.56 C 130.54 102.79 133.13 101.87 135.78 102.01 C 138.43 102.16 140.92 103.34 142.69 105.32 C 145.87 108.85 148.94 112.47 151.92 116.18 C 154.73 119.68 157.4 123.29 159.93 126.99 C 162.37 130.59 164.64 134.3 166.73 138.11 C 168.8 141.91 170.67 145.82 172.31 149.83 C 173.99 153.93 175.45 158.12 176.68 162.38 C 177.97 166.86 179.04 171.41 179.89 176 C 180.8 180.95 181.52 185.94 182.04 190.95 C 182.61 196.48 183.01 202.03 183.24 207.58 C 183.35 210.23 182.41 212.82 180.61 214.77 C 178.82 216.72 176.32 217.88 173.67 217.99 C 171.02 218.1 168.43 217.16 166.48 215.36 C 164.53 213.57 163.37 211.07 163.26 208.42 C 163.04 203.27 162.67 198.13 162.14 193.01 C 161.68 188.52 161.04 184.06 160.22 179.63 C 159.49 175.68 158.57 171.77 157.46 167.91 C 156.44 164.35 155.22 160.85 153.81 157.42 C 152.44 154.1 150.9 150.85 149.17 147.69 C 147.4 144.46 145.48 141.31 143.4 138.26 C 141.17 134.98 138.81 131.79 136.32 128.7 C 133.58 125.28 130.74 121.94 127.81 118.68 Z " fill="rgb(255,239,214)"/><circle vector-effect="non-scaling-stroke" cx="170.99999999999997" cy="211.74999999999994" r="12.25" fill="rgb(255,239,214)"/><circle vector-effect="non-scaling-stroke" cx="165.50000000000006" cy="208" r="5.5" fill="rgb(255,224,179)"/></g><g><path d=" M 36.18 206.8 C 36.5 209.43 35.75 212.09 34.12 214.17 C 32.48 216.26 30.08 217.61 27.45 217.93 C 24.82 218.25 22.16 217.5 20.08 215.87 C 17.99 214.23 16.64 211.83 16.32 209.2 C 15.67 203.82 15.32 198.42 15.26 193.01 C 15.2 188.02 15.44 183.03 15.99 178.07 C 16.49 173.41 17.28 168.78 18.35 164.21 C 19.37 159.79 20.68 155.43 22.25 151.17 C 23.81 146.94 25.64 142.81 27.72 138.8 C 29.84 134.72 32.2 130.77 34.8 126.98 C 37.52 123.01 40.49 119.2 43.67 115.59 C 47.09 111.72 50.71 108.05 54.54 104.58 C 56.51 102.81 59.1 101.88 61.75 102.01 C 64.4 102.14 66.89 103.32 68.67 105.29 C 70.44 107.26 71.37 109.85 71.24 112.5 C 71.11 115.15 69.93 117.64 67.96 119.42 C 64.69 122.37 61.59 125.51 58.67 128.82 C 56.02 131.82 53.56 134.99 51.3 138.29 C 49.16 141.41 47.21 144.66 45.47 148.01 C 43.78 151.28 42.29 154.65 41.02 158.1 C 39.73 161.58 38.67 165.13 37.82 168.75 C 36.94 172.54 36.29 176.37 35.87 180.24 C 35.41 184.4 35.21 188.59 35.26 192.78 C 35.31 197.47 35.62 202.15 36.18 206.8 Z " fill="rgb(255,239,214)"/><circle vector-effect="non-scaling-stroke" cx="29" cy="211.74999999999994" r="12.25" fill="rgb(255,239,214)"/><circle vector-effect="non-scaling-stroke" cx="34.5" cy="208" r="5.5" fill="rgb(255,224,179)"/></g><g><path d=" M 81.8 358.03 C 82.33 360.63 81.8 363.33 80.33 365.54 C 78.86 367.74 76.57 369.28 73.97 369.8 C 71.37 370.33 68.67 369.8 66.46 368.33 C 64.26 366.86 62.72 364.57 62.2 361.97 C 60.98 355.92 59.86 349.85 58.85 343.76 C 57.89 337.98 57.07 332.19 56.37 326.38 C 55.02 315.04 54.33 303.63 54.31 292.22 C 54.33 283.62 54.7 275.03 55.45 266.47 C 56.27 257.12 57.41 247.8 58.88 238.54 C 59.25 234.96 59.76 231.39 60.41 227.85 C 60.68 226.34 61.01 224.85 61.39 223.36 C 61.74 221.98 62.18 220.63 62.71 219.3 C 63.69 216.84 65.61 214.87 68.04 213.82 C 70.48 212.77 73.23 212.73 75.7 213.71 C 78.16 214.69 80.13 216.61 81.18 219.04 C 82.23 221.48 82.27 224.23 81.29 226.7 C 81.08 227.22 80.91 227.76 80.77 228.3 C 80.51 229.34 80.28 230.38 80.08 231.44 C 79.5 234.65 79.04 237.89 78.71 241.14 C 77.28 250.12 76.17 259.15 75.37 268.21 C 74.68 276.19 74.33 284.2 74.31 292.21 C 74.33 302.84 74.97 313.46 76.23 324.01 C 76.89 329.52 77.67 335.01 78.58 340.48 C 79.55 346.35 80.63 352.2 81.8 358.03 Z " fill="rgb(255,239,214)"/><path d="M 46.24 360 L 76.76 360 C 80.204 360 83 362.796 83 366.24 L 83 369.76 C 83 373.204 80.204 376 76.76 376 L 46.24 376 C 42.796 376 40 373.204 40 369.76 L 40 366.24 C 40 362.796 42.796 360 46.24 360 Z" style="stroke:none;fill:#FFEFD6;stroke-miterlimit:10;"/><circle vector-effect="non-scaling-stroke" cx="53" cy="371" r="5" fill="rgb(255,224,179)"/></g><g><path d=" M 118.77 226.7 C 117.79 224.23 117.83 221.48 118.88 219.04 C 119.93 216.61 121.91 214.69 124.37 213.71 C 126.83 212.73 129.59 212.77 132.02 213.82 C 134.46 214.87 136.38 216.84 137.36 219.3 C 137.88 220.63 138.32 221.98 138.67 223.36 C 139.05 224.85 139.38 226.34 139.66 227.85 C 140.3 231.39 140.81 234.96 141.19 238.54 C 142.65 247.8 143.8 257.12 144.62 266.47 C 145.36 275.03 145.74 283.62 145.75 292.22 C 145.73 303.63 145.04 315.04 143.69 326.38 C 143 332.19 142.17 337.98 141.21 343.76 C 140.2 349.85 139.09 355.92 137.87 361.97 C 137.34 364.57 135.81 366.86 133.6 368.33 C 131.39 369.8 128.69 370.33 126.09 369.8 C 123.49 369.28 121.21 367.74 119.74 365.54 C 118.27 363.33 117.74 360.63 118.26 358.03 C 119.44 352.2 120.51 346.35 121.49 340.48 C 122.39 335.01 123.18 329.52 123.83 324.01 C 125.09 313.46 125.73 302.84 125.75 292.21 C 125.74 284.2 125.39 276.19 124.69 268.21 C 123.9 259.15 122.78 250.12 121.35 241.14 C 121.02 237.89 120.57 234.65 119.98 231.44 C 119.79 230.38 119.56 229.34 119.29 228.3 C 119.15 227.76 118.98 227.22 118.77 226.7 Z " fill="rgb(255,239,214)"/><path d="M 122.24 360 L 152.76 360 C 156.204 360 159 362.796 159 366.24 L 159 369.76 C 159 373.204 156.204 376 152.76 376 L 122.24 376 C 118.796 376 116 373.204 116 369.76 L 116 366.24 C 116 362.796 118.796 360 122.24 360 Z" style="stroke:none;fill:#FFEFD6;stroke-miterlimit:10;"/><circle vector-effect="non-scaling-stroke" cx="146.5" cy="371" r="5" fill="rgb(255,224,179)"/></g><g style="isolation:isolate"><path d=" M 76.542 249 C 76.904 246.376 77.293 243.756 77.71 241.14 C 77.935 238.92 78.222 236.704 78.565 234.5 L 119.749 234.5 C 120.093 236.704 120.375 238.92 120.6 241.14 C 121.017 243.756 121.407 246.376 121.77 249 L 141.953 249 C 141.493 245.506 140.988 242.019 140.44 238.54 C 140.06 234.96 139.55 231.39 138.91 227.85 C 138.749 226.983 138.572 226.124 138.384 225.265 C 140.516 222.052 141.75 218.196 141.75 214.055 L 141.75 213 L 54.75 213 L 54.75 214.055 C 54.75 219.052 56.547 223.633 59.54 227.176 C 59.492 227.399 59.45 227.624 59.41 227.85 C 58.76 231.39 58.25 234.96 57.88 238.54 C 57.328 242.019 56.822 245.506 56.362 249 L 76.542 249 Z " fill-rule="evenodd" fill="rgb(152,0,0)"/><rect x="54.75" y="210" width="87.203" height="3" transform="matrix(1,0,0,1,0,0)" fill="rgb(235,235,235)"/></g></g></svg>