<!--?xml version="1.0" encoding="utf-8"?-->
<!-- Generator: Adobe Illustrator 16.0.0, SVG Export Plug-In . SVG Version: 6.00 Build 0)  -->

<svg version="1.1" id="Capa_1" xmlns="http://www.w3.org/2000/svg" xmlns:xlink="http://www.w3.org/1999/xlink" x="0px" y="0px" width="960px" height="560px" viewBox="0 0 960 560" enable-background="new 0 0 960 560" xml:space="preserve" style="">
<g>
	<defs>
		<path id="SVGID_1_" d="M747.826,146.087c-41.537,0-61.904-11.103-83.465-22.863c-23.301-12.697-47.368-25.833-95.127-25.833
			c-47.758,0-71.826,13.136-95.114,25.833c-21.572,11.761-41.939,22.863-83.477,22.863c-41.513,0-61.855-11.103-83.403-22.863
			c-23.277-12.697-47.345-25.833-95.066-25.833c-6.732,0-12.174,5.454-12.174,12.175c0,6.72,5.442,12.174,12.174,12.174
			c41.513,0,61.856,11.103,83.403,22.862c23.277,12.697,47.345,25.833,95.066,25.833c47.758,0,71.826-13.136,95.114-25.833
			c21.572-11.76,41.939-22.862,83.477-22.862c41.538,0,61.904,11.103,83.465,22.862c23.301,12.697,47.368,25.833,95.127,25.833
			c6.732,0,12.174-5.454,12.174-12.174S754.559,146.087,747.826,146.087z" class="ekOUEOAR_0"></path>
	</defs>
	<clipPath id="SVGID_2_">
		<use xlink:href="#SVGID_1_" overflow="visible"></use>
	</clipPath>
	<path clip-path="url(#SVGID_2_)" fill="none" stroke="#C6DEFF" stroke-width="35" stroke-miterlimit="10" d="M146.094,97.553L270.094,117.553L339.167,148.5L387.833,157.834L451.167,144.5L504.5,121.834L563.167,112.5L599.834,112.5L
		632.5,120.5L683.167,139.167L713.834,153.834L748.5,157.834L775.167,157.834" class="ekOUEOAR_1"></path>
	<use xlink:href="#SVGID_1_" overflow="visible" fill="none" stroke="#C6DEFF" stroke-width="5" stroke-miterlimit="10"></use>
</g>
<g>
	<defs>
		<path id="SVGID_3_" d="M750.826,373.087c-41.537,0-61.904-11.103-83.465-22.863c-23.301-12.697-47.368-25.833-95.127-25.833
			c-47.758,0-71.826,13.136-95.114,25.833c-21.572,11.761-41.939,22.863-83.477,22.863c-41.513,0-61.855-11.103-83.403-22.863
			c-23.277-12.697-47.345-25.833-95.066-25.833c-6.732,0-12.174,5.454-12.174,12.175c0,6.72,5.442,12.174,12.174,12.174
			c41.513,0,61.856,11.103,83.403,22.862c23.277,12.697,47.345,25.833,95.066,25.833c47.758,0,71.826-13.136,95.114-25.833
			c21.572-11.76,41.939-22.862,83.477-22.862c41.538,0,61.904,11.103,83.465,22.862c23.301,12.697,47.368,25.833,95.127,25.833
			c6.732,0,12.174-5.454,12.174-12.174S757.559,373.087,750.826,373.087z" class="ekOUEOAR_2"></path>
	</defs>
	<clipPath id="SVGID_4_">
		<use xlink:href="#SVGID_3_" overflow="visible"></use>
	</clipPath>
	<path clip-path="url(#SVGID_4_)" fill="none" stroke="#C6DEFF" stroke-width="35" stroke-miterlimit="10" d="M149.094,324.553L273.094,344.553L342.167,375.5L390.833,384.834L454.167,371.5L507.5,348.834L566.167,339.5L602.834,339.5L
		635.5,347.5L686.167,366.167L716.834,380.834L751.5,384.834L778.167,384.834" class="ekOUEOAR_3"></path>
	<use xlink:href="#SVGID_3_" overflow="visible" fill="none" stroke="#C6DEFF" stroke-width="5" stroke-miterlimit="10"></use>
</g>
<g>
	<defs>
		<path id="SVGID_5_" d="M749.826,297.087c-41.537,0-61.904-11.103-83.465-22.863c-23.301-12.697-47.368-25.833-95.127-25.833
			c-47.758,0-71.826,13.136-95.114,25.833c-21.572,11.761-41.939,22.863-83.477,22.863c-41.513,0-61.855-11.103-83.403-22.863
			c-23.277-12.697-47.345-25.833-95.066-25.833c-6.732,0-12.174,5.454-12.174,12.175c0,6.72,5.442,12.174,12.174,12.174
			c41.513,0,61.856,11.103,83.403,22.862c23.277,12.697,47.345,25.833,95.066,25.833c47.758,0,71.826-13.136,95.114-25.833
			c21.572-11.76,41.939-22.862,83.477-22.862c41.538,0,61.904,11.103,83.465,22.862c23.301,12.697,47.368,25.833,95.127,25.833
			c6.732,0,12.174-5.454,12.174-12.174S756.559,297.087,749.826,297.087z" class="ekOUEOAR_4"></path>
	</defs>
	<clipPath id="SVGID_6_">
		<use xlink:href="#SVGID_5_" overflow="visible"></use>
	</clipPath>
	<path clip-path="url(#SVGID_6_)" fill="none" stroke="#C6DEFF" stroke-width="35" stroke-miterlimit="10" d="M148.094,248.553L272.094,268.553L341.167,299.5L389.833,308.834L453.167,295.5L506.5,272.834L565.167,263.5L601.834,263.5L
		634.5,271.5L685.167,290.167L715.834,304.834L750.5,308.834L777.167,308.834" class="ekOUEOAR_5"></path>
	<use xlink:href="#SVGID_5_" overflow="visible" fill="none" stroke="#C6DEFF" stroke-width="5" stroke-miterlimit="10"></use>
</g>
<g>
	<defs>
		<path id="SVGID_7_" d="M748.826,222.087c-41.537,0-61.904-11.103-83.465-22.863c-23.301-12.697-47.368-25.833-95.127-25.833
			c-47.758,0-71.826,13.136-95.114,25.833c-21.572,11.761-41.939,22.863-83.477,22.863c-41.513,0-61.855-11.103-83.403-22.863
			c-23.277-12.697-47.345-25.833-95.066-25.833c-6.732,0-12.174,5.454-12.174,12.175c0,6.72,5.442,12.174,12.174,12.174
			c41.513,0,61.856,11.103,83.403,22.862c23.277,12.697,47.345,25.833,95.066,25.833c47.758,0,71.826-13.136,95.114-25.833
			c21.572-11.76,41.939-22.862,83.477-22.862c41.538,0,61.904,11.103,83.465,22.862c23.301,12.697,47.368,25.833,95.127,25.833
			c6.732,0,12.174-5.454,12.174-12.174S755.559,222.087,748.826,222.087z" class="ekOUEOAR_6"></path>
	</defs>
	<clipPath id="SVGID_8_">
		<use xlink:href="#SVGID_7_" overflow="visible"></use>
	</clipPath>
	<path clip-path="url(#SVGID_8_)" fill="none" stroke="#C6DEFF" stroke-width="36" stroke-miterlimit="10" d="M147.094,173.553L271.094,193.553L340.167,224.5L388.833,233.834L452.167,220.5L505.5,197.834L564.167,188.5L600.834,188.5L
		633.5,196.5L684.167,215.167L714.834,229.834L749.5,233.834L776.167,233.834" class="ekOUEOAR_7"></path>
	<use xlink:href="#SVGID_7_" overflow="visible" fill="none" stroke="#C6DEFF" stroke-width="5" stroke-miterlimit="10"></use>
</g>
<style data-made-with="vivus-instant">.ekOUEOAR_0{stroke-dasharray:1202 1204;stroke-dashoffset:1203;animation:ekOUEOAR_draw_0 1300ms linear 0ms infinite,ekOUEOAR_fade 1300ms linear 0ms infinite;}.ekOUEOAR_1{stroke-dasharray:653 655;stroke-dashoffset:654;animation:ekOUEOAR_draw_1 1300ms linear 0ms infinite,ekOUEOAR_fade 1300ms linear 0ms infinite;}.ekOUEOAR_2{stroke-dasharray:1202 1204;stroke-dashoffset:1203;animation:ekOUEOAR_draw_2 1300ms linear 0ms infinite,ekOUEOAR_fade 1300ms linear 0ms infinite;}.ekOUEOAR_3{stroke-dasharray:653 655;stroke-dashoffset:654;animation:ekOUEOAR_draw_3 1300ms linear 0ms infinite,ekOUEOAR_fade 1300ms linear 0ms infinite;}.ekOUEOAR_4{stroke-dasharray:1202 1204;stroke-dashoffset:1203;animation:ekOUEOAR_draw_4 1300ms linear 0ms infinite,ekOUEOAR_fade 1300ms linear 0ms infinite;}.ekOUEOAR_5{stroke-dasharray:653 655;stroke-dashoffset:654;animation:ekOUEOAR_draw_5 1300ms linear 0ms infinite,ekOUEOAR_fade 1300ms linear 0ms infinite;}.ekOUEOAR_6{stroke-dasharray:1202 1204;stroke-dashoffset:1203;animation:ekOUEOAR_draw_6 1300ms linear 0ms infinite,ekOUEOAR_fade 1300ms linear 0ms infinite;}.ekOUEOAR_7{stroke-dasharray:653 655;stroke-dashoffset:654;animation:ekOUEOAR_draw_7 1300ms linear 0ms infinite,ekOUEOAR_fade 1300ms linear 0ms infinite;}@keyframes ekOUEOAR_draw{100%{stroke-dashoffset:0;}}@keyframes ekOUEOAR_fade{0%{stroke-opacity:1;}92.3076923076923%{stroke-opacity:1;}100%{stroke-opacity:0;}}@keyframes ekOUEOAR_draw_0{7.6923076923076925%{stroke-dashoffset: 1203}84.61538461538461%{ stroke-dashoffset: 0;}100%{ stroke-dashoffset: 0;}}@keyframes ekOUEOAR_draw_1{7.6923076923076925%{stroke-dashoffset: 654}84.61538461538461%{ stroke-dashoffset: 0;}100%{ stroke-dashoffset: 0;}}@keyframes ekOUEOAR_draw_2{7.6923076923076925%{stroke-dashoffset: 1203}84.61538461538461%{ stroke-dashoffset: 0;}100%{ stroke-dashoffset: 0;}}@keyframes ekOUEOAR_draw_3{7.6923076923076925%{stroke-dashoffset: 654}84.61538461538461%{ stroke-dashoffset: 0;}100%{ stroke-dashoffset: 0;}}@keyframes ekOUEOAR_draw_4{7.6923076923076925%{stroke-dashoffset: 1203}84.61538461538461%{ stroke-dashoffset: 0;}100%{ stroke-dashoffset: 0;}}@keyframes ekOUEOAR_draw_5{7.6923076923076925%{stroke-dashoffset: 654}84.61538461538461%{ stroke-dashoffset: 0;}100%{ stroke-dashoffset: 0;}}@keyframes ekOUEOAR_draw_6{7.6923076923076925%{stroke-dashoffset: 1203}84.61538461538461%{ stroke-dashoffset: 0;}100%{ stroke-dashoffset: 0;}}@keyframes ekOUEOAR_draw_7{7.6923076923076925%{stroke-dashoffset: 654}84.61538461538461%{ stroke-dashoffset: 0;}100%{ stroke-dashoffset: 0;}}</style></svg>
