<!--?xml version="1.0" encoding="utf-8"?-->
<!-- Generator: Adobe Illustrator 16.0.0, SVG Export Plug-In . SVG Version: 6.00 Build 0)  -->

<svg version="1.1" id="Layer_1" xmlns="http://www.w3.org/2000/svg" xmlns:xlink="http://www.w3.org/1999/xlink" x="0px" y="0px" width="960px" height="560px" viewBox="0 0 960 560" enable-background="new 0 0 960 560" xml:space="preserve" style="">
<g>
	<defs>
		<path id="SVGID_1_" d="M751.734,303.247H666v26.707h85.734c12.271,0,22.256,9.984,22.256,22.256
			c0,12.273-9.984,22.257-22.256,22.257s-22.257-9.985-22.257-22.257h-26.707c0,26.998,21.965,48.964,48.964,48.964
			c26.998,0,48.963-21.966,48.963-48.964S778.733,303.247,751.734,303.247z" class="VhNmentR_0"></path>
	</defs>
	<clipPath id="SVGID_2_">
		<use xlink:href="#SVGID_1_" overflow="visible"></use>
	</clipPath>
	<path clip-path="url(#SVGID_2_)" fill="none" stroke="#57A0EE" stroke-width="60" stroke-miterlimit="10" d="M656.5,313.5
		l113,4.253c0,0,40,53.747-7,67.747s-56-46-56-46" class="VhNmentR_1"></path>
	<use xlink:href="#SVGID_1_" overflow="visible" fill="none" stroke="#57A0EE" stroke-width="5" stroke-miterlimit="10"></use>
</g>
<g>
	<defs>
		<path id="SVGID_3_" d="M613.021,317.753H250.336v41.849H613.02c19.229,0,34.873,15.644,34.873,34.872
			c0,19.23-15.645,34.874-34.873,34.874s-34.874-15.646-34.874-34.874h-41.848c0,42.304,34.418,76.722,76.722,76.722
			s76.722-34.418,76.722-76.722S655.324,317.753,613.021,317.753z" class="VhNmentR_2"></path>
	</defs>
	<clipPath id="SVGID_4_">
		<use xlink:href="#SVGID_3_" overflow="visible"></use>
	</clipPath>
	<path clip-path="url(#SVGID_4_)" fill="none" stroke="#57A0EE" stroke-width="60" stroke-miterlimit="10" d="M215.5,339.5h421
		c0,0,55,78,10,100s-102-32-100-50" class="VhNmentR_3"></path>
	<use xlink:href="#SVGID_3_" overflow="visible" fill="none" stroke="#57A0EE" stroke-width="5" stroke-miterlimit="10"></use>
</g>
<g>
	<defs>
		<path id="SVGID_5_" d="M707.47,103.129c-41.04,0-74.429,33.39-74.429,74.429c0,29.847,24.283,54.129,54.129,54.129
			c29.848,0,54.13-24.283,54.13-54.129h-40.598c0,7.461-6.069,13.532-13.533,13.532c-7.461,0-13.533-6.07-13.533-13.532
			c0-18.656,15.178-33.832,33.832-33.832c29.847,0,54.13,24.284,54.13,54.13c0,29.847-24.284,54.129-54.13,54.129H200v40.598h507.47
			c52.232,0,94.728-42.494,94.728-94.727S759.702,103.129,707.47,103.129z" class="VhNmentR_4"></path>
	</defs>
	<clipPath id="SVGID_6_">
		<use xlink:href="#SVGID_5_" overflow="visible"></use>
	</clipPath>
	<path clip-path="url(#SVGID_6_)" fill="none" stroke="#57A0EE" stroke-width="60" stroke-miterlimit="10" d="M169.5,274.5
		l563.849-8c0,0,101.849-91,0-141s-76.849,97-51.849,88s51.849-48.988,51.849-48.988" class="VhNmentR_5"></path>
	<use xlink:href="#SVGID_5_" overflow="visible" fill="none" stroke="#57A0EE" stroke-width="5" stroke-miterlimit="10"></use>
</g>
<g>
	<defs>
		<path id="SVGID_7_" d="M514.606,103.82c-34.695,0-62.922,28.227-62.922,62.922h37.753c0-13.878,11.291-25.169,25.169-25.169
			c13.877,0,25.168,11.291,25.168,25.169c0,13.877-11.291,25.168-25.168,25.168h-264.27v37.753h264.27
			c34.694,0,62.921-28.227,62.921-62.921C577.528,132.046,549.301,103.82,514.606,103.82z" class="VhNmentR_6"></path>
	</defs>
	<clipPath id="SVGID_8_">
		<use xlink:href="#SVGID_7_" overflow="visible"></use>
	</clipPath>
	<path clip-path="url(#SVGID_8_)" fill="none" stroke="#57A0EE" stroke-width="60" stroke-miterlimit="10" d="M215.5,208.5h304
		c0,0,64-46,32-71s-50.401-15-50.401-15l-40.599,51" class="VhNmentR_7"></path>
	<use xlink:href="#SVGID_7_" overflow="visible" fill="none" stroke="#57A0EE" stroke-width="5" stroke-miterlimit="10"></use>
</g>
<style data-made-with="vivus-instant">.VhNmentR_0{stroke-dasharray:561 563;stroke-dashoffset:562;animation:VhNmentR_draw_0 1300ms linear 0ms infinite,VhNmentR_fade 1300ms linear 0ms infinite;}.VhNmentR_1{stroke-dasharray:280 282;stroke-dashoffset:281;animation:VhNmentR_draw_1 1300ms linear 0ms infinite,VhNmentR_fade 1300ms linear 0ms infinite;}.VhNmentR_2{stroke-dasharray:1335 1337;stroke-dashoffset:1336;animation:VhNmentR_draw_2 1300ms linear 0ms infinite,VhNmentR_fade 1300ms linear 0ms infinite;}.VhNmentR_3{stroke-dasharray:659 661;stroke-dashoffset:660;animation:VhNmentR_draw_3 1300ms linear 0ms infinite,VhNmentR_fade 1300ms linear 0ms infinite;}.VhNmentR_4{stroke-dasharray:1947 1949;stroke-dashoffset:1948;animation:VhNmentR_draw_4 1300ms linear 0ms infinite,VhNmentR_fade 1300ms linear 0ms infinite;}.VhNmentR_5{stroke-dasharray:979 981;stroke-dashoffset:980;animation:VhNmentR_draw_5 1300ms linear 0ms infinite,VhNmentR_fade 1300ms linear 0ms infinite;}.VhNmentR_6{stroke-dasharray:1020 1022;stroke-dashoffset:1021;animation:VhNmentR_draw_6 1300ms linear 0ms infinite,VhNmentR_fade 1300ms linear 0ms infinite;}.VhNmentR_7{stroke-dasharray:514 516;stroke-dashoffset:515;animation:VhNmentR_draw_7 1300ms linear 0ms infinite,VhNmentR_fade 1300ms linear 0ms infinite;}@keyframes VhNmentR_draw{100%{stroke-dashoffset:0;}}@keyframes VhNmentR_fade{0%{stroke-opacity:1;}92.3076923076923%{stroke-opacity:1;}100%{stroke-opacity:0;}}@keyframes VhNmentR_draw_0{7.6923076923076925%{stroke-dashoffset: 562}84.61538461538461%{ stroke-dashoffset: 0;}100%{ stroke-dashoffset: 0;}}@keyframes VhNmentR_draw_1{7.6923076923076925%{stroke-dashoffset: 281}84.61538461538461%{ stroke-dashoffset: 0;}100%{ stroke-dashoffset: 0;}}@keyframes VhNmentR_draw_2{7.6923076923076925%{stroke-dashoffset: 1336}84.61538461538461%{ stroke-dashoffset: 0;}100%{ stroke-dashoffset: 0;}}@keyframes VhNmentR_draw_3{7.6923076923076925%{stroke-dashoffset: 660}84.61538461538461%{ stroke-dashoffset: 0;}100%{ stroke-dashoffset: 0;}}@keyframes VhNmentR_draw_4{7.6923076923076925%{stroke-dashoffset: 1948}84.61538461538461%{ stroke-dashoffset: 0;}100%{ stroke-dashoffset: 0;}}@keyframes VhNmentR_draw_5{7.6923076923076925%{stroke-dashoffset: 980}84.61538461538461%{ stroke-dashoffset: 0;}100%{ stroke-dashoffset: 0;}}@keyframes VhNmentR_draw_6{7.6923076923076925%{stroke-dashoffset: 1021}84.61538461538461%{ stroke-dashoffset: 0;}100%{ stroke-dashoffset: 0;}}@keyframes VhNmentR_draw_7{7.6923076923076925%{stroke-dashoffset: 515}84.61538461538461%{ stroke-dashoffset: 0;}100%{ stroke-dashoffset: 0;}}</style></svg>
