<?xml version="1.0" standalone="no"?><!-- Generator: Gravit.io --><svg xmlns="http://www.w3.org/2000/svg" xmlns:xlink="http://www.w3.org/1999/xlink" style="isolation:isolate" viewBox="0 0 200 400" width="200" height="400"><defs><clipPath id="_clipPath_8F6Sv8MkJA8GpGMsATdqrrk0jiVURpr7"><rect width="200" height="400"/></clipPath></defs><g clip-path="url(#_clipPath_8F6Sv8MkJA8GpGMsATdqrrk0jiVURpr7)"><rect width="200" height="400" style="fill:rgb(102,102,102)" fill-opacity="0"/><g style="isolation:isolate"><path d="M 81.824 97 L 118.176 97 C 126.91 97 134 104.09 134 112.824 L 134 186.176 C 134 194.91 126.91 202 118.176 202 L 81.824 202 C 73.09 202 66 194.91 66 186.176 L 66 112.824 C 66 104.09 73.09 97 81.824 97 Z" style="stroke:none;fill:#FFD699;stroke-miterlimit:10;"/><ellipse vector-effect="non-scaling-stroke" cx="100.00000000000006" cy="194.0000000000002" rx="40" ry="39.49999999999994" fill="rgb(255,214,153)"/></g><g style="isolation:isolate"><g><circle vector-effect="non-scaling-stroke" cx="55.75000000000007" cy="53.99999999999997" r="7.999999999999986" fill="rgb(255,214,153)"/><circle vector-effect="non-scaling-stroke" cx="57.24999999999993" cy="53.99999999999997" r="4.750000000000064" fill="rgb(255,194,102)"/></g><g><circle vector-effect="non-scaling-stroke" cx="144.24999999999994" cy="53.99999999999997" r="7.999999999999972" fill="rgb(255,214,153)"/><circle vector-effect="non-scaling-stroke" cx="144.24999999999994" cy="54" r="4.750000000000057" fill="rgb(255,194,102)"/></g><path d="M 100.131 72.5 L 101.869 72.5 C 110.772 72.5 118 79.728 118 88.631 L 118 95.869 C 118 104.772 110.772 112 101.869 112 L 100.131 112 C 91.228 112 84 104.772 84 95.869 L 84 88.631 C 84 79.728 91.228 72.5 100.131 72.5 Z" style="stroke:none;fill:#FFC266;stroke-miterlimit:10;"/><path d="M 56.873 47 L 145 47 L 145 90 C 145 92.76 142.76 95 140 95 L 61.873 95 C 59.113 95 56.873 92.76 56.873 90 L 56.873 47 Z" style="stroke:none;fill:#331F01;stroke-miterlimit:10;"/><circle vector-effect="non-scaling-stroke" cx="100.74999999999994" cy="54" r="43.5" fill="rgb(255,214,153)"/><ellipse vector-effect="non-scaling-stroke" cx="82.99999999999987" cy="50.999999999999986" rx="8.5" ry="5.000000000000007" fill="rgb(255,194,102)"/><g><circle vector-effect="non-scaling-stroke" cx="82.74999999999999" cy="54" r="5" fill="rgb(3,3,64)"/><circle vector-effect="non-scaling-stroke" cx="81.99999999999996" cy="52.75" r="2.750000000000014" fill="rgb(96,125,139)"/><circle vector-effect="non-scaling-stroke" cx="84.24999999999996" cy="55.500000000000014" r="1.5" fill="rgb(255,255,255)"/></g><ellipse vector-effect="non-scaling-stroke" cx="118.74999999999997" cy="50.999999999999986" rx="8.5" ry="5.000000000000007" fill="rgb(255,194,102)"/><g><circle vector-effect="non-scaling-stroke" cx="118.74999999999997" cy="54" r="5" fill="rgb(3,3,64)"/><circle vector-effect="non-scaling-stroke" cx="118.99999999999994" cy="52.75" r="2.750000000000014" fill="rgb(96,125,139)"/><circle vector-effect="non-scaling-stroke" cx="118.24999999999997" cy="55.500000000000014" r="1.5" fill="rgb(255,255,255)"/></g><path d=" M 76.5 49 C 77.2 46.747 84.5 43 89.5 49" fill="none" vector-effect="non-scaling-stroke" stroke-width="2" stroke="rgb(85,51,1)" stroke-linejoin="miter" stroke-linecap="round" stroke-miterlimit="3"/><path d=" M 112.5 49 C 113.2 46.747 120.5 43 125.5 49" fill="none" vector-effect="non-scaling-stroke" stroke-width="2" stroke="rgb(85,51,1)" stroke-linejoin="miter" stroke-linecap="round" stroke-miterlimit="3"/><path d=" M 112.394 71 C 112.467 71.489 112.5 71.99 112.5 72.5 C 112.5 78.847 107.347 84 101 84 C 94.653 84 89.5 78.847 89.5 72.5 C 89.5 71.99 89.533 71.489 89.606 71 L 112.394 71 L 112.394 71 Z " fill="rgb(46,46,46)"/><path d="M 91.5 71 L 110.5 71 L 110.5 73.04 C 110.5 73.57 110.07 74 109.54 74 L 92.46 74 C 91.93 74 91.5 73.57 91.5 73.04 L 91.5 71 Z" style="stroke:none;fill:#FFFFFF;stroke-miterlimit:10;"/><path d=" M 54 46.658 Q 98.591 43.997 109.771 24.305 Q 120.951 4.614 101.971 42.4 Q 114.191 35.215 117.571 24.305 Q 120.951 13.395 133.17 39.207 Q 136.81 45.061 141.49 46.658 Q 146.17 48.254 144.61 42.4 Q 143.375 20.447 133.17 11.532 Q 122.966 2.618 93.651 3.017 Q 75.907 5.612 67.652 15.79 Q 59.397 25.968 54 46.658 Z " fill="rgb(85,51,1)"/></g><g><path d=" M 119.437 116.878 C 117.518 115.052 116.399 112.542 116.332 109.889 C 116.275 107.235 117.257 104.661 119.093 102.742 C 120.919 100.823 123.429 99.704 126.082 99.637 C 128.735 99.58 131.31 100.562 133.229 102.398 C 136.675 105.669 140.018 109.038 143.278 112.504 C 146.353 115.774 149.296 119.165 152.107 122.656 C 154.821 126.055 157.373 129.577 159.754 133.212 C 162.114 136.839 164.284 140.591 166.231 144.461 C 168.226 148.417 170.009 152.481 171.567 156.632 C 173.203 160.997 174.625 165.45 175.83 169.96 C 177.124 174.824 178.231 179.742 179.14 184.696 C 180.14 190.165 180.972 195.667 181.634 201.182 C 181.95 203.815 181.215 206.471 179.573 208.555 C 177.941 210.639 175.539 211.991 172.905 212.307 C 170.272 212.623 167.616 211.888 165.532 210.246 C 163.448 208.614 162.097 206.212 161.78 203.578 C 161.159 198.461 160.389 193.366 159.461 188.303 C 158.653 183.862 157.667 179.466 156.503 175.113 C 155.467 171.232 154.245 167.406 152.837 163.644 C 151.543 160.175 150.053 156.781 148.38 153.471 C 146.755 150.268 144.966 147.148 142.995 144.133 C 140.978 141.051 138.819 138.06 136.507 135.182 C 134.028 132.086 131.426 129.09 128.703 126.203 C 125.704 123.008 122.612 119.899 119.437 116.878 Z " fill="rgb(255,214,153)"/><path d=" M 157.544 207.25 C 157.016 200.51 162.06 194.609 168.801 194.082 C 175.541 193.554 181.442 198.598 181.969 205.339 C 182.497 212.079 177.453 217.98 170.712 218.507 C 163.972 219.035 158.071 213.99 157.544 207.25 Z " fill="rgb(255,214,153)"/><path d=" M 158.498 203.414 C 158.261 200.388 160.525 197.739 163.552 197.502 C 166.578 197.265 169.227 199.53 169.464 202.556 C 169.701 205.582 167.436 208.231 164.41 208.468 C 161.384 208.705 158.734 206.44 158.498 203.414 Z " fill="rgb(255,194,102)"/></g><g><path d=" M 41.022 202.115 C 41.067 204.764 40.046 207.332 38.209 209.232 C 36.361 211.14 33.834 212.234 31.185 212.28 C 28.536 212.326 25.968 211.304 24.068 209.468 C 22.16 207.62 21.066 205.093 21.02 202.444 C 20.931 197.026 21.142 191.618 21.643 186.231 C 22.1 181.262 22.856 176.324 23.917 171.447 C 24.897 166.864 26.163 162.341 27.701 157.906 C 29.173 153.616 30.928 149.415 32.931 145.341 C 34.921 141.295 37.169 137.377 39.653 133.604 C 42.184 129.766 44.941 126.082 47.92 122.581 C 51.036 118.915 54.385 115.433 57.922 112.172 C 61.725 108.677 65.706 105.402 69.875 102.347 C 72.017 100.791 74.69 100.134 77.312 100.538 C 79.934 100.942 82.289 102.374 83.855 104.518 C 85.411 106.66 86.068 109.333 85.664 111.955 C 85.26 114.577 83.828 116.932 81.685 118.498 C 78.127 121.093 74.718 123.895 71.471 126.885 C 68.524 129.594 65.749 132.492 63.159 135.54 C 60.707 138.422 58.431 141.452 56.353 144.604 C 54.334 147.681 52.502 150.878 50.882 154.178 C 49.238 157.506 47.816 160.927 46.595 164.439 C 45.327 168.118 44.284 171.86 43.465 175.666 C 42.577 179.755 41.944 183.902 41.559 188.075 C 41.123 192.745 40.946 197.432 41.022 202.115 Z " fill="rgb(255,214,153)"/><path d=" M 21.183 205.025 C 21.884 198.3 27.912 193.409 34.637 194.11 C 41.361 194.811 46.252 200.839 45.551 207.563 C 44.851 214.288 38.823 219.179 32.098 218.478 C 25.373 217.778 20.483 211.749 21.183 205.025 Z " fill="rgb(255,214,153)"/><path d=" M 33.756 202.564 C 34.07 199.545 36.777 197.349 39.796 197.664 C 42.815 197.978 45.011 200.685 44.697 203.704 C 44.382 206.723 41.676 208.919 38.656 208.605 C 35.637 208.29 33.441 205.583 33.756 202.564 Z " fill="rgb(255,194,102)"/></g><g><path d="M 44.24 360 L 74.76 360 C 78.204 360 81 362.796 81 366.24 L 81 369.76 C 81 373.204 78.204 376 74.76 376 L 44.24 376 C 40.796 376 38 373.204 38 369.76 L 38 366.24 C 38 362.796 40.796 360 44.24 360 Z" style="stroke:none;fill:#FFD699;stroke-miterlimit:10;"/><circle vector-effect="non-scaling-stroke" cx="51" cy="371" r="5" fill="rgb(255,194,102)"/></g><g><path d=" M 120.02 226.361 C 119.04 223.952 119.08 221.269 120.13 218.889 C 121.18 216.519 123.16 214.646 125.62 213.69 C 128.08 212.734 130.84 212.773 133.27 213.797 C 135.71 214.821 137.63 216.743 138.61 219.143 C 139.13 220.44 139.57 221.757 139.92 223.103 C 140.3 224.557 140.63 226.01 140.91 227.483 C 141.55 230.936 142.06 234.419 142.44 237.911 C 143.9 246.944 145.05 256.035 145.87 265.156 C 146.61 273.506 146.99 281.885 147 290.275 C 146.98 301.405 146.29 312.535 144.94 323.597 C 144.25 329.264 143.42 334.912 142.46 340.551 C 141.45 346.491 140.34 352.412 139.12 358.314 C 138.59 360.85 137.06 363.084 134.85 364.518 C 132.64 365.952 129.94 366.469 127.34 365.952 C 124.74 365.445 122.46 363.943 120.99 361.797 C 119.52 359.641 118.99 357.007 119.51 354.471 C 120.69 348.784 121.76 343.077 122.74 337.351 C 123.64 332.015 124.43 326.66 125.08 321.285 C 126.34 310.994 126.98 300.634 127 290.265 C 126.99 282.451 126.64 274.638 125.94 266.853 C 125.15 258.016 124.03 249.207 122.6 240.447 C 122.27 237.277 121.82 234.116 121.23 230.985 C 121.04 229.951 120.81 228.937 120.54 227.922 C 120.4 227.395 120.23 226.869 120.02 226.361 Z " fill="rgb(255,214,153)"/><path d="M 123.273 359.319 L 153.947 359.319 C 157.348 359.319 160.11 362.08 160.11 365.482 L 160.11 368.763 C 160.11 372.165 157.348 374.926 153.947 374.926 L 123.273 374.926 C 119.872 374.926 117.11 372.165 117.11 368.763 L 117.11 365.482 C 117.11 362.08 119.872 359.319 123.273 359.319 Z" style="stroke:none;fill:#FFD699;stroke-miterlimit:10;"/><ellipse vector-effect="non-scaling-stroke" cx="147.75000000000009" cy="367.12261821857226" rx="5" ry="4.877381781427687" fill="rgb(255,194,102)"/></g><g style="isolation:isolate"><g><line x1="69" y1="133" x2="84" y2="97" vector-effect="non-scaling-stroke" stroke-width="1" stroke="rgb(0,0,0)" stroke-linejoin="miter" stroke-linecap="butt" stroke-miterlimit="3"/><line x1="118" y1="97" x2="130" y2="132" vector-effect="non-scaling-stroke" stroke-width="1" stroke="rgb(0,0,0)" stroke-linejoin="miter" stroke-linecap="square" stroke-miterlimit="3"/><path d="M 71 129 L 129 129 C 131.76 129 134 131.24 134 134 L 134 148 L 66 148 L 66 134 C 66 131.24 68.24 129 71 129 Z" style="stroke:none;fill:#980000;stroke-miterlimit:10;"/><rect x="66" y="148" width="68" height="2" transform="matrix(1,0,0,1,0,0)" fill="rgb(255,255,255)"/><path d=" M 90 141 C 89.421 143.839 86.336 146 82.625 146 C 78.914 146 75.828 143.839 75.249 141" fill="none" vector-effect="non-scaling-stroke" stroke-width="2" stroke="rgb(91,0,0)" stroke-linejoin="miter" stroke-linecap="round" stroke-miterlimit="3"/><path d=" M 126.375 141 C 125.796 143.839 122.711 146 119 146 C 115.289 146 112.204 143.839 111.625 141" fill="none" vector-effect="non-scaling-stroke" stroke-width="2" stroke="rgb(76,0,0)" stroke-linejoin="miter" stroke-linecap="round" stroke-miterlimit="3"/></g><path d=" M 60.318 202.5 L 139.682 202.5 C 139.082 207.179 137.652 211.604 135.542 215.626 C 134.856 215.09 134.093 214.643 133.27 214.297 C 130.84 213.273 128.08 213.234 125.62 214.19 C 123.16 215.146 121.18 217.019 120.13 219.389 C 119.08 221.769 119.04 224.452 120.02 226.861 C 120.23 227.369 120.4 227.895 120.54 228.422 C 120.77 229.286 120.971 230.149 121.139 231.027 C 115.007 234.813 107.76 237 100 237 C 91.978 237 84.504 234.663 78.254 230.622 C 78.405 229.883 78.578 229.152 78.773 228.422 C 78.913 227.895 79.083 227.369 79.293 226.861 C 80.273 224.452 80.233 221.769 79.183 219.389 C 78.133 217.019 76.153 215.146 73.693 214.19 C 71.233 213.234 68.473 213.273 66.043 214.297 C 65.414 214.561 64.82 214.885 64.272 215.267 C 62.263 211.341 60.9 207.04 60.318 202.5 Z " fill-rule="evenodd" fill="rgb(152,0,0)"/></g><path d=" M 80.293 225.361 C 81.273 222.952 81.233 220.269 80.183 217.889 C 79.133 215.519 77.153 213.646 74.693 212.69 C 72.233 211.734 69.473 211.773 67.043 212.797 C 64.603 213.821 62.683 215.743 61.703 218.143 C 61.183 219.44 60.743 220.757 60.393 222.103 C 60.013 223.557 59.683 225.01 59.403 226.483 C 58.763 229.936 58.253 233.419 57.873 236.911 C 56.413 245.944 55.263 255.035 54.443 264.156 C 53.703 272.506 53.323 280.885 53.313 289.275 C 53.333 300.405 54.023 311.535 55.373 322.597 C 56.063 328.264 56.893 333.912 57.853 339.551 C 58.863 345.491 59.973 351.412 61.193 357.314 C 61.723 359.85 63.253 362.084 65.463 363.518 C 67.673 364.952 70.373 365.469 72.973 364.952 C 75.573 364.445 77.853 362.943 79.323 360.797 C 80.793 358.641 81.323 356.007 80.803 353.471 C 79.623 347.784 78.553 342.077 77.573 336.351 C 76.673 331.015 75.883 325.66 75.233 320.285 C 73.973 309.994 73.333 299.634 73.313 289.265 C 73.323 281.451 73.673 273.638 74.373 265.853 C 75.163 257.016 76.283 248.207 77.713 239.447 C 78.043 236.277 78.493 233.116 79.083 229.985 C 79.273 228.951 79.503 227.937 79.773 226.922 C 79.913 226.395 80.083 225.869 80.293 225.361 Z " fill="rgb(255,214,153)"/><rect x="60.459" y="202" width="79.081" height="2" transform="matrix(1,0,0,1,0,0)" fill="rgb(255,255,255)"/></g></svg>