<?xml version="1.0" standalone="no"?><!-- Generator: Gravit.io --><svg xmlns="http://www.w3.org/2000/svg" xmlns:xlink="http://www.w3.org/1999/xlink" style="isolation:isolate" viewBox="0 0 200 400" width="200" height="400"><defs><clipPath id="_clipPath_Dj5Re0DFlxdGLENvzH9FnoOPwWJesv1Z"><rect width="200" height="400"/></clipPath></defs><g clip-path="url(#_clipPath_Dj5Re0DFlxdGLENvzH9FnoOPwWJesv1Z)"><g style="isolation:isolate"/><g style="isolation:isolate"><g><rect x="38" y="375" width="44" height="4" transform="matrix(1,0,0,1,0,0)" fill="rgb(179,107,0)"/><path d=" M 45 375 Q 44.923 370.966 45 370 C 45.088 368.895 47.016 364.953 51 365 C 54.984 365.047 56.484 367.625 57 370 Q 57.516 372.375 57 375" fill="none" vector-effect="non-scaling-stroke" stroke-width="2" stroke="rgb(0,0,0)" stroke-linejoin="miter" stroke-linecap="butt" stroke-miterlimit="3"/><path d=" M 65.85 375.24 L 62.15 376.76 L 55.15 359.76 L 58.85 358.24 L 65.85 375.24 Z " fill="rgb(0,0,0)"/><path d=" M 76.54 374.73 L 77.82 376.27 L 74.73 378.82 L 73.46 377.27 L 59.46 360.27 L 58.18 358.73 L 61.27 356.18 L 62.54 357.73 L 76.54 374.73 Z " fill="rgb(0,0,0)"/><path d=" M 76.96 376.28 L 76.68 377.24 L 74.76 376.68 L 75.04 375.72 L 80.04 358.72 L 80.32 357.76 L 82.24 358.32 L 81.96 359.28 L 76.96 376.28 Z " fill="rgb(0,0,0)"/><path d=" M 45.54 361.36 L 45.18 359.91 L 48.09 359.18 L 48.46 360.64 L 49.46 364.64 L 49.82 366.09 L 46.91 366.82 L 46.54 365.36 L 45.54 361.36 Z " fill="rgb(0,0,0)"/><path d=" M 51.5 361 L 51.5 359.5 L 54.5 359.5 L 54.5 361 L 54.5 364 L 54.5 365.5 L 51.5 365.5 L 51.5 364 L 51.5 361 Z " fill="rgb(0,0,0)"/></g><g><rect x="118" y="375" width="44" height="4" transform="matrix(1,0,0,1,0,0)" fill="rgb(179,107,0)"/><path d=" M 155 375 Q 155.077 370.966 155 370 C 154.912 368.895 152.984 364.953 149 365 C 145.016 365.047 143.516 367.625 143 370 Q 142.484 372.375 143 375" fill="none" vector-effect="non-scaling-stroke" stroke-width="2" stroke="rgb(0,0,0)" stroke-linejoin="miter" stroke-linecap="butt" stroke-miterlimit="3"/><path d=" M 137.85 376.76 L 134.15 375.24 L 141.15 358.24 L 144.85 359.76 L 137.85 376.76 Z " fill="rgb(0,0,0)"/><path d=" M 126.54 377.27 L 125.27 378.82 L 122.18 376.27 L 123.46 374.73 L 137.46 357.73 L 138.73 356.18 L 141.82 358.73 L 140.54 360.27 L 126.54 377.27 Z " fill="rgb(0,0,0)"/><path d=" M 124.96 375.72 L 125.24 376.68 L 123.32 377.24 L 123.04 376.28 L 118.04 359.28 L 117.76 358.32 L 119.68 357.76 L 119.96 358.72 L 124.96 375.72 Z " fill="rgb(0,0,0)"/><path d=" M 151.54 360.64 L 151.91 359.18 L 154.82 359.91 L 154.46 361.36 L 153.46 365.36 L 153.09 366.82 L 150.18 366.09 L 150.54 364.64 L 151.54 360.64 Z " fill="rgb(0,0,0)"/><path d=" M 145.5 361 L 145.5 359.5 L 148.5 359.5 L 148.5 361 L 148.5 364 L 148.5 365.5 L 145.5 365.5 L 145.5 364 L 145.5 361 Z " fill="rgb(0,0,0)"/></g></g><g style="isolation:isolate"><path d=" M 119.481 232 C 120.041 231.687 120.595 231.363 121.139 231.027 C 120.971 230.149 120.77 229.286 120.54 228.422 C 120.4 227.895 120.23 227.369 120.02 226.861 C 119.04 224.452 119.08 221.769 120.13 219.389 C 121.18 217.019 123.16 215.146 125.62 214.19 C 128.08 213.234 130.84 213.273 133.27 214.297 C 134.093 214.643 134.856 215.09 135.542 215.626 C 137.652 211.604 139.082 207.179 139.682 202.5 L 60.318 202.5 C 60.9 207.04 62.263 211.341 64.272 215.267 C 64.82 214.885 65.414 214.561 66.043 214.297 C 68.473 213.273 71.233 213.234 73.693 214.19 C 76.153 215.146 78.133 217.019 79.183 219.389 C 80.233 221.769 80.273 224.452 79.293 226.861 C 79.083 227.369 78.913 227.895 78.773 228.422 C 78.578 229.152 78.405 229.883 78.254 230.622 C 79.011 231.111 79.786 231.575 80.586 232 L 119.481 232 L 119.481 232 Z " fill="rgb(152,0,0)"/><path d=" M 60 194 L 51 276 L 150 276 L 140 194 L 60 194 Z " fill="rgb(255,255,255)"/><path d=" M 110.879 232 C 127.679 227.33 140 212.075 140 194 C 140 172.199 122.077 154.5 100 154.5 C 77.923 154.5 60 172.199 60 194 C 60 212.075 72.321 227.33 89.121 232 L 110.879 232 L 110.879 232 Z " fill="rgb(255,255,255)"/><g><path d=" M 83.54 96.81 L 84.46 97.19 L 69.46 133.19 L 68.54 132.81 L 83.54 96.81 Z " fill="rgb(0,0,0)"/><path d=" M 130.47 131.84 L 130.64 132.31 L 129.69 132.64 L 129.53 132.16 L 117.53 97.16 L 117.36 96.69 L 118.31 96.36 L 118.47 96.84 L 130.47 131.84 Z " fill="rgb(0,0,0)"/><path d="M 73.947 127 L 126.053 127 C 130.439 127 134 130.561 134 134.947 L 134 175 L 66 175 L 66 134.947 C 66 130.561 69.561 127 73.947 127 Z" style="stroke:none;fill:#FFFFFF;stroke-miterlimit:10;"/><path d=" M 89.02 140.79 C 89.08 140.53 89.23 140.31 89.45 140.16 C 89.68 140.02 89.95 139.97 90.21 140.02 C 90.47 140.08 90.69 140.23 90.84 140.45 C 90.98 140.68 91.03 140.95 90.98 141.21 C 90.8 142.06 90.44 142.86 89.94 143.56 C 89.42 144.28 88.78 144.9 88.04 145.4 C 86.44 146.46 84.55 147.02 82.62 147 C 80.7 147.02 78.81 146.46 77.21 145.4 C 76.47 144.9 75.83 144.28 75.31 143.56 C 74.8 142.86 74.45 142.06 74.27 141.21 C 74.22 140.95 74.27 140.68 74.41 140.45 C 74.56 140.23 74.78 140.08 75.04 140.02 C 75.3 139.97 75.57 140.02 75.8 140.16 C 76.02 140.31 76.17 140.53 76.23 140.79 C 76.35 141.37 76.59 141.92 76.93 142.39 C 77.31 142.92 77.78 143.37 78.32 143.73 C 79.59 144.58 81.09 145.02 82.62 145 C 84.15 145.02 85.66 144.58 86.93 143.73 C 87.47 143.37 87.94 142.92 88.31 142.39 C 88.66 141.92 88.9 141.37 89.02 140.79 Z " fill="rgb(139,139,139)"/><path d=" M 125.4 140.79 C 125.45 140.53 125.61 140.31 125.83 140.16 C 126.05 140.02 126.32 139.97 126.58 140.02 C 126.84 140.08 127.07 140.23 127.21 140.45 C 127.36 140.68 127.41 140.95 127.35 141.21 C 127.18 142.06 126.82 142.86 126.31 143.56 C 125.79 144.28 125.15 144.9 124.42 145.4 C 122.82 146.46 120.93 147.02 119 147 C 117.07 147.02 115.18 146.46 113.58 145.4 C 112.85 144.9 112.21 144.28 111.69 143.56 C 111.18 142.86 110.82 142.06 110.65 141.21 C 110.59 140.95 110.64 140.68 110.79 140.45 C 110.93 140.23 111.16 140.08 111.42 140.02 C 111.68 139.97 111.95 140.02 112.17 140.16 C 112.39 140.31 112.55 140.53 112.6 140.79 C 112.72 141.37 112.97 141.92 113.31 142.39 C 113.69 142.92 114.16 143.37 114.69 143.73 C 115.97 144.58 117.47 145.02 119 145 C 120.53 145.02 122.03 144.58 123.31 143.73 C 123.84 143.37 124.31 142.92 124.69 142.39 C 125.03 141.92 125.28 141.37 125.4 140.79 Z " fill="rgb(139,139,139)"/></g><path d=" M 77.26 237.91 L 79.25 238.09 L 76 276.09 L 74 275.91 L 77.26 237.91 Z " fill="rgb(232,232,232)"/><rect x="66" y="157" width="68" height="16" transform="matrix(1,0,0,1,0,0)" fill="rgb(235,235,235)"/><path d=" M 99 223 L 101 223 L 101 276 L 99 276 L 99 223 Z " fill="rgb(232,232,232)"/><path d=" M 129.01 246.13 L 130.99 245.87 L 134.99 275.87 L 133.01 276.13 L 129.01 246.13 Z " fill="rgb(232,232,232)"/></g><g style="isolation:isolate"><path d=" M 57.928 44 L 57.873 44 C 57.321 44 56.873 44.448 56.873 45 L 56.873 46.078 C 56.506 46.027 56.131 46 55.75 46 C 51.335 46 47.75 49.585 47.75 54 C 47.75 58.415 51.335 62 55.75 62 C 56.131 62 56.506 61.973 56.873 61.922 L 56.873 79.962 C 41.397 73.359 31.5 63.282 31.5 52 C 31.5 40.327 42.094 29.944 58.507 23.369 C 60.784 10.796 78.506 1 100 1 C 121.494 1 139.216 10.796 141.493 23.369 C 157.906 29.944 168.5 40.327 168.5 52 C 168.5 62.82 159.397 72.532 145 79.134 L 145 61.965 C 149.064 61.587 152.25 58.162 152.25 54 C 152.25 49.838 149.064 46.413 145 46.035 L 145 45 C 145 44.448 144.552 44 144 44 L 143.838 44 Q 128.156 27 101.127 27 Q 74.098 27 57.928 44 Z " fill-rule="evenodd" fill="rgb(255,184,77)"/><g><ellipse vector-effect="non-scaling-stroke" cx="118.5" cy="56" rx="12.5" ry="8" fill="rgb(128,77,0)" fill-opacity="0.75" stroke-width="1" stroke="rgb(0,0,0)" stroke-linejoin="miter" stroke-linecap="square" stroke-miterlimit="3"/><path d=" M 142.7 46.6 C 142.81 46.52 142.94 46.49 143.07 46.51 C 143.2 46.52 143.32 46.59 143.4 46.7 C 143.48 46.81 143.51 46.94 143.49 47.07 C 143.48 47.2 143.41 47.32 143.3 47.4 L 131.3 56.4 C 131.19 56.48 131.06 56.51 130.93 56.49 C 130.8 56.48 130.68 56.41 130.6 56.3 C 130.52 56.19 130.49 56.06 130.51 55.93 C 130.52 55.8 130.59 55.68 130.7 55.6 L 142.7 46.6 Z " fill="rgb(0,0,0)"/><ellipse vector-effect="non-scaling-stroke" cx="82.5" cy="56" rx="12.5" ry="8" fill="rgb(128,77,0)" fill-opacity="0.75" stroke-width="1" stroke="rgb(0,0,0)" stroke-linejoin="miter" stroke-linecap="square" stroke-miterlimit="3"/><path d=" M 106 55.5 L 106.5 55.5 L 106.5 56.5 L 106 56.5 L 95 56.5 L 94.5 56.5 L 94.5 55.5 L 95 55.5 L 106 55.5 Z " fill="rgb(0,0,0)"/><path d=" M 69.7 56.4 L 56.7 46.4 C 56.59 46.32 56.52 46.2 56.5 46.06 C 56.49 45.93 56.52 45.8 56.6 45.7 C 56.68 45.59 56.8 45.52 56.94 45.5 C 57.07 45.49 57.2 45.52 57.3 45.6 L 70.3 55.6 C 70.41 55.68 70.48 55.8 70.5 55.94 C 70.51 56.07 70.48 56.2 70.4 56.3 C 70.32 56.41 70.2 56.48 70.06 56.5 C 69.93 56.51 69.8 56.48 69.7 56.4 Z " fill="rgb(0,0,0)"/></g></g></g></svg>