<?xml version="1.0" standalone="no"?><!-- Generator: Gravit.io --><svg xmlns="http://www.w3.org/2000/svg" xmlns:xlink="http://www.w3.org/1999/xlink" style="isolation:isolate" viewBox="0 0 200 400" width="200" height="400"><defs><clipPath id="_clipPath_2f8KcXTpTeRvW5aUpPo35DnPeCkCMgC1"><rect width="200" height="400"/></clipPath></defs><g clip-path="url(#_clipPath_2f8KcXTpTeRvW5aUpPo35DnPeCkCMgC1)"><g style="isolation:isolate"><path d=" M 120.02 226.361 C 119.04 223.952 119.08 221.269 120.13 218.889 C 121.18 216.519 123.16 214.646 125.62 213.69 C 128.08 212.734 130.84 212.773 133.27 213.797 C 135.71 214.821 137.63 216.743 138.61 219.143 C 139.13 220.44 139.57 221.757 139.92 223.103 C 140.3 224.557 140.63 226.01 140.91 227.483 C 141.55 230.936 142.06 234.419 142.44 237.911 C 143.9 246.944 145.05 256.035 145.87 265.156 C 146.61 273.506 146.99 281.885 147 290.275 C 146.98 301.405 146.29 312.535 144.94 323.597 C 144.25 329.264 143.42 334.912 142.46 340.551 C 141.45 346.491 140.34 352.412 139.12 358.314 C 138.59 360.85 137.06 363.084 134.85 364.518 C 132.64 365.952 129.94 366.469 127.34 365.952 C 124.74 365.445 122.46 363.943 120.99 361.797 C 119.52 359.641 118.99 357.007 119.51 354.471 C 120.69 348.784 121.76 343.077 122.74 337.351 C 123.64 332.015 124.43 326.66 125.08 321.285 C 126.34 310.994 126.98 300.634 127 290.265 C 126.99 282.451 126.64 274.638 125.94 266.853 C 125.15 258.016 124.03 249.207 122.6 240.447 C 122.27 237.277 121.82 234.116 121.23 230.985 C 121.04 229.951 120.81 228.937 120.54 227.922 C 120.4 227.395 120.23 226.869 120.02 226.361 Z " fill="rgb(46,46,46)" fill-opacity="0.7"/><path d=" M 80.293 225.361 C 81.273 222.952 81.233 220.269 80.183 217.889 C 79.133 215.519 77.153 213.646 74.693 212.69 C 72.233 211.734 69.473 211.773 67.043 212.797 C 64.603 213.821 62.683 215.743 61.703 218.143 C 61.183 219.44 60.743 220.757 60.393 222.103 C 60.013 223.557 59.683 225.01 59.403 226.483 C 58.763 229.936 58.253 233.419 57.873 236.911 C 56.413 245.944 55.263 255.035 54.443 264.156 C 53.703 272.506 53.323 280.885 53.313 289.275 C 53.333 300.405 54.023 311.535 55.373 322.597 C 56.063 328.264 56.893 333.912 57.853 339.551 C 58.863 345.491 59.973 351.412 61.193 357.314 C 61.723 359.85 63.253 362.084 65.463 363.518 C 67.673 364.952 70.373 365.469 72.973 364.952 C 75.573 364.445 77.853 362.943 79.323 360.797 C 80.793 358.641 81.323 356.007 80.803 353.471 C 79.623 347.784 78.553 342.077 77.573 336.351 C 76.673 331.015 75.883 325.66 75.233 320.285 C 73.973 309.994 73.333 299.634 73.313 289.265 C 73.323 281.451 73.673 273.638 74.373 265.853 C 75.163 257.016 76.283 248.207 77.713 239.447 C 78.043 236.277 78.493 233.116 79.083 229.985 C 79.273 228.951 79.503 227.937 79.773 226.922 C 79.913 226.395 80.083 225.869 80.293 225.361 Z " fill="rgb(46,46,46)" fill-opacity="0.7"/><path d=" M 140 194 C 140 212.075 127.679 227.33 110.879 232 L 110.879 232 L 89.121 232 C 72.321 227.33 60 212.075 60 194 L 140 194 L 140 194 Z " fill="rgb(152,0,0)"/><path d=" M 60 194 L 51 280 L 95 280 L 98 276 L 100 280 L 149 280 L 140 194 L 60 194 Z " fill="rgb(152,0,0)"/><path d=" M 59.403 194 L 139.92 194 L 141 207 L 59 207 L 59.403 194 Z " fill="rgb(122,0,0)"/><path d=" M 101 280 L 98 276 L 100 221 L 101 280 Z " fill="rgb(122,0,0)"/><path d=" M 89.121 280 L 87 236.911 L 83 280 L 89.121 280 Z " fill="rgb(122,0,0)"/><path d=" M 61.703 280 L 65.463 243 L 67.043 248 L 65.463 280 L 61.703 280 Z " fill="rgb(122,0,0)"/><path d=" M 125.62 280 L 122.74 235 L 125.08 242 L 129 280 L 125.62 280 Z " fill="rgb(122,0,0)"/></g><g style="isolation:isolate"><g><g><path d="M 46 359 L 76.942 359 C 79.734 359 82 361.266 82 364.058 L 82 370.942 C 82 373.734 79.734 376 76.942 376 L 43.058 376 C 40.266 376 38 373.734 38 370.942 L 38 367 C 38 362.585 41.585 359 46 359 Z" style="stroke:none;fill:#2E2E2E;stroke-miterlimit:10;"/><rect x="58" y="347" width="23" height="18" transform="matrix(1,0,0,1,0,0)" fill="rgb(46,46,46)"/><path d="M 58.057 343 L 78.943 343 C 80.63 343 82 344.37 82 346.057 L 82 347.943 C 82 349.63 80.63 351 78.943 351 L 58.057 351 C 56.37 351 55 349.63 55 347.943 L 55 346.057 C 55 344.37 56.37 343 58.057 343 Z" style="stroke:none;fill:#EBEBEB;stroke-miterlimit:10;"/></g><g><path d="M 61.753 344 L 66.247 344 C 67.766 344 69 345.234 69 346.753 L 69 360 L 59 360 L 59 346.753 C 59 345.234 60.234 344 61.753 344 Z" style="stroke:none;fill:#8B8B8B;stroke-miterlimit:10;"/><path d="M 51 359 L 69 359 L 69 360 C 69 360.552 68.552 361 68 361 L 52 361 C 51.448 361 51 360.552 51 360 L 51 359 Z" style="stroke:none;fill:#8B8B8B;stroke-miterlimit:10;"/></g><g><circle vector-effect="non-scaling-stroke" cx="59" cy="363" r="1" fill="rgb(235,235,235)"/><circle vector-effect="non-scaling-stroke" cx="63.5" cy="363" r="1" fill="rgb(235,235,235)"/><circle vector-effect="non-scaling-stroke" cx="68" cy="363" r="1" fill="rgb(235,235,235)"/><circle vector-effect="non-scaling-stroke" cx="71" cy="359" r="1" fill="rgb(235,235,235)"/><circle vector-effect="non-scaling-stroke" cx="71" cy="354.9999999999999" r="1" fill="rgb(235,235,235)"/><path d=" M 55.6 359.3 C 55.52 359.19 55.49 359.06 55.51 358.93 C 55.52 358.8 55.59 358.68 55.7 358.6 C 55.81 358.52 55.94 358.49 56.07 358.51 C 56.2 358.52 56.32 358.59 56.4 358.7 L 59.4 362.7 C 59.48 362.81 59.51 362.94 59.49 363.07 C 59.48 363.2 59.41 363.32 59.3 363.4 C 59.19 363.48 59.06 363.51 58.93 363.49 C 58.8 363.48 58.68 363.41 58.6 363.3 L 55.6 359.3 Z " fill="rgb(96,125,139)"/><path d=" M 58.67 359.37 C 58.57 359.29 58.51 359.16 58.5 359.03 C 58.49 358.9 58.54 358.77 58.63 358.67 C 58.71 358.57 58.84 358.51 58.97 358.5 C 59.1 358.49 59.23 358.54 59.33 358.63 L 63.83 362.63 C 63.93 362.71 63.99 362.84 64 362.97 C 64.01 363.1 63.96 363.23 63.87 363.33 C 63.79 363.43 63.66 363.49 63.53 363.5 C 63.4 363.51 63.27 363.46 63.17 363.37 L 58.67 359.37 Z " fill="rgb(96,125,139)"/><path d=" M 67.76 363.44 L 58.76 358.44 C 58.64 358.37 58.56 358.26 58.52 358.14 C 58.48 358.01 58.5 357.87 58.56 357.76 C 58.63 357.64 58.74 357.56 58.86 357.52 C 58.99 357.48 59.13 357.5 59.24 357.56 L 68.24 362.56 C 68.36 362.63 68.44 362.74 68.48 362.86 C 68.52 362.99 68.5 363.13 68.44 363.24 C 68.37 363.36 68.26 363.44 68.14 363.48 C 68.01 363.52 67.87 363.5 67.76 363.44 Z " fill="rgb(96,125,139)"/><path d=" M 58.96 358.5 C 58.83 358.49 58.7 358.42 58.62 358.32 C 58.53 358.22 58.49 358.09 58.5 357.96 C 58.51 357.83 58.58 357.7 58.68 357.62 C 58.78 357.53 58.91 357.49 59.04 357.5 L 71.04 358.5 C 71.17 358.51 71.3 358.58 71.38 358.68 C 71.47 358.78 71.51 358.91 71.5 359.04 C 71.49 359.17 71.42 359.3 71.32 359.38 C 71.22 359.47 71.09 359.51 70.96 359.5 L 58.96 358.5 Z " fill="rgb(96,125,139)"/><path d=" M 59 355.5 C 58.87 355.5 58.74 355.45 58.65 355.35 C 58.55 355.26 58.5 355.13 58.5 355 C 58.5 354.87 58.55 354.74 58.65 354.65 C 58.74 354.55 58.87 354.5 59 354.5 L 71 354.5 C 71.13 354.5 71.26 354.55 71.35 354.65 C 71.45 354.74 71.5 354.87 71.5 355 C 71.5 355.13 71.45 355.26 71.35 355.35 C 71.26 355.45 71.13 355.5 71 355.5 L 59 355.5 Z " fill="rgb(96,125,139)"/></g><path d=" M 67 375 L 67 374 C 67 373.448 67.448 373 68 373 L 81 373 L 81 373 C 81.552 373 82 373.448 82 374 L 82 378 C 82 378.552 81.552 379 81 379 L 68 379 C 67.448 379 67 378.552 67 378 L 57 378 C 57 378.552 56.552 379 56 379 L 40 379 C 38.896 379 38 378.104 38 377 L 38 375.894 C 38 375.401 38.401 375 38.894 375 L 56 375 L 57 375 L 57 375 L 57 375 L 67 375 Z " fill-rule="evenodd" fill="rgb(23,23,23)"/></g><g><g><path d="M 153 359 L 122.058 359 C 119.266 359 117 361.266 117 364.058 L 117 370.942 C 117 373.734 119.266 376 122.058 376 L 155.942 376 C 158.734 376 161 373.734 161 370.942 L 161 367 C 161 362.585 157.415 359 153 359 Z" style="stroke:none;fill:#2E2E2E;stroke-miterlimit:10;"/><rect x="118" y="347" width="23" height="18" transform="matrix(1,0,0,1,0,0)" fill="rgb(46,46,46)"/><path d="M 140.943 343 L 120.057 343 C 118.37 343 117 344.37 117 346.057 L 117 347.943 C 117 349.63 118.37 351 120.057 351 L 140.943 351 C 142.63 351 144 349.63 144 347.943 L 144 346.057 C 144 344.37 142.63 343 140.943 343 Z" style="stroke:none;fill:#EBEBEB;stroke-miterlimit:10;"/></g><g><path d="M 137.247 344 L 132.753 344 C 131.234 344 130 345.234 130 346.753 L 130 360 L 140 360 L 140 346.753 C 140 345.234 138.766 344 137.247 344 Z" style="stroke:none;fill:#8B8B8B;stroke-miterlimit:10;"/><path d="M 148 359 L 130 359 L 130 360 C 130 360.552 130.448 361 131 361 L 147 361 C 147.552 361 148 360.552 148 360 L 148 359 Z" style="stroke:none;fill:#8B8B8B;stroke-miterlimit:10;"/></g><g><circle vector-effect="non-scaling-stroke" cx="140.00000000000006" cy="363" r="1" fill="rgb(235,235,235)"/><circle vector-effect="non-scaling-stroke" cx="135.50000000000006" cy="363" r="1" fill="rgb(235,235,235)"/><circle vector-effect="non-scaling-stroke" cx="131.00000000000006" cy="363" r="1" fill="rgb(235,235,235)"/><circle vector-effect="non-scaling-stroke" cx="128.00000000000006" cy="359" r="1" fill="rgb(235,235,235)"/><circle vector-effect="non-scaling-stroke" cx="128.00000000000006" cy="354.9999999999999" r="1" fill="rgb(235,235,235)"/><path d=" M 143.4 359.3 C 143.48 359.19 143.51 359.06 143.49 358.93 C 143.48 358.8 143.41 358.68 143.3 358.6 C 143.19 358.52 143.06 358.49 142.93 358.51 C 142.8 358.52 142.68 358.59 142.6 358.7 L 139.6 362.7 C 139.52 362.81 139.49 362.94 139.51 363.07 C 139.52 363.2 139.59 363.32 139.7 363.4 C 139.81 363.48 139.94 363.51 140.07 363.49 C 140.2 363.48 140.32 363.41 140.4 363.3 L 143.4 359.3 Z " fill="rgb(96,125,139)"/><path d=" M 140.33 359.37 C 140.43 359.29 140.49 359.16 140.5 359.03 C 140.51 358.9 140.46 358.77 140.37 358.67 C 140.29 358.57 140.16 358.51 140.03 358.5 C 139.9 358.49 139.77 358.54 139.67 358.63 L 135.17 362.63 C 135.07 362.71 135.01 362.84 135 362.97 C 134.99 363.1 135.04 363.23 135.13 363.33 C 135.21 363.43 135.34 363.49 135.47 363.5 C 135.6 363.51 135.73 363.46 135.83 363.37 L 140.33 359.37 Z " fill="rgb(96,125,139)"/><path d=" M 131.24 363.44 L 140.24 358.44 C 140.36 358.37 140.44 358.26 140.48 358.14 C 140.52 358.01 140.5 357.87 140.44 357.76 C 140.37 357.64 140.26 357.56 140.14 357.52 C 140.01 357.48 139.87 357.5 139.76 357.56 L 130.76 362.56 C 130.64 362.63 130.56 362.74 130.52 362.86 C 130.48 362.99 130.5 363.13 130.56 363.24 C 130.63 363.36 130.74 363.44 130.86 363.48 C 130.99 363.52 131.13 363.5 131.24 363.44 Z " fill="rgb(96,125,139)"/><path d=" M 140.04 358.5 C 140.17 358.49 140.3 358.42 140.38 358.32 C 140.47 358.22 140.51 358.09 140.5 357.96 C 140.49 357.83 140.42 357.7 140.32 357.62 C 140.22 357.53 140.09 357.49 139.96 357.5 L 127.96 358.5 C 127.83 358.51 127.7 358.58 127.62 358.68 C 127.53 358.78 127.49 358.91 127.5 359.04 C 127.51 359.17 127.58 359.3 127.68 359.38 C 127.78 359.47 127.91 359.51 128.04 359.5 L 140.04 358.5 Z " fill="rgb(96,125,139)"/><path d=" M 140 355.5 C 140.13 355.5 140.26 355.45 140.35 355.35 C 140.45 355.26 140.5 355.13 140.5 355 C 140.5 354.87 140.45 354.74 140.35 354.65 C 140.26 354.55 140.13 354.5 140 354.5 L 128 354.5 C 127.87 354.5 127.74 354.55 127.65 354.65 C 127.55 354.74 127.5 354.87 127.5 355 C 127.5 355.13 127.55 355.26 127.65 355.35 C 127.74 355.45 127.87 355.5 128 355.5 L 140 355.5 Z " fill="rgb(96,125,139)"/></g><path d=" M 132 375 L 132 374 C 132 373.448 131.552 373 131 373 L 118 373 L 118 373 C 117.448 373 117 373.448 117 374 L 117 378 C 117 378.552 117.448 379 118 379 L 131 379 C 131.552 379 132 378.552 132 378 L 142 378 C 142 378.552 142.448 379 143 379 L 159 379 C 160.104 379 161 378.104 161 377 L 161 375.894 C 161 375.401 160.599 375 160.106 375 L 143 375 L 142 375 L 142 375 L 142 375 L 132 375 Z " fill-rule="evenodd" fill="rgb(23,23,23)"/></g><g style="isolation:isolate"><path d=" M 59 57 Q 69 39.25 80 37 C 91 34.75 111.661 34.258 120 37 Q 129.125 40 143 57 Q 143.5 65.5 142 67 L 152 61 Q 153.625 53.75 152 46 C 150.908 40.794 138.563 20.688 121 16 C 109.465 12.921 87.75 11.375 76 16 Q 58.284 22.973 51 42 Q 46.167 54.776 49 60 Q 53 67.375 59 67 L 59 57 Z " fill="rgb(152,0,0)"/><g><path d=" M 59.29 61.59 C 59.4 61.67 59.47 61.79 59.49 61.92 C 59.52 62.05 59.48 62.18 59.41 62.29 C 59.33 62.4 59.21 62.47 59.08 62.49 C 58.95 62.52 58.82 62.48 58.71 62.41 C 56.73 61.01 54.77 59.58 52.82 58.12 C 52.09 57.56 51.37 56.98 50.67 56.38 C 50.46 56.2 50.29 55.98 50.16 55.73 C 49.99 55.41 49.85 55.06 49.76 54.7 C 49.68 54.41 49.63 54.13 49.59 53.83 C 49.54 53.44 49.5 53.04 49.49 52.65 C 49.47 52.35 49.47 52.05 49.47 51.75 C 49.47 51.38 49.48 51.02 49.5 50.65 C 49.55 49.63 49.64 48.61 49.77 47.6 C 49.98 46.03 50.22 44.46 50.51 42.91 C 50.53 42.78 50.61 42.66 50.72 42.59 C 50.83 42.51 50.96 42.48 51.09 42.51 C 51.22 42.53 51.34 42.61 51.41 42.72 C 51.49 42.83 51.52 42.96 51.49 43.09 C 51.21 44.63 50.97 46.17 50.76 47.73 C 50.63 48.71 50.55 49.7 50.5 50.7 C 50.48 51.05 50.47 51.4 50.47 51.75 C 50.47 52.04 50.47 52.32 50.48 52.6 C 50.5 52.97 50.53 53.34 50.58 53.7 C 50.61 53.95 50.66 54.2 50.73 54.45 C 50.8 54.73 50.91 55.01 51.04 55.27 C 51.12 55.4 51.21 55.52 51.33 55.62 C 52.01 56.21 52.71 56.78 53.42 57.32 C 55.36 58.77 57.31 60.19 59.29 61.59 Z " fill="rgb(122,0,0)"/><path d=" M 61.31 52.61 C 61.41 52.69 61.48 52.81 61.5 52.94 C 61.51 53.07 61.48 53.2 61.39 53.31 C 61.31 53.41 61.19 53.48 61.06 53.5 C 60.93 53.51 60.8 53.48 60.69 53.39 C 59.35 52.35 58.08 51.22 56.87 50.01 C 56.03 49.17 55.27 48.26 54.59 47.29 C 54.4 47.01 54.26 46.71 54.17 46.39 C 54.04 45.94 53.97 45.48 53.94 45.01 C 53.92 44.64 53.92 44.28 53.95 43.91 C 53.98 43.41 54.03 42.92 54.1 42.42 C 54.15 42.05 54.22 41.69 54.29 41.32 C 54.37 40.87 54.47 40.43 54.57 39.99 C 54.87 38.75 55.21 37.53 55.6 36.32 C 56.2 34.47 56.84 32.64 57.53 30.82 C 57.58 30.7 57.67 30.6 57.8 30.54 C 57.92 30.49 58.05 30.49 58.18 30.53 C 58.3 30.58 58.4 30.67 58.46 30.8 C 58.51 30.92 58.51 31.05 58.47 31.18 C 57.78 32.98 57.14 34.79 56.55 36.63 C 56.17 37.81 55.83 39.01 55.55 40.22 C 55.45 40.65 55.35 41.08 55.27 41.51 C 55.2 41.86 55.14 42.21 55.09 42.57 C 55.02 43.03 54.97 43.5 54.94 43.97 C 54.92 44.3 54.92 44.63 54.94 44.96 C 54.96 45.35 55.02 45.74 55.13 46.12 C 55.19 46.33 55.28 46.53 55.41 46.71 C 56.06 47.64 56.78 48.51 57.58 49.31 C 58.75 50.48 60 51.58 61.31 52.61 Z " fill="rgb(122,0,0)"/><path d=" M 70.42 41.73 C 70.49 41.84 70.52 41.97 70.49 42.1 C 70.46 42.23 70.39 42.35 70.27 42.42 C 70.16 42.49 70.03 42.52 69.9 42.49 C 69.77 42.46 69.65 42.39 69.58 42.27 C 69.11 41.55 68.65 40.82 68.21 40.08 C 67.86 39.5 67.52 38.91 67.21 38.31 C 66.79 37.51 66.4 36.69 66.06 35.85 C 65.84 35.28 65.65 34.71 65.51 34.11 C 65.45 33.84 65.4 33.56 65.37 33.28 C 65.33 32.89 65.31 32.49 65.3 32.09 C 65.29 31.79 65.29 31.49 65.3 31.18 C 65.31 30.8 65.33 30.43 65.36 30.05 C 65.43 28.99 65.54 27.94 65.68 26.89 C 65.92 25.23 66.2 23.56 66.51 21.91 C 66.53 21.78 66.61 21.66 66.72 21.59 C 66.83 21.51 66.96 21.48 67.09 21.51 C 67.22 21.53 67.34 21.61 67.41 21.72 C 67.49 21.83 67.52 21.96 67.49 22.09 C 67.18 23.73 66.91 25.38 66.67 27.03 C 66.53 28.06 66.42 29.08 66.35 30.11 C 66.33 30.48 66.31 30.85 66.3 31.21 C 66.29 31.5 66.29 31.79 66.3 32.07 C 66.3 32.44 66.33 32.81 66.37 33.18 C 66.39 33.42 66.43 33.65 66.49 33.89 C 66.61 34.43 66.78 34.96 66.99 35.47 C 67.32 36.28 67.69 37.07 68.09 37.84 C 68.4 38.43 68.72 39 69.06 39.57 C 69.5 40.3 69.95 41.02 70.42 41.73 Z " fill="rgb(122,0,0)"/><path d=" M 83.5 15 C 83.51 15.85 83.51 16.7 83.51 17.55 L 83.5 28.96 L 84.49 35.93 C 84.51 36.06 84.48 36.19 84.4 36.3 C 84.32 36.41 84.2 36.48 84.07 36.49 C 83.94 36.51 83.81 36.48 83.7 36.4 C 83.59 36.32 83.52 36.2 83.51 36.07" fill="rgb(122,0,0)"/><path d=" M 100.5 35.01 C 100.5 35.14 100.44 35.27 100.35 35.36 C 100.25 35.45 100.13 35.5 99.99 35.5 C 99.86 35.5 99.73 35.44 99.64 35.35 C 99.55 35.25 99.5 35.13 99.5 34.99 C 99.56 30.44 99.69 25.89 99.91 21.33 C 100.03 18.87 100.23 16.4 100.5 13.94 C 100.52 13.81 100.58 13.69 100.69 13.61 C 100.79 13.53 100.92 13.49 101.06 13.5 C 101.19 13.52 101.31 13.58 101.39 13.69 C 101.47 13.79 101.51 13.92 101.5 14.06 C 101.22 16.49 101.03 18.93 100.91 21.38 C 100.69 25.92 100.56 30.46 100.5 35.01 Z " fill="rgb(122,0,0)"/><path d=" M 116.5 36.06 C 116.48 36.19 116.41 36.31 116.31 36.39 C 116.2 36.48 116.07 36.51 115.94 36.5 C 115.81 36.48 115.69 36.41 115.61 36.31 C 115.52 36.2 115.49 36.07 115.5 35.94 C 115.59 35.22 115.7 34.51 115.83 33.8 C 115.92 33.26 116.04 32.72 116.17 32.18 C 116.36 31.44 116.59 30.71 116.88 30 C 117.07 29.55 117.31 29.11 117.59 28.71 C 117.68 28.59 117.74 28.46 117.8 28.33 C 117.91 28.04 118 27.74 118.07 27.44 C 118.13 27.18 118.18 26.92 118.22 26.66 C 118.28 26.28 118.33 25.9 118.37 25.52 C 118.48 24.43 118.55 23.33 118.56 22.23 C 118.59 20.16 118.57 18.09 118.5 16.02 C 118.5 15.88 118.54 15.76 118.63 15.66 C 118.73 15.56 118.85 15.5 118.98 15.5 C 119.12 15.5 119.24 15.54 119.34 15.63 C 119.44 15.73 119.5 15.85 119.5 15.98 C 119.57 18.07 119.59 20.15 119.56 22.24 C 119.55 23.37 119.48 24.5 119.36 25.63 C 119.32 26.02 119.27 26.42 119.21 26.82 C 119.16 27.1 119.11 27.39 119.04 27.67 C 118.96 28.02 118.86 28.36 118.73 28.69 C 118.65 28.9 118.54 29.1 118.41 29.29 C 118.17 29.63 117.97 29.99 117.81 30.38 C 117.54 31.05 117.32 31.73 117.14 32.43 C 117.01 32.94 116.9 33.45 116.81 33.97 C 116.69 34.67 116.58 35.36 116.5 36.06 Z " fill="rgb(122,0,0)"/><path d=" M 133.5 24.03 C 133.49 23.9 133.54 23.77 133.62 23.67 C 133.71 23.57 133.83 23.51 133.97 23.5 C 134.1 23.49 134.23 23.54 134.33 23.62 C 134.43 23.71 134.49 23.83 134.5 23.97 C 134.64 26.04 134.74 28.12 134.81 30.2 C 134.84 31.29 134.83 32.37 134.79 33.46 C 134.77 34.03 134.72 34.61 134.66 35.18 C 134.62 35.5 134.56 35.81 134.48 36.12 C 134.43 36.36 134.35 36.59 134.27 36.82 C 134.17 37.1 134.06 37.38 133.94 37.65 C 133.6 38.42 133.2 39.16 132.76 39.87 C 132.02 41.05 131.23 42.19 130.4 43.3 C 130.32 43.41 130.2 43.48 130.07 43.5 C 129.94 43.51 129.81 43.48 129.7 43.4 C 129.59 43.32 129.52 43.2 129.5 43.07 C 129.49 42.94 129.52 42.81 129.6 42.7 C 130.42 41.61 131.19 40.49 131.91 39.34 C 132.33 38.67 132.7 37.97 133.03 37.25 C 133.14 36.99 133.24 36.74 133.33 36.48 C 133.4 36.28 133.46 36.08 133.52 35.88 C 133.58 35.61 133.63 35.34 133.66 35.06 C 133.72 34.52 133.77 33.97 133.79 33.42 C 133.83 32.36 133.84 31.29 133.81 30.23 C 133.74 28.16 133.64 26.1 133.5 24.03 Z " fill="rgb(122,0,0)"/><path d=" M 144.51 35.11 C 144.48 34.98 144.51 34.84 144.58 34.73 C 144.65 34.62 144.76 34.54 144.89 34.51 C 145.02 34.48 145.16 34.51 145.27 34.58 C 145.38 34.65 145.46 34.76 145.49 34.89 C 145.8 36.29 146.06 37.7 146.27 39.11 C 146.42 40.09 146.52 41.09 146.57 42.08 C 146.61 42.7 146.62 43.32 146.6 43.94 C 146.58 44.41 146.55 44.88 146.48 45.35 C 146.39 45.96 146.25 46.55 146.04 47.13 C 145.88 47.55 145.67 47.95 145.4 48.3 C 144.65 49.28 143.84 50.21 142.96 51.09 C 142.13 51.92 141.24 52.69 140.3 53.4 C 140.19 53.48 140.06 53.51 139.93 53.5 C 139.8 53.48 139.68 53.41 139.6 53.3 C 139.52 53.19 139.49 53.06 139.5 52.93 C 139.52 52.8 139.59 52.68 139.7 52.6 C 140.6 51.92 141.46 51.18 142.26 50.38 C 143.1 49.54 143.88 48.64 144.6 47.7 C 144.81 47.42 144.98 47.12 145.1 46.79 C 145.28 46.28 145.41 45.75 145.49 45.21 C 145.55 44.78 145.59 44.34 145.6 43.91 C 145.62 43.32 145.61 42.73 145.58 42.13 C 145.52 41.17 145.43 40.21 145.28 39.26 C 145.07 37.87 144.81 36.48 144.51 35.11 Z " fill="rgb(122,0,0)"/><path d=" M 150.5 46.06 C 150.49 45.93 150.53 45.79 150.61 45.69 C 150.69 45.59 150.81 45.52 150.94 45.5 C 151.07 45.49 151.21 45.53 151.31 45.61 C 151.41 45.69 151.48 45.81 151.5 45.94 C 151.66 47.31 151.78 48.69 151.86 50.07 C 151.91 50.94 151.92 51.82 151.89 52.69 C 151.87 53.23 151.83 53.76 151.77 54.29 C 151.72 54.65 151.66 55.02 151.57 55.37 C 151.51 55.6 151.44 55.82 151.36 56.04 C 151.29 56.21 151.21 56.38 151.12 56.54 C 151.01 56.74 150.87 56.93 150.71 57.09 C 150.57 57.24 150.4 57.36 150.22 57.45 C 149.49 57.82 148.72 58.13 147.94 58.39 C 146.68 58.81 145.41 59.18 144.12 59.49 C 143.99 59.52 143.85 59.5 143.74 59.43 C 143.63 59.36 143.54 59.25 143.51 59.12 C 143.48 58.99 143.5 58.85 143.57 58.74 C 143.64 58.63 143.75 58.54 143.88 58.51 C 145.15 58.21 146.4 57.85 147.63 57.44 C 148.36 57.2 149.08 56.9 149.78 56.55 C 149.86 56.51 149.93 56.46 149.99 56.4 C 150.09 56.29 150.18 56.17 150.25 56.05 C 150.32 55.93 150.37 55.81 150.42 55.69 C 150.49 55.5 150.55 55.32 150.6 55.13 C 150.68 54.81 150.74 54.49 150.78 54.17 C 150.84 53.67 150.87 53.17 150.89 52.66 C 150.92 51.82 150.91 50.97 150.86 50.12 C 150.78 48.77 150.66 47.41 150.5 46.06 Z " fill="rgb(122,0,0)"/></g></g></g><g style="isolation:isolate"><g><path d=" M 91.823 97.5 L 81.131 97.5 C 72.78 97.5 66 104.28 66 112.631 L 66 173.694 C 62.197 179.738 60 186.867 60 194.5 L 140 194.5 L 140 194.5 C 140 186.867 137.803 179.738 134 173.694 L 134 112.631 C 134 104.28 127.22 97.5 118.869 97.5 L 107.865 97.5" fill="rgb(93,93,93)"/><g><path d=" M 89.02 141.29 C 89.08 141.03 89.23 140.81 89.45 140.66 C 89.68 140.52 89.95 140.47 90.21 140.52 C 90.47 140.58 90.69 140.73 90.84 140.95 C 90.98 141.18 91.03 141.45 90.98 141.71 C 90.8 142.56 90.44 143.36 89.94 144.06 C 89.42 144.78 88.78 145.4 88.04 145.9 C 86.44 146.96 84.55 147.52 82.62 147.5 C 80.7 147.52 78.81 146.96 77.21 145.9 C 76.47 145.4 75.83 144.78 75.31 144.06 C 74.8 143.36 74.45 142.56 74.27 141.71 C 74.22 141.45 74.27 141.18 74.41 140.95 C 74.56 140.73 74.78 140.58 75.04 140.52 C 75.3 140.47 75.57 140.52 75.8 140.66 C 76.02 140.81 76.17 141.03 76.23 141.29 C 76.35 141.87 76.59 142.42 76.93 142.89 C 77.31 143.42 77.78 143.87 78.32 144.23 C 79.59 145.08 81.09 145.52 82.62 145.5 C 84.15 145.52 85.66 145.08 86.93 144.23 C 87.47 143.87 87.94 143.42 88.31 142.89 C 88.66 142.42 88.9 141.87 89.02 141.29 Z " fill="rgb(70,70,70)"/><path d=" M 125.4 141.29 C 125.45 141.03 125.61 140.81 125.83 140.66 C 126.05 140.52 126.32 140.47 126.58 140.52 C 126.84 140.58 127.07 140.73 127.21 140.95 C 127.36 141.18 127.41 141.45 127.35 141.71 C 127.18 142.56 126.82 143.36 126.31 144.06 C 125.79 144.78 125.15 145.4 124.42 145.9 C 122.82 146.96 120.93 147.52 119 147.5 C 117.07 147.52 115.18 146.96 113.58 145.9 C 112.85 145.4 112.21 144.78 111.69 144.06 C 111.18 143.36 110.82 142.56 110.65 141.71 C 110.59 141.45 110.64 141.18 110.79 140.95 C 110.93 140.73 111.16 140.58 111.42 140.52 C 111.68 140.47 111.95 140.52 112.17 140.66 C 112.39 140.81 112.55 141.03 112.6 141.29 C 112.72 141.87 112.97 142.42 113.31 142.89 C 113.69 143.42 114.16 143.87 114.69 144.23 C 115.97 145.08 117.47 145.52 119 145.5 C 120.53 145.52 122.03 145.08 123.31 144.23 C 123.84 143.87 124.31 143.42 124.69 142.89 C 125.03 142.42 125.28 141.87 125.4 141.29 Z " fill="rgb(70,70,70)"/></g><path d=" M 101.869 73 L 101.869 73 L 100.131 73 L 100.131 73 L 101.869 73 Z  M 118 94.424 L 118 96.369 C 118 105.272 110.772 112.5 101.869 112.5 L 100.131 112.5 C 91.228 112.5 84 105.272 84 96.369 L 84 94.64 C 89.152 96.808 94.813 98 100.75 98 C 106.88 98 112.716 96.729 118 94.424 Z " fill-rule="evenodd" fill="rgb(70,70,70)"/></g><g style="isolation:isolate"><path d=" M 85 204 L 62 204 C 59.792 204 58 202.191 58 199.963 L 58 193.907 C 58 186.203 60.252 179.006 64.15 172.906 L 64.15 111.272 C 64.15 102.843 71.099 96 79.659 96 L 85 96 L 85 204 L 85 204 Z " fill="rgb(22,40,70)"/><path d=" M 115 204 L 137 204 C 139.208 204 141 202.191 141 199.963 L 141 193.907 C 141 186.203 138.748 179.006 134.85 172.906 L 134.85 111.272 C 134.85 102.843 127.901 96 119.341 96 L 115 96 L 115 204 L 115 204 Z " fill="rgb(22,40,70)"/><path d=" M 42.719 196.178 C 42.691 192.913 42.798 189.645 43.043 186.382 C 43.35 182.2 43.926 178.037 44.78 173.923 C 45.566 170.096 46.596 166.326 47.871 162.613 C 49.098 159.068 50.546 155.608 52.235 152.236 C 53.9 148.892 55.796 145.644 57.898 142.511 C 60.06 139.302 62.441 136.209 65.015 133.26 C 67.733 130.141 70.656 127.166 73.769 124.375 C 75.293 123.006 76.854 121.674 78.468 120.401 L 78.468 120.401 L 73.418 98.79 C 72.704 99.07 72.034 99.447 71.409 99.891 C 66.985 103.061 62.77 106.446 58.753 110.046 C 55.016 113.405 51.489 116.979 48.217 120.732 C 45.09 124.314 42.208 128.075 39.573 131.982 C 36.987 135.824 34.66 139.803 32.616 143.903 C 30.557 148.032 28.771 152.281 27.291 156.611 C 25.745 161.087 24.495 165.644 23.555 170.253 C 22.535 175.158 21.847 180.115 21.481 185.096 C 21.188 189.035 21.062 192.98 21.096 196.927 L 42.719 196.178 L 42.719 196.178 Z " fill="rgb(22,40,70)"/><rect x="114" y="99" width="1" height="105" transform="matrix(1,0,0,1,0,0)" fill="rgb(162,162,162)"/><path d="M 21.081 191.73 L 42.074 192.272 C 43.178 192.301 44.05 193.22 44.022 194.324 L 43.97 196.323 C 43.941 197.426 43.022 198.299 41.919 198.27 L 20.926 197.728 C 19.822 197.699 18.95 196.78 18.978 195.676 L 19.03 193.677 C 19.059 192.574 19.978 191.701 21.081 191.73 Z" style="stroke:none;fill:#E6AD57;stroke-miterlimit:10;"/><rect x="85" y="99" width="1" height="105" transform="matrix(1,0,0,1,0,0)" fill="rgb(162,162,162)"/><path d="M 69.647 89.807 L 87.109 92.169 C 88.336 92.335 89.238 93.471 89.122 94.704 L 88.742 98.746 C 88.625 99.979 87.535 100.845 86.307 100.679 L 68.846 98.317 C 67.618 98.151 66.716 97.016 66.832 95.782 L 67.213 91.74 C 67.329 90.507 68.419 89.641 69.647 89.807 Z" style="stroke:none;fill:#E6AD57;stroke-miterlimit:10;"/><path d="M 127.671 89.807 L 110.21 92.169 C 108.982 92.335 108.08 93.471 108.196 94.704 L 108.577 98.746 C 108.693 99.979 109.783 100.845 111.011 100.679 L 128.473 98.317 C 129.7 98.151 130.602 97.016 130.486 95.782 L 130.105 91.74 C 129.989 90.507 128.899 89.641 127.671 89.807 Z" style="stroke:none;fill:#E6AD57;stroke-miterlimit:10;"/><path d=" M 181.139 194.275 C 180.877 191.901 180.561 189.532 180.211 187.167 C 179.469 182.173 178.514 177.205 177.357 172.282 C 176.278 167.717 174.965 163.198 173.419 158.756 C 171.945 154.531 170.228 150.383 168.279 146.332 C 166.375 142.369 164.23 138.513 161.874 134.772 C 159.497 131.022 156.931 127.377 154.187 123.847 C 151.343 120.219 148.353 116.685 145.217 113.265 C 141.891 109.64 138.472 106.108 134.939 102.668 C 132.972 100.739 130.264 99.629 127.423 99.554 C 124.583 99.489 121.846 100.482 119.804 102.307 C 117.751 104.133 116.58 106.655 116.518 109.309 C 116.466 111.962 117.546 114.526 119.513 116.445 C 122.769 119.622 125.931 122.881 128.989 126.223 C 131.768 129.242 134.411 132.364 136.918 135.581 C 139.257 138.571 141.428 141.666 143.441 144.845 C 145.409 147.956 147.177 151.162 148.766 154.442 C 150.401 157.832 151.836 161.296 153.059 164.827 C 154.39 168.654 155.519 172.537 156.446 176.466 C 157.488 180.872 158.337 185.313 158.996 189.789 C 159.352 192.188 159.67 194.594 159.931 197.006 L 181.139 194.275 L 181.139 194.275 Z " fill="rgb(22,40,70)"/><path d="M 159.839 191.018 L 180.771 189.327 C 181.871 189.238 182.836 190.059 182.925 191.159 L 183.086 193.153 C 183.175 194.253 182.354 195.219 181.254 195.307 L 160.322 196.999 C 159.222 197.088 158.257 196.267 158.168 195.167 L 158.007 193.173 C 157.918 192.073 158.739 191.107 159.839 191.018 Z" style="stroke:none;fill:#E6AD57;stroke-miterlimit:10;"/><rect x="69" y="176.466" width="2.5" height="23.497" transform="matrix(1,0,0,1,0,0)" fill="rgb(18,32,56)"/><rect x="126.75" y="176.466" width="2.5" height="23.497" transform="matrix(1,0,0,1,0,0)" fill="rgb(18,32,56)"/></g></g><g style="isolation:isolate"/></g></svg>