<?xml version="1.0" standalone="no"?><!-- Generator: Gravit.io --><svg xmlns="http://www.w3.org/2000/svg" xmlns:xlink="http://www.w3.org/1999/xlink" style="isolation:isolate" viewBox="0 0 200 400" width="200" height="400"><defs><clipPath id="_clipPath_nUKhrtVDz5HtflKkAYL3d7Hyt61t821m"><rect width="200" height="400"/></clipPath></defs><g clip-path="url(#_clipPath_nUKhrtVDz5HtflKkAYL3d7Hyt61t821m)"><g style="isolation:isolate"><path d=" M 135.98 214.675 C 137.969 210.466 139.317 205.859 139.897 201 L 59.728 201 C 60.307 205.852 61.653 210.452 63.635 214.657 C 62.538 215.618 61.669 216.795 61.1 218.118 C 60.556 219.41 60.095 220.721 59.728 222.062 C 59.33 223.509 58.985 224.957 58.691 226.424 C 58.021 229.863 57.487 233.331 57.089 236.809 C 55.56 245.804 54.355 254.858 53.496 263.942 C 52.721 272.257 52.323 280.602 52.313 288.957 C 52.334 300.041 53.056 311.126 54.47 322.142 C 55.193 327.786 56.062 333.411 57.068 339.026 C 58.126 344.942 59.288 350.839 60.566 356.717 C 61.121 359.242 62.724 361.467 65.039 362.895 C 67.354 364.323 70.182 364.838 72.905 364.323 C 75.628 363.818 78.016 362.322 79.556 360.185 C 81.096 358.038 81.651 355.415 81.106 352.889 C 79.87 347.225 78.749 341.542 77.723 335.84 C 76.78 330.526 75.953 325.193 75.272 319.84 C 73.952 309.591 73.282 299.274 73.261 288.947 C 73.271 281.166 73.638 273.384 74.371 265.632 C 75.199 256.83 76.372 248.058 77.87 239.334 C 78.131 236.948 78.464 234.567 78.87 232.198 C 79.309 232.473 79.752 232.743 80.202 233 L 119.491 233 L 119.491 233 C 119.905 232.751 120.316 232.496 120.722 232.234 C 121.145 234.687 121.488 237.154 121.756 239.626 C 123.254 248.443 124.427 257.31 125.254 266.205 C 125.987 274.04 126.354 281.905 126.364 289.769 C 126.344 300.206 125.673 310.634 124.353 320.992 C 123.673 326.402 122.845 331.792 121.902 337.163 C 120.876 342.926 119.755 348.67 118.519 354.394 C 117.975 356.947 118.53 359.598 120.07 361.768 C 121.609 363.928 123.997 365.44 126.721 365.951 C 129.444 366.471 132.272 365.951 134.587 364.507 C 136.901 363.064 138.504 360.816 139.059 358.263 C 140.337 352.323 141.5 346.363 142.557 340.384 C 143.563 334.708 144.432 329.024 145.155 323.319 C 146.569 312.185 147.292 300.982 147.313 289.779 C 147.302 281.335 146.904 272.901 146.129 264.497 C 145.27 255.316 144.066 246.166 142.537 237.074 C 142.138 233.559 141.604 230.053 140.934 226.578 C 140.641 225.095 140.295 223.632 139.897 222.169 C 139.53 220.814 139.07 219.489 138.525 218.183 C 137.955 216.842 137.081 215.649 135.98 214.675 Z " fill-rule="evenodd" fill="rgb(46,46,46)"/><rect x="59.728" y="203" width="80.169" height="5" transform="matrix(1,0,0,1,0,0)" fill="rgb(23,23,23)"/><rect x="66.347" y="202.25" width="2" height="8" transform="matrix(1,0,0,1,0,0)" fill="rgb(46,46,46)"/><rect x="85.347" y="202.25" width="2" height="8" transform="matrix(1,0,0,1,0,0)" fill="rgb(46,46,46)"/><rect x="95" y="203" width="11" height="6" transform="matrix(1,0,0,1,0,0)" fill="rgb(209,209,209)"/><rect x="114.347" y="202.25" width="2" height="8" transform="matrix(1,0,0,1,0,0)" fill="rgb(46,46,46)"/><rect x="131.279" y="201.75" width="2" height="8" transform="matrix(1,0,0,1,0,0)" fill="rgb(46,46,46)"/><rect x="98.813" y="209" width="3.187" height="24" transform="matrix(1,0,0,1,0,0)" fill="rgb(23,23,23)"/><rect x="64.586" y="214.352" width="13.376" height="1" transform="matrix(0.66,-0.751,0.751,0.66,-137.131,126.486)" fill="rgb(23,23,23)"/><rect x="120.586" y="214.352" width="13.376" height="1" transform="matrix(0.66,0.751,-0.751,0.66,204.559,-22.608)" fill="rgb(23,23,23)"/></g><g style="isolation:isolate"><g><path d="M 155.942 359 L 122.058 359 C 119.266 359 117 361.266 117 364.058 L 117 370.942 C 117 373.734 119.266 376 122.058 376 L 155.942 376 C 158.734 376 161 373.734 161 370.942 L 161 364.058 C 161 361.266 158.734 359 155.942 359 Z" style="stroke:none;fill:#171717;stroke-miterlimit:10;"/><rect x="118" y="347" width="23" height="18" transform="matrix(1,0,0,1,0,0)" fill="rgb(23,23,23)"/><path d="M 140.943 343 L 120.057 343 C 118.37 343 117 344.37 117 346.057 L 117 347.943 C 117 349.63 118.37 351 120.057 351 L 140.943 351 C 142.63 351 144 349.63 144 347.943 L 144 346.057 C 144 344.37 142.63 343 140.943 343 Z" style="stroke:none;fill:#EBEBEB;stroke-miterlimit:10;"/><path d="M 137 341 L 133 341 C 131.344 341 130 342.344 130 344 L 130 360 L 140 360 L 140 344 C 140 342.344 138.656 341 137 341 Z" style="stroke:none;fill:#5D3903;stroke-miterlimit:10;"/><path d="M 148 359 L 130 359 L 130 360 C 130 360.552 130.448 361 131 361 L 147 361 C 147.552 361 148 360.552 148 360 L 148 359 Z" style="stroke:none;fill:#5D3903;stroke-miterlimit:10;"/><rect x="200" y="-2" width="2" height="2" transform="matrix(1,0,0,1,0,0)" fill="rgb(235,235,235)"/><circle vector-effect="non-scaling-stroke" cx="140" cy="363" r="1" fill="rgb(235,235,235)"/><circle vector-effect="non-scaling-stroke" cx="135.5" cy="363" r="1" fill="rgb(235,235,235)"/><circle vector-effect="non-scaling-stroke" cx="131" cy="363" r="1" fill="rgb(235,235,235)"/><circle vector-effect="non-scaling-stroke" cx="128" cy="359" r="1" fill="rgb(235,235,235)"/><circle vector-effect="non-scaling-stroke" cx="128" cy="354.9999999999999" r="1" fill="rgb(235,235,235)"/><path d=" M 142.6 358.7 C 142.68 358.59 142.8 358.52 142.93 358.51 C 143.06 358.49 143.19 358.52 143.3 358.6 C 143.41 358.68 143.48 358.8 143.49 358.93 C 143.51 359.06 143.48 359.19 143.4 359.3 L 140.4 363.3 C 140.32 363.41 140.2 363.48 140.07 363.49 C 139.94 363.51 139.81 363.48 139.7 363.4 C 139.59 363.32 139.52 363.2 139.51 363.07 C 139.49 362.94 139.52 362.81 139.6 362.7 L 142.6 358.7 Z " fill="rgb(96,125,139)"/><path d=" M 139.67 358.63 C 139.77 358.54 139.9 358.49 140.03 358.5 C 140.16 358.51 140.29 358.57 140.37 358.67 C 140.46 358.77 140.51 358.9 140.5 359.03 C 140.49 359.16 140.43 359.29 140.33 359.37 L 135.83 363.37 C 135.73 363.46 135.6 363.51 135.47 363.5 C 135.34 363.49 135.21 363.43 135.13 363.33 C 135.04 363.23 134.99 363.1 135 362.97 C 135.01 362.84 135.07 362.71 135.17 362.63 L 139.67 358.63 Z " fill="rgb(96,125,139)"/><path d=" M 130.76 362.56 L 139.76 357.56 C 139.87 357.5 140.01 357.48 140.14 357.52 C 140.26 357.56 140.37 357.64 140.44 357.76 C 140.5 357.87 140.52 358.01 140.48 358.14 C 140.44 358.26 140.36 358.37 140.24 358.44 L 131.24 363.44 C 131.13 363.5 130.99 363.52 130.86 363.48 C 130.74 363.44 130.63 363.36 130.56 363.24 C 130.5 363.13 130.48 362.99 130.52 362.86 C 130.56 362.74 130.64 362.63 130.76 362.56 Z " fill="rgb(96,125,139)"/><path d=" M 139.96 357.5 C 140.09 357.49 140.22 357.53 140.32 357.62 C 140.42 357.7 140.49 357.83 140.5 357.96 C 140.51 358.09 140.47 358.22 140.38 358.32 C 140.3 358.42 140.17 358.49 140.04 358.5 L 128.04 359.5 C 127.91 359.51 127.78 359.47 127.68 359.38 C 127.58 359.3 127.51 359.17 127.5 359.04 C 127.49 358.91 127.53 358.78 127.62 358.68 C 127.7 358.58 127.83 358.51 127.96 358.5 L 139.96 357.5 Z " fill="rgb(96,125,139)"/><path d=" M 140 354.5 C 140.13 354.5 140.26 354.55 140.35 354.65 C 140.45 354.74 140.5 354.87 140.5 355 C 140.5 355.13 140.45 355.26 140.35 355.35 C 140.26 355.45 140.13 355.5 140 355.5 L 128 355.5 C 127.87 355.5 127.74 355.45 127.65 355.35 C 127.55 355.26 127.5 355.13 127.5 355 C 127.5 354.87 127.55 354.74 127.65 354.65 C 127.74 354.55 127.87 354.5 128 354.5 L 140 354.5 Z " fill="rgb(96,125,139)"/><path d=" M 156 380 L 153 380 L 153 379 L 150 379 L 150 380 L 147 380 L 147 379 L 144 379 L 144 380 L 142 380 L 142 377 L 132 377 L 132 380 L 129 380 L 129 379 L 126 379 L 126 380 L 123 380 L 123 379 L 120 379 L 120 380 L 117 380 L 117 375 C 117 374.448 117.448 374 118 374 L 118 374 L 131 374 C 131.552 374 132 374.448 132 375 L 142 375 L 142 375 L 142 375 L 143 375 L 160 375 C 160.552 375 161 375.448 161 376 L 161 380 L 159 380 L 159 379 L 156 379 L 156 380 Z " fill-rule="evenodd" fill="rgb(70,70,70)"/></g><line x1="65" y1="126" x2="135" y2="126" vector-effect="non-scaling-stroke" stroke-width="1" stroke="rgb(0,0,0)" stroke-linejoin="miter" stroke-linecap="square" stroke-miterlimit="3"/><line x1="135" y1="133" x2="135" y2="106" vector-effect="non-scaling-stroke" stroke-width="1" stroke="rgb(0,0,0)" stroke-linejoin="miter" stroke-linecap="square" stroke-miterlimit="3"/><g><path d="M 43.058 359 L 76.942 359 C 79.734 359 82 361.266 82 364.058 L 82 370.942 C 82 373.734 79.734 376 76.942 376 L 43.058 376 C 40.266 376 38 373.734 38 370.942 L 38 364.058 C 38 361.266 40.266 359 43.058 359 Z" style="stroke:none;fill:#171717;stroke-miterlimit:10;"/><rect x="58" y="347" width="23" height="18" transform="matrix(1,0,0,1,0,0)" fill="rgb(23,23,23)"/><path d="M 58.057 343 L 78.943 343 C 80.63 343 82 344.37 82 346.057 L 82 347.943 C 82 349.63 80.63 351 78.943 351 L 58.057 351 C 56.37 351 55 349.63 55 347.943 L 55 346.057 C 55 344.37 56.37 343 58.057 343 Z" style="stroke:none;fill:#EBEBEB;stroke-miterlimit:10;"/><path d="M 62 341 L 66 341 C 67.656 341 69 342.344 69 344 L 69 360 L 59 360 L 59 344 C 59 342.344 60.344 341 62 341 Z" style="stroke:none;fill:#5D3903;stroke-miterlimit:10;"/><path d="M 51 359 L 69 359 L 69 360 C 69 360.552 68.552 361 68 361 L 52 361 C 51.448 361 51 360.552 51 360 L 51 359 Z" style="stroke:none;fill:#5D3903;stroke-miterlimit:10;"/><rect x="-3" y="-2" width="2" height="2" transform="matrix(1,0,0,1,0,0)" fill="rgb(235,235,235)"/><circle vector-effect="non-scaling-stroke" cx="59" cy="363" r="1" fill="rgb(235,235,235)"/><circle vector-effect="non-scaling-stroke" cx="63.5" cy="363" r="1" fill="rgb(235,235,235)"/><circle vector-effect="non-scaling-stroke" cx="68" cy="363" r="1" fill="rgb(235,235,235)"/><circle vector-effect="non-scaling-stroke" cx="71" cy="359" r="1" fill="rgb(235,235,235)"/><circle vector-effect="non-scaling-stroke" cx="71" cy="354.9999999999999" r="1" fill="rgb(235,235,235)"/><path d=" M 55.6 359.3 C 55.52 359.19 55.49 359.06 55.51 358.93 C 55.52 358.8 55.59 358.68 55.7 358.6 C 55.81 358.52 55.94 358.49 56.07 358.51 C 56.2 358.52 56.32 358.59 56.4 358.7 L 59.4 362.7 C 59.48 362.81 59.51 362.94 59.49 363.07 C 59.48 363.2 59.41 363.32 59.3 363.4 C 59.19 363.48 59.06 363.51 58.93 363.49 C 58.8 363.48 58.68 363.41 58.6 363.3 L 55.6 359.3 Z " fill="rgb(96,125,139)"/><path d=" M 58.67 359.37 C 58.57 359.29 58.51 359.16 58.5 359.03 C 58.49 358.9 58.54 358.77 58.63 358.67 C 58.71 358.57 58.84 358.51 58.97 358.5 C 59.1 358.49 59.23 358.54 59.33 358.63 L 63.83 362.63 C 63.93 362.71 63.99 362.84 64 362.97 C 64.01 363.1 63.96 363.23 63.87 363.33 C 63.79 363.43 63.66 363.49 63.53 363.5 C 63.4 363.51 63.27 363.46 63.17 363.37 L 58.67 359.37 Z " fill="rgb(96,125,139)"/><path d=" M 67.76 363.44 L 58.76 358.44 C 58.64 358.37 58.56 358.26 58.52 358.14 C 58.48 358.01 58.5 357.87 58.56 357.76 C 58.63 357.64 58.74 357.56 58.86 357.52 C 58.99 357.48 59.13 357.5 59.24 357.56 L 68.24 362.56 C 68.36 362.63 68.44 362.74 68.48 362.86 C 68.52 362.99 68.5 363.13 68.44 363.24 C 68.37 363.36 68.26 363.44 68.14 363.48 C 68.01 363.52 67.87 363.5 67.76 363.44 Z " fill="rgb(96,125,139)"/><path d=" M 58.96 358.5 C 58.83 358.49 58.7 358.42 58.62 358.32 C 58.53 358.22 58.49 358.09 58.5 357.96 C 58.51 357.83 58.58 357.7 58.68 357.62 C 58.78 357.53 58.91 357.49 59.04 357.5 L 71.04 358.5 C 71.17 358.51 71.3 358.58 71.38 358.68 C 71.47 358.78 71.51 358.91 71.5 359.04 C 71.49 359.17 71.42 359.3 71.32 359.38 C 71.22 359.47 71.09 359.51 70.96 359.5 L 58.96 358.5 Z " fill="rgb(96,125,139)"/><path d=" M 59 355.5 C 58.87 355.5 58.74 355.45 58.65 355.35 C 58.55 355.26 58.5 355.13 58.5 355 C 58.5 354.87 58.55 354.74 58.65 354.65 C 58.74 354.55 58.87 354.5 59 354.5 L 71 354.5 C 71.13 354.5 71.26 354.55 71.35 354.65 C 71.45 354.74 71.5 354.87 71.5 355 C 71.5 355.13 71.45 355.26 71.35 355.35 C 71.26 355.45 71.13 355.5 71 355.5 L 59 355.5 Z " fill="rgb(96,125,139)"/><path d=" M 43 380 L 46 380 L 46 379 L 49 379 L 49 380 L 52 380 L 52 379 L 55 379 L 55 380 L 57 380 L 57 377 L 67 377 L 67 380 L 70 380 L 70 379 L 73 379 L 73 380 L 76 380 L 76 379 L 79 379 L 79 380 L 82 380 L 82 375 C 82 374.448 81.552 374 81 374 L 81 374 L 68 374 C 67.448 374 67 374.448 67 375 L 57 375 L 57 375 L 57 375 L 56 375 L 39 375 C 38.448 375 38 375.448 38 376 L 38 380 L 40 380 L 40 379 L 43 379 L 43 380 Z " fill-rule="evenodd" fill="rgb(70,70,70)"/></g></g><g style="isolation:isolate"><path d=" M 73.778 95 C 68.317 96.235 65 97.858 65 99.634 C 65 100.872 66.608 102.034 69.451 103.041 C 72.311 99.351 76.795 97 81.824 97 L 81.824 97 L 81.824 97 L 84.039 97 C 84.013 96.626 84 96.249 84 95.869 L 84 95 L 84 95 L 73.778 95 Z  M 126.222 95 C 131.683 96.235 135 97.858 135 99.634 C 135 100.872 133.392 102.034 130.549 103.041 C 127.689 99.351 123.205 97 118.176 97 L 117.961 97 C 117.987 96.626 118 96.249 118 95.869 L 118 95 L 126.222 95 Z " fill-rule="evenodd" fill="rgb(116,116,116)"/><path d=" M 60.906 94.89 C 59.024 97.18 58 99.678 58 102.291 C 58 106.738 60.969 110.854 66 114.199 L 66 112.824 C 66 104.09 73.09 97 81.824 97 L 81.824 97 L 81.824 97 L 84.039 97 C 84.013 96.626 84 96.249 84 95.869 L 84 95 L 84 95 L 61.873 95 C 61.54 95 61.215 94.967 60.906 94.89 Z  M 139.203 95 C 141.009 97.263 142 99.721 142 102.291 C 142 106.738 139.031 110.854 134 114.199 L 134 112.824 C 134 104.09 126.91 97 118.176 97 L 117.961 97 C 117.987 96.626 118 96.249 118 95.869 L 118 95 L 139.203 95 Z " fill-rule="evenodd" fill="rgb(22,40,70)"/><path d=" M 85 204 L 62 204 C 59.792 204 58 202.191 58 199.963 L 58 193.907 C 58 186.203 60.252 179.006 64.15 172.906 L 64.15 111.272 C 64.15 102.843 71.099 96 79.659 96 L 85 96 L 85 204 L 85 204 Z " fill="rgb(22,40,70)"/><rect x="83" y="96" width="33.516" height="108" transform="matrix(1,0,0,1,0,0)" fill="rgb(22,40,70)"/><path d=" M 115 204 L 137 204 C 139.208 204 141 202.191 141 199.963 L 141 193.907 C 141 186.203 138.748 179.006 134.85 172.906 L 134.85 111.272 C 134.85 102.843 127.901 96 119.341 96 L 115 96 L 115 204 L 115 204 Z " fill="rgb(22,40,70)"/><path d=" M 42.719 196.178 C 42.691 192.913 42.798 189.645 43.043 186.382 C 43.35 182.2 43.926 178.037 44.78 173.923 C 45.566 170.096 46.596 166.326 47.871 162.613 C 49.098 159.068 50.546 155.608 52.235 152.236 C 53.9 148.892 55.796 145.644 57.898 142.511 C 60.06 139.302 62.441 136.209 65.015 133.26 C 67.733 130.141 70.656 127.166 73.769 124.375 C 75.293 123.006 76.854 121.674 78.468 120.401 L 78.468 120.401 L 73.418 98.79 C 72.704 99.07 72.034 99.447 71.409 99.891 C 66.985 103.061 62.77 106.446 58.753 110.046 C 55.016 113.405 51.489 116.979 48.217 120.732 C 45.09 124.314 42.208 128.075 39.573 131.982 C 36.987 135.824 34.66 139.803 32.616 143.903 C 30.557 148.032 28.771 152.281 27.291 156.611 C 25.745 161.087 24.495 165.644 23.555 170.253 C 22.535 175.158 21.847 180.115 21.481 185.096 C 21.188 189.035 21.062 192.98 21.096 196.927 L 42.719 196.178 L 42.719 196.178 Z " fill="rgb(22,40,70)"/><path d="M 21.081 191.73 L 42.074 192.272 C 43.178 192.301 44.05 193.22 44.022 194.324 L 43.97 196.323 C 43.941 197.426 43.022 198.299 41.919 198.27 L 20.926 197.728 C 19.822 197.699 18.95 196.78 18.978 195.676 L 19.03 193.677 C 19.059 192.574 19.978 191.701 21.081 191.73 Z" style="stroke:none;fill:#E6AD57;stroke-miterlimit:10;"/><path d=" M 181.139 194.275 C 180.877 191.901 180.561 189.532 180.211 187.167 C 179.469 182.173 178.514 177.205 177.357 172.282 C 176.278 167.717 174.965 163.198 173.419 158.756 C 171.945 154.531 170.228 150.383 168.279 146.332 C 166.375 142.369 164.23 138.513 161.874 134.772 C 159.497 131.022 156.931 127.377 154.187 123.847 C 151.343 120.219 148.353 116.685 145.217 113.265 C 141.891 109.64 138.472 106.108 134.939 102.668 C 132.972 100.739 130.264 99.629 127.423 99.554 C 124.583 99.489 121.846 100.482 119.804 102.307 C 117.751 104.133 116.58 106.655 116.518 109.309 C 116.466 111.962 117.546 114.526 119.513 116.445 C 122.769 119.622 125.931 122.881 128.989 126.223 C 131.768 129.242 134.411 132.364 136.918 135.581 C 139.257 138.571 141.428 141.666 143.441 144.845 C 145.409 147.956 147.177 151.162 148.766 154.442 C 150.401 157.832 151.836 161.296 153.059 164.827 C 154.39 168.654 155.519 172.537 156.446 176.466 C 157.488 180.872 158.337 185.313 158.996 189.789 C 159.352 192.188 159.67 194.594 159.931 197.006 L 181.139 194.275 L 181.139 194.275 Z " fill="rgb(22,40,70)"/><path d="M 159.839 191.018 L 180.771 189.327 C 181.871 189.238 182.836 190.059 182.925 191.159 L 183.086 193.153 C 183.175 194.253 182.354 195.219 181.254 195.307 L 160.322 196.999 C 159.222 197.088 158.257 196.267 158.168 195.167 L 158.007 193.173 C 157.918 192.073 158.739 191.107 159.839 191.018 Z" style="stroke:none;fill:#E6AD57;stroke-miterlimit:10;"/><path d="M 58 200 L 141 200 L 141 220 C 141 222.208 139.208 224 137 224 L 62 224 C 59.792 224 58 222.208 58 220 L 58 200 Z" style="stroke:none;fill:#162846;stroke-miterlimit:10;"/><line x1="65" y1="161.375" x2="135" y2="161.375" vector-effect="non-scaling-stroke" stroke-width="1" stroke="rgb(23,23,23)" stroke-linejoin="miter" stroke-linecap="butt" stroke-miterlimit="3"/><line x1="58" y1="193.375" x2="141" y2="193.18" vector-effect="non-scaling-stroke" stroke-width="1" stroke="rgb(23,23,23)" stroke-linejoin="miter" stroke-linecap="butt" stroke-miterlimit="3"/><line x1="64.758" y1="131.982" x2="134.758" y2="131.982" vector-effect="non-scaling-stroke" stroke-width="1" stroke="rgb(23,23,23)" stroke-linejoin="miter" stroke-linecap="square" stroke-miterlimit="3"/><rect x="69" y="176.466" width="2.5" height="23.497" transform="matrix(1,0,0,1,0,0)" fill="rgb(18,32,56)"/><rect x="126.75" y="176.466" width="2.5" height="23.497" transform="matrix(1,0,0,1,0,0)" fill="rgb(18,32,56)"/><g><rect x="98.875" y="139" width="4" height="85" transform="matrix(1,0,0,1,0,0)" fill="rgb(15,28,49)"/><path d="M 75.168 85.906 L 126.832 85.906 C 129.409 85.906 131.5 87.997 131.5 90.574 L 131.5 100.238 C 131.5 102.815 129.409 104.906 126.832 104.906 L 75.168 104.906 C 72.591 104.906 70.5 102.815 70.5 100.238 L 70.5 90.574 C 70.5 87.997 72.591 85.906 75.168 85.906 Z" style="stroke:none;fill:#009688;stroke-miterlimit:10;"/><rect x="95" y="104.906" width="22" height="62" transform="matrix(1,0,0,1,0,0)" fill="rgb(0,150,136)"/><rect x="95" y="165.906" width="2" height="7" transform="matrix(1,0,0,1,0,0)" fill="rgb(0,150,136)"/><rect x="99" y="165.906" width="2" height="7" transform="matrix(1,0,0,1,0,0)" fill="rgb(0,150,136)"/><rect x="103" y="165.906" width="2" height="7" transform="matrix(1,0,0,1,0,0)" fill="rgb(0,150,136)"/><rect x="107" y="165.906" width="2" height="7" transform="matrix(1,0,0,1,0,0)" fill="rgb(0,150,136)"/><rect x="111" y="165.906" width="2" height="7" transform="matrix(1,0,0,1,0,0)" fill="rgb(0,150,136)"/><rect x="115" y="165.906" width="2" height="7" transform="matrix(1,0,0,1,0,0)" fill="rgb(0,150,136)"/><rect x="95" y="146.906" width="22" height="10" transform="matrix(1,0,0,1,0,0)" fill="rgb(255,153,0)"/><rect x="95" y="125.906" width="22" height="10" transform="matrix(1,0,0,1,0,0)" fill="rgb(255,153,0)"/><rect x="95" y="105.906" width="22" height="10" transform="matrix(1,0,0,1,0,0)" fill="rgb(255,153,0)"/><rect x="70.75" y="90.406" width="19" height="10" transform="matrix(0,1,-1,0,175.656,15.156)" fill="rgb(255,153,0)"/><rect x="90.5" y="90.406" width="19" height="10" transform="matrix(0,1,-1,0,195.406,-4.594)" fill="rgb(255,153,0)"/><rect x="109.5" y="90.406" width="19" height="10" transform="matrix(0,1,-1,0,214.406,-23.594)" fill="rgb(255,153,0)"/></g><path d="M 69.351 92.61 L 88.091 93.905 C 89.836 94.026 91.213 95.543 91.163 97.292 L 90.917 105.961 C 90.867 107.71 89.41 109.032 87.664 108.911 L 68.924 107.615 C 67.179 107.495 65.802 105.977 65.852 104.228 L 66.098 95.56 C 66.148 93.811 67.606 92.489 69.351 92.61 Z" style="stroke:none;fill:#E6AD57;stroke-miterlimit:10;"/><line x1="64.15" y1="134" x2="64.15" y2="105" vector-effect="non-scaling-stroke" stroke-width="1" stroke="rgb(23,23,23)" stroke-linejoin="miter" stroke-linecap="round" stroke-miterlimit="3"/><line x1="135" y1="133.545" x2="135" y2="105" vector-effect="non-scaling-stroke" stroke-width="1" stroke="rgb(23,23,23)" stroke-linejoin="miter" stroke-linecap="round" stroke-miterlimit="3"/><path d="M 131.664 92.61 L 112.924 93.905 C 111.179 94.026 109.802 95.543 109.852 97.292 L 110.098 105.961 C 110.148 107.71 111.606 109.032 113.351 108.911 L 132.091 107.615 C 133.836 107.495 135.213 105.977 135.163 104.228 L 134.917 95.56 C 134.867 93.811 133.41 92.489 131.664 92.61 Z" style="stroke:none;fill:#E6AD57;stroke-miterlimit:10;"/></g><g style="isolation:isolate"><ellipse vector-effect="non-scaling-stroke" cx="100.50000000000007" cy="4.9999999999999964" rx="10.5" ry="5" fill="rgb(0,150,136)"/><path d=" M 53 45.159 C 53.938 29.708 64.938 13.529 69 10.257 C 73.063 6.985 83.688 3.667 87 3 C 90.313 2.333 112.688 2.623 118 4.441 C 123.313 6.258 127.266 6.297 133 10.257 C 139.341 14.637 147.375 36.615 147 45.159 Q 146.625 53.702 120 28.678 L 82 28.678 Q 52.063 60.61 53 45.159 Z " fill="rgb(31,58,55)"/><path d=" M 58 57 Q 68 39.25 79 37 C 90 34.75 110.661 34.258 119 37 Q 128.125 40 142 57 Q 143.5 63.5 142 65 L 151 61 Q 152.625 53.75 151 46 C 149.908 40.794 129.051 21.885 120 19 C 108.625 15.375 86.75 14.375 75 19 Q 57.284 25.973 50 42 Q 45.167 54.776 48 60 Q 52 67.375 58 65 L 58 57 Z " fill="rgb(162,162,162)"/><g><path d=" M 50 42 Q 47.938 54.203 50 56 Q 52.063 57.797 58 62" fill="none" vector-effect="non-scaling-stroke" stroke-width="1" stroke="rgb(185,185,185)" stroke-linejoin="bevel" stroke-linecap="round" stroke-miterlimit="3"/><path d=" M 56 32 Q 52 44.125 54 47 Q 56 49.875 60 53" fill="none" vector-effect="non-scaling-stroke" stroke-width="1" stroke="rgb(185,185,185)" stroke-linejoin="miter" stroke-linecap="round" stroke-miterlimit="3"/><path d=" M 66 23 Q 64.297 31.016 65 34 Q 65.703 36.984 69 42" fill="none" vector-effect="non-scaling-stroke" stroke-width="1" stroke="rgb(185,185,185)" stroke-linejoin="miter" stroke-linecap="round" stroke-miterlimit="3"/><path d=" M 82 17 Q 82.016 19.547 82 29 L 83 36" fill="none" vector-effect="non-scaling-stroke" stroke-width="1" stroke="rgb(185,185,185)" stroke-linejoin="miter" stroke-linecap="round" stroke-miterlimit="3"/><path d=" M 100 16 Q 99.172 23.344 99 35" fill="none" vector-effect="non-scaling-stroke" stroke-width="1" stroke="rgb(185,185,185)" stroke-linejoin="miter" stroke-linecap="round" stroke-miterlimit="3"/><path d=" M 118 18 Q 118.375 27.063 117 29 Q 115.625 30.938 115 36" fill="none" vector-effect="non-scaling-stroke" stroke-width="1" stroke="rgb(185,185,185)" stroke-linejoin="miter" stroke-linecap="round" stroke-miterlimit="3"/><path d=" M 133 27 Q 133.641 33.469 133 36 Q 132.359 38.531 129 43" fill="none" vector-effect="non-scaling-stroke" stroke-width="1" stroke="rgb(185,185,185)" stroke-linejoin="miter" stroke-linecap="round" stroke-miterlimit="3"/><path d=" M 144 37 Q 146.219 45.094 144 48 Q 141.781 50.906 139 53" fill="none" vector-effect="non-scaling-stroke" stroke-width="1" stroke="rgb(185,185,185)" stroke-linejoin="miter" stroke-linecap="round" stroke-miterlimit="3"/><path d=" M 151 45 Q 151.156 55.922 149 57 Q 146.844 58.078 143 59" fill="none" vector-effect="non-scaling-stroke" stroke-width="1" stroke="rgb(185,185,185)" stroke-linejoin="miter" stroke-linecap="round" stroke-miterlimit="3"/></g></g></g></svg>