<?xml version="1.0" standalone="no"?><!-- Generator: Gravit.io --><svg xmlns="http://www.w3.org/2000/svg" xmlns:xlink="http://www.w3.org/1999/xlink" style="isolation:isolate" viewBox="0 0 200 400" width="200" height="400"><defs><clipPath id="_clipPath_ZhN03roKU5MeqKSQD0fkJLVijCODtrmm"><rect width="200" height="400"/></clipPath></defs><g clip-path="url(#_clipPath_ZhN03roKU5MeqKSQD0fkJLVijCODtrmm)"><g style="isolation:isolate"><path d=" M 119.481 232 C 120.041 231.687 120.595 231.363 121.139 231.027 C 120.971 230.149 120.77 229.286 120.54 228.422 C 120.4 227.895 120.23 227.369 120.02 226.861 C 119.04 224.452 119.08 221.769 120.13 219.389 C 121.18 217.019 123.16 215.146 125.62 214.19 C 128.08 213.234 130.84 213.273 133.27 214.297 C 134.093 214.643 134.856 215.09 135.542 215.626 C 137.652 211.604 139.082 207.179 139.682 202.5 L 60.318 202.5 C 60.9 207.04 62.263 211.341 64.272 215.267 C 64.82 214.885 65.414 214.561 66.043 214.297 C 68.473 213.273 71.233 213.234 73.693 214.19 C 76.153 215.146 78.133 217.019 79.183 219.389 C 80.233 221.769 80.273 224.452 79.293 226.861 C 79.083 227.369 78.913 227.895 78.773 228.422 C 78.578 229.152 78.405 229.883 78.254 230.622 C 79.011 231.111 79.786 231.575 80.586 232 L 119.481 232 L 119.481 232 Z " fill="rgb(0,120,109)"/><path d=" M 78.072 251 C 78.633 247.138 79.311 243.288 80.06 239.447 C 80.455 236.277 80.993 233.116 81.698 229.985 C 81.925 228.951 82.199 227.937 82.522 226.922 C 82.689 226.395 82.893 225.869 83.144 225.361 C 84.315 222.952 84.267 220.269 83.012 217.889 C 81.757 215.519 79.391 213.646 76.452 212.69 C 73.512 211.734 70.214 211.773 67.31 212.797 C 64.394 213.821 62.1 215.743 60.928 218.143 C 60.307 219.44 59.781 220.757 59.363 222.103 C 58.909 223.557 58.515 225.01 58.18 226.483 C 57.415 229.936 56.806 233.419 56.352 236.911 C 55.448 241.591 54.643 246.287 53.989 251 L 78.072 251 L 78.072 251 Z " fill="rgb(0,120,109)"/><path d=" M 147 251 C 146.379 246.622 145.621 242.26 144.777 237.911 C 144.32 234.419 143.708 230.936 142.939 227.483 C 142.603 226.01 142.206 224.557 141.75 223.103 C 141.33 221.757 140.801 220.44 140.177 219.143 C 139 216.743 136.694 214.821 133.763 213.797 C 130.845 212.773 127.53 212.734 124.575 213.69 C 121.621 214.646 119.243 216.519 117.982 218.889 C 116.721 221.269 116.672 223.952 117.849 226.361 C 118.102 226.869 118.306 227.395 118.474 227.922 C 118.798 228.937 119.075 229.951 119.303 230.985 C 120.011 234.116 120.552 237.277 120.948 240.447 C 121.636 243.956 122.264 247.473 122.795 251 L 147 251 L 147 251 Z " fill="rgb(0,120,109)"/><path d="M 60.363 199 L 139.177 199 C 139.729 199 140.177 199.448 140.177 200 L 140.177 205 C 140.177 205.552 139.729 206 139.177 206 L 60.363 206 C 59.811 206 59.363 205.552 59.363 205 L 59.363 200 C 59.363 199.448 59.811 199 60.363 199 Z" style="stroke:none;fill:#EBEBEB;stroke-miterlimit:10;"/><rect x="97.5" y="206" width="5" height="26" transform="matrix(1,0,0,1,0,0)" fill="rgb(0,105,95)"/><rect x="64.671" y="211.552" width="12.206" height="1.703" transform="matrix(0.698,-0.716,0.716,0.698,-130.712,114.795)" fill="rgb(0,105,95)"/><rect x="122.671" y="211.552" width="12.206" height="1.703" transform="matrix(0.698,0.716,-0.716,0.698,190.953,-28.079)" fill="rgb(0,105,95)"/><rect x="59.363" y="201" width="80.814" height="3" transform="matrix(1,0,0,1,0,0)" fill="rgb(153,92,0)"/><rect x="68.989" y="199" width="3.011" height="8" transform="matrix(1,0,0,1,0,0)" fill="rgb(0,120,109)"/><rect x="82.483" y="198.5" width="3.011" height="8" transform="matrix(1,0,0,1,0,0)" fill="rgb(0,120,109)"/><rect x="113.989" y="198.5" width="3.011" height="8" transform="matrix(1,0,0,1,0,0)" fill="rgb(0,120,109)"/><rect x="127.268" y="198.5" width="3.011" height="8" transform="matrix(1,0,0,1,0,0)" fill="rgb(0,120,109)"/><rect x="93.5" y="199" width="13" height="7" transform="matrix(1,0,0,1,0,0)" fill="rgb(188,188,188)"/><path d="M 54 248 L 78 248 C 78.552 248 79 248.448 79 249 L 79 252 C 79 252.552 78.552 253 78 253 L 54 253 C 53.448 253 53 252.552 53 252 L 53 249 C 53 248.448 53.448 248 54 248 Z" style="stroke:none;fill:#EBEBEB;stroke-miterlimit:10;"/><path d="M 123 248.5 L 147 248.5 C 147.552 248.5 148 248.948 148 249.5 L 148 252.5 C 148 253.052 147.552 253.5 147 253.5 L 123 253.5 C 122.448 253.5 122 253.052 122 252.5 L 122 249.5 C 122 248.948 122.448 248.5 123 248.5 Z" style="stroke:none;fill:#EBEBEB;stroke-miterlimit:10;"/></g><g style="isolation:isolate"><g><path d=" M 132 358 L 152.91 358 C 157.375 358 161 361.625 161 366.09 L 161 370.782 C 161 373.11 159.11 375 156.782 375 L 120.218 375 C 117.89 375 116 373.11 116 370.782 L 116 362.218 C 116 360.308 117.272 358.693 119.013 358.173 C 119.205 359.748 122.038 361 125.5 361 C 129.087 361 132 359.656 132 358 L 132 358 Z " fill-rule="evenodd" fill="rgb(209,209,209)"/><g><path d="M 117 373 L 131 373 C 131.552 373 132 373.448 132 374 L 132 377 L 117 377 C 116.448 377 116 376.552 116 376 L 116 374 C 116 373.448 116.448 373 117 373 Z" style="stroke:none;fill:#8B8B8B;stroke-miterlimit:10;"/><path d="M 130 374 L 160 374 C 160.552 374 161 374.448 161 375 L 161 375 C 161 376.104 160.104 377 159 377 L 130.795 377 C 130.356 377 130 376.644 130 376.205 L 130 374 Z" style="stroke:none;fill:#8B8B8B;stroke-miterlimit:10;"/></g><g><path d=" M 131.101 373 L 146.101 358 L 143.272 358 L 143.272 358 L 128.272 373 L 131.101 373 L 131.101 373 Z " fill="rgb(23,23,23)"/><path d=" M 136.101 374 L 152.101 358 L 149.272 358 L 149.272 358 L 133.272 374 L 136.101 374 L 136.101 374 Z " fill="rgb(23,23,23)"/><path d=" M 125.101 373 L 140.101 358 L 137.272 358 L 137.272 358 L 122.272 373 L 125.101 373 L 125.101 373 Z " fill="rgb(23,23,23)"/></g><g><path d="M 132 358 L 153 358 L 153 360 C 153 361.104 152.104 362 151 362 L 134 362 C 132.896 362 132 361.104 132 360 L 132 358 Z" style="stroke:none;fill:#747474;stroke-miterlimit:10;"/><path d="M 134.236 354 L 140.764 354 C 141.998 354 143 355.002 143 356.236 L 143 359 L 132 359 L 132 356.236 C 132 355.002 133.002 354 134.236 354 Z" style="stroke:none;fill:#747474;stroke-miterlimit:10;"/></g><circle vector-effect="non-scaling-stroke" cx="151" cy="364" r="1" fill="rgb(93,93,93)"/><circle vector-effect="non-scaling-stroke" cx="147" cy="364" r="1" fill="rgb(93,93,93)"/><circle vector-effect="non-scaling-stroke" cx="143" cy="364" r="1" fill="rgb(93,93,93)"/><circle vector-effect="non-scaling-stroke" cx="138.5" cy="364" r="1" fill="rgb(93,93,93)"/><g><path d=" M 151.5 364 C 151.5 364.13 151.45 364.26 151.35 364.35 C 151.26 364.45 151.13 364.5 151 364.5 C 150.87 364.5 150.74 364.45 150.65 364.35 C 150.55 364.26 150.5 364.13 150.5 364 L 150.5 358 C 150.5 357.87 150.55 357.74 150.65 357.65 C 150.74 357.55 150.87 357.5 151 357.5 C 151.13 357.5 151.26 357.55 151.35 357.65 C 151.45 357.74 151.5 357.87 151.5 358 L 151.5 364 Z " fill="rgb(232,232,232)"/><path d=" M 147.5 364 C 147.5 364.13 147.45 364.26 147.35 364.35 C 147.26 364.45 147.13 364.5 147 364.5 C 146.87 364.5 146.74 364.45 146.65 364.35 C 146.55 364.26 146.5 364.13 146.5 364 L 146.5 358 C 146.5 357.87 146.55 357.74 146.65 357.65 C 146.74 357.55 146.87 357.5 147 357.5 C 147.13 357.5 147.26 357.55 147.35 357.65 C 147.45 357.74 147.5 357.87 147.5 358 L 147.5 364 Z " fill="rgb(232,232,232)"/><path d=" M 143.5 364 C 143.5 364.13 143.45 364.26 143.35 364.35 C 143.26 364.45 143.13 364.5 143 364.5 C 142.87 364.5 142.74 364.45 142.65 364.35 C 142.55 364.26 142.5 364.13 142.5 364 L 142.5 358 C 142.5 357.87 142.55 357.74 142.65 357.65 C 142.74 357.55 142.87 357.5 143 357.5 C 143.13 357.5 143.26 357.55 143.35 357.65 C 143.45 357.74 143.5 357.87 143.5 358 L 143.5 364 Z " fill="rgb(232,232,232)"/><path d=" M 139 364 C 139 364.13 138.95 364.26 138.85 364.35 C 138.76 364.45 138.63 364.5 138.5 364.5 C 138.37 364.5 138.24 364.45 138.15 364.35 C 138.05 364.26 138 364.13 138 364 L 138 358 C 138 357.87 138.05 357.74 138.15 357.65 C 138.24 357.55 138.37 357.5 138.5 357.5 C 138.63 357.5 138.76 357.55 138.85 357.65 C 138.95 357.74 139 357.87 139 358 L 139 364 Z " fill="rgb(232,232,232)"/></g></g><g><path d=" M 67 359 L 46.09 359 C 41.625 359 38 362.625 38 367.09 L 38 371.782 C 38 374.11 39.89 376 42.218 376 L 78.782 376 C 81.11 376 83 374.11 83 371.782 L 83 363.218 C 83 361.308 81.728 359.693 79.987 359.173 C 79.795 360.748 76.962 362 73.5 362 C 69.913 362 67 360.656 67 359 L 67 359 Z " fill-rule="evenodd" fill="rgb(209,209,209)"/><g><path d="M 82 374 L 68 374 C 67.448 374 67 374.448 67 375 L 67 378 L 82 378 C 82.552 378 83 377.552 83 377 L 83 375 C 83 374.448 82.552 374 82 374 Z" style="stroke:none;fill:#8B8B8B;stroke-miterlimit:10;"/><path d="M 69 375 L 39 375 C 38.448 375 38 375.448 38 376 L 38 376 C 38 377.104 38.896 378 40 378 L 68.205 378 C 68.644 378 69 377.644 69 377.205 L 69 375 Z" style="stroke:none;fill:#8B8B8B;stroke-miterlimit:10;"/></g><g><path d=" M 67.899 374 L 52.899 359 L 55.728 359 L 55.728 359 L 70.728 374 L 67.899 374 L 67.899 374 Z " fill="rgb(23,23,23)"/><path d=" M 62.899 375 L 46.899 359 L 49.728 359 L 49.728 359 L 65.728 375 L 62.899 375 L 62.899 375 Z " fill="rgb(23,23,23)"/><path d=" M 73.899 374 L 58.899 359 L 61.728 359 L 61.728 359 L 76.728 374 L 73.899 374 L 73.899 374 Z " fill="rgb(23,23,23)"/></g><g><path d="M 67 359 L 46 359 L 46 361 C 46 362.104 46.896 363 48 363 L 65 363 C 66.104 363 67 362.104 67 361 L 67 359 Z" style="stroke:none;fill:#747474;stroke-miterlimit:10;"/><path d="M 64.764 355 L 58.236 355 C 57.002 355 56 356.002 56 357.236 L 56 360 L 67 360 L 67 357.236 C 67 356.002 65.998 355 64.764 355 Z" style="stroke:none;fill:#747474;stroke-miterlimit:10;"/></g><circle vector-effect="non-scaling-stroke" cx="48" cy="365" r="1" fill="rgb(93,93,93)"/><circle vector-effect="non-scaling-stroke" cx="52" cy="365" r="1" fill="rgb(93,93,93)"/><circle vector-effect="non-scaling-stroke" cx="56" cy="365" r="1" fill="rgb(93,93,93)"/><circle vector-effect="non-scaling-stroke" cx="60.5" cy="365" r="1" fill="rgb(93,93,93)"/><g><path d=" M 48.5 365 C 48.5 365.13 48.45 365.26 48.35 365.35 C 48.26 365.45 48.13 365.5 48 365.5 C 47.87 365.5 47.74 365.45 47.65 365.35 C 47.55 365.26 47.5 365.13 47.5 365 L 47.5 359 C 47.5 358.87 47.55 358.74 47.65 358.65 C 47.74 358.55 47.87 358.5 48 358.5 C 48.13 358.5 48.26 358.55 48.35 358.65 C 48.45 358.74 48.5 358.87 48.5 359 L 48.5 365 Z " fill="rgb(232,232,232)"/><path d=" M 52.5 365 C 52.5 365.13 52.45 365.26 52.35 365.35 C 52.26 365.45 52.13 365.5 52 365.5 C 51.87 365.5 51.74 365.45 51.65 365.35 C 51.55 365.26 51.5 365.13 51.5 365 L 51.5 359 C 51.5 358.87 51.55 358.74 51.65 358.65 C 51.74 358.55 51.87 358.5 52 358.5 C 52.13 358.5 52.26 358.55 52.35 358.65 C 52.45 358.74 52.5 358.87 52.5 359 L 52.5 365 Z " fill="rgb(232,232,232)"/><path d=" M 56.5 365 C 56.5 365.13 56.45 365.26 56.35 365.35 C 56.26 365.45 56.13 365.5 56 365.5 C 55.87 365.5 55.74 365.45 55.65 365.35 C 55.55 365.26 55.5 365.13 55.5 365 L 55.5 359 C 55.5 358.87 55.55 358.74 55.65 358.65 C 55.74 358.55 55.87 358.5 56 358.5 C 56.13 358.5 56.26 358.55 56.35 358.65 C 56.45 358.74 56.5 358.87 56.5 359 L 56.5 365 Z " fill="rgb(232,232,232)"/><path d=" M 61 365 C 61 365.13 60.95 365.26 60.85 365.35 C 60.76 365.45 60.63 365.5 60.5 365.5 C 60.37 365.5 60.24 365.45 60.15 365.35 C 60.05 365.26 60 365.13 60 365 L 60 359 C 60 358.87 60.05 358.74 60.15 358.65 C 60.24 358.55 60.37 358.5 60.5 358.5 C 60.63 358.5 60.76 358.55 60.85 358.65 C 60.95 358.74 61 358.87 61 359 L 61 365 Z " fill="rgb(232,232,232)"/></g></g></g><g style="isolation:isolate"><g style="isolation:isolate"><path d=" M 85.219 102.027 L 80.046 114.375 L 80.046 114.375 L 99.66 127 L 101.59 127 L 120.995 114.509 L 120.995 114.509 L 116.418 102.84 C 117.427 100.739 117.995 98.386 118 95.903 L 130.852 128.697 C 132.766 130.181 134 132.503 134 135.111 L 134 173.194 C 137.636 178.973 139.804 185.745 139.987 193 L 140 193 L 140 194 L 140 194 L 140 202 L 60 202 L 60 194 L 60 193 L 60.013 193 C 60.196 185.745 62.364 178.973 66 173.194 L 66 135.111 C 66 132.16 67.58 129.575 69.939 128.155 L 84 94.612 L 84 95.869 C 84 98.05 84.433 100.129 85.219 102.027 Z  M 122.11 117.354 L 107.125 127 L 125.889 127 C 125.89 127 125.892 127 125.893 127 L 122.11 117.354 L 122.11 117.354 Z  M 78.871 117.181 L 94.125 127 L 74.757 127 L 78.871 117.181 L 78.871 117.181 L 78.871 117.181 Z " fill-rule="evenodd" fill="rgb(255,255,255)"/><g><path d=" M 89.02 140.79 C 89.08 140.53 89.23 140.31 89.45 140.16 C 89.68 140.02 89.95 139.97 90.21 140.02 C 90.47 140.08 90.69 140.23 90.84 140.45 C 90.98 140.68 91.03 140.95 90.98 141.21 C 90.8 142.06 90.44 142.86 89.94 143.56 C 89.42 144.28 88.78 144.9 88.04 145.4 C 86.44 146.46 84.55 147.02 82.62 147 C 80.7 147.02 78.81 146.46 77.21 145.4 C 76.47 144.9 75.83 144.28 75.31 143.56 C 74.8 142.86 74.45 142.06 74.27 141.21 C 74.22 140.95 74.27 140.68 74.41 140.45 C 74.56 140.23 74.78 140.08 75.04 140.02 C 75.3 139.97 75.57 140.02 75.8 140.16 C 76.02 140.31 76.17 140.53 76.23 140.79 C 76.35 141.37 76.59 141.92 76.93 142.39 C 77.31 142.92 77.78 143.37 78.32 143.73 C 79.59 144.58 81.09 145.02 82.62 145 C 84.15 145.02 85.66 144.58 86.93 143.73 C 87.47 143.37 87.94 142.92 88.31 142.39 C 88.66 141.92 88.9 141.37 89.02 140.79 Z " fill="rgb(185,185,185)"/><path d=" M 125.4 140.79 C 125.45 140.53 125.61 140.31 125.83 140.16 C 126.05 140.02 126.32 139.97 126.58 140.02 C 126.84 140.08 127.07 140.23 127.21 140.45 C 127.36 140.68 127.41 140.95 127.35 141.21 C 127.18 142.06 126.82 142.86 126.31 143.56 C 125.79 144.28 125.15 144.9 124.42 145.4 C 122.82 146.46 120.93 147.02 119 147 C 117.07 147.02 115.18 146.46 113.58 145.4 C 112.85 144.9 112.21 144.28 111.69 143.56 C 111.18 142.86 110.82 142.06 110.65 141.21 C 110.59 140.95 110.64 140.68 110.79 140.45 C 110.93 140.23 111.16 140.08 111.42 140.02 C 111.68 139.97 111.95 140.02 112.17 140.16 C 112.39 140.31 112.55 140.53 112.6 140.79 C 112.72 141.37 112.97 141.92 113.31 142.39 C 113.69 142.92 114.16 143.37 114.69 143.73 C 115.97 144.58 117.47 145.02 119 145 C 120.53 145.02 122.03 144.58 123.31 143.73 C 123.84 143.37 124.31 142.92 124.69 142.39 C 125.03 141.92 125.28 141.37 125.4 140.79 Z " fill="rgb(209,209,209)"/></g></g><g style="isolation:isolate"/><path d=" M 60.906 94.89 C 59.024 97.18 58 99.678 58 102.291 C 58 106.738 60.969 110.854 66 114.199 L 66 112.824 C 66 104.09 73.09 97 81.824 97 L 81.824 97 L 81.824 97 L 84.039 97 C 84.013 96.626 84 96.249 84 95.869 L 84 95 L 84 95 L 61.873 95 C 61.54 95 61.215 94.967 60.906 94.89 Z  M 139.203 95 C 141.009 97.263 142 99.721 142 102.291 C 142 106.738 139.031 110.854 134 114.199 L 134 112.824 C 134 104.09 126.91 97 118.176 97 L 117.961 97 C 117.987 96.626 118 96.249 118 95.869 L 118 95 L 139.203 95 Z " fill-rule="evenodd" fill="rgb(255,153,0)"/><path d=" M 73.778 95 C 68.317 96.235 65 97.858 65 99.634 C 65 100.872 66.608 102.034 69.451 103.041 C 72.311 99.351 76.795 97 81.824 97 L 81.824 97 L 81.824 97 L 84.039 97 C 84.013 96.626 84 96.249 84 95.869 L 84 95 L 84 95 L 73.778 95 Z  M 126.222 95 C 131.683 96.235 135 97.858 135 99.634 C 135 100.872 133.392 102.034 130.549 103.041 C 127.689 99.351 123.205 97 118.176 97 L 117.961 97 C 117.987 96.626 118 96.249 118 95.869 L 118 95 L 126.222 95 Z " fill-rule="evenodd" fill="rgb(235,235,235)"/><path d=" M 41.185 193.662 C 41.253 191.798 41.386 189.935 41.559 188.075 C 41.944 183.902 42.577 179.755 43.465 175.666 C 44.284 171.86 45.327 168.118 46.595 164.439 C 47.816 160.927 49.238 157.506 50.882 154.178 C 52.502 150.878 54.334 147.681 56.353 144.604 C 58.431 141.452 60.707 138.422 63.159 135.54 C 65.749 132.492 68.524 129.594 71.471 126.885 C 74.718 123.895 78.127 121.093 81.685 118.498 C 83.828 116.932 85.26 114.577 85.664 111.955 C 86.068 109.333 85.411 106.66 83.855 104.518 C 82.289 102.374 79.934 100.942 77.312 100.538 C 74.69 100.134 72.017 100.791 69.875 102.347 C 65.706 105.402 61.725 108.677 57.922 112.172 C 54.385 115.433 51.036 118.915 47.92 122.581 C 44.941 126.082 42.184 129.766 39.653 133.604 C 37.169 137.377 34.921 141.295 32.931 145.341 C 30.928 149.415 29.173 153.616 27.701 157.906 C 26.163 162.341 24.897 166.864 23.917 171.447 C 22.856 176.324 22.1 181.262 21.643 186.231 C 21.487 187.909 21.359 189.59 21.265 191.272 L 41.185 193.662 L 41.185 193.662 Z " fill="rgb(255,153,0)"/><path d=" M 180.541 193.249 C 180.134 190.389 179.66 187.538 179.14 184.696 C 178.231 179.742 177.124 174.824 175.83 169.96 C 174.625 165.45 173.203 160.997 171.567 156.632 C 170.009 152.481 168.226 148.417 166.231 144.461 C 164.284 140.591 162.114 136.839 159.754 133.212 C 157.373 129.577 154.821 126.055 152.107 122.656 C 149.296 119.165 146.353 115.774 143.278 112.504 C 140.018 109.038 136.675 105.669 133.229 102.398 C 131.31 100.562 128.735 99.58 126.082 99.637 C 123.429 99.704 120.919 100.823 119.093 102.742 C 117.257 104.661 116.275 107.235 116.332 109.889 C 116.399 112.542 117.518 115.052 119.437 116.878 C 122.612 119.899 125.704 123.008 128.703 126.203 C 131.426 129.09 134.028 132.086 136.507 135.182 C 138.819 138.06 140.978 141.051 142.995 144.133 C 144.966 147.148 146.755 150.268 148.38 153.471 C 150.053 156.781 151.543 160.175 152.837 163.644 C 154.245 167.406 155.467 171.232 156.503 175.113 C 157.667 179.466 158.653 183.862 159.461 188.303 C 159.91 190.751 160.322 193.207 160.679 195.673 L 180.541 193.249 L 180.541 193.249 Z " fill="rgb(255,153,0)"/><g><g><path d=" M 85 95 L 79 220 L 58 215 L 59 187 L 66 173 L 66 132 L 71 100 L 85 95 Z " fill="rgb(255,153,0)"/><path d=" M 59 188 L 75 170 L 75 178 L 59 196 L 59 188 Z " fill="rgb(179,107,0)"/><path d=" M 79 220 L 85 95 L 87 95 L 81 220 L 79 220 Z " fill="rgb(179,107,0)"/></g><g><path d=" M 116 95 L 122 220 L 143 215 L 142 187 L 135 174 L 135 132 L 129 99 L 116 95 Z " fill="rgb(255,153,0)"/><path d=" M 142 188 L 126 170 L 126 178 L 142 196 L 142 188 Z " fill="rgb(179,107,0)"/><path d=" M 122 220 L 116 95 L 114 95 L 120 220 L 122 220 Z " fill="rgb(179,107,0)"/></g></g><path d="M 22.371 188.094 L 41.742 190.804 C 42.835 190.957 43.599 191.968 43.446 193.062 L 43.169 195.042 C 43.016 196.135 42.004 196.899 40.911 196.746 L 21.54 194.036 C 20.447 193.884 19.684 192.872 19.837 191.779 L 20.114 189.798 C 20.267 188.705 21.278 187.941 22.371 188.094 Z" style="stroke:none;fill:#B36B00;stroke-miterlimit:10;"/><path d="M 160.038 191.268 L 179.265 187.674 C 180.35 187.471 181.395 188.187 181.598 189.272 L 181.966 191.238 C 182.168 192.323 181.452 193.369 180.367 193.572 L 161.141 197.166 C 160.056 197.369 159.01 196.653 158.808 195.568 L 158.44 193.602 C 158.237 192.517 158.953 191.471 160.038 191.268 Z" style="stroke:none;fill:#B36B00;stroke-miterlimit:10;"/></g><g style="isolation:isolate"/></g></svg>