<?xml version="1.0" standalone="no"?><!-- Generator: Gravit.io --><svg xmlns="http://www.w3.org/2000/svg" xmlns:xlink="http://www.w3.org/1999/xlink" style="isolation:isolate" viewBox="0 0 200 400" width="200" height="400"><defs><clipPath id="_clipPath_DNOEMDjYHvZM0r5bVgCvTv18dtPyytpA"><rect width="200" height="400"/></clipPath></defs><g clip-path="url(#_clipPath_DNOEMDjYHvZM0r5bVgCvTv18dtPyytpA)"><g style="isolation:isolate"><ellipse vector-effect="non-scaling-stroke" cx="96.50000000000001" cy="4.9999999999999964" rx="10.5" ry="5" fill="rgb(254,254,254)"/><path d=" M 51 45.159 C 51.938 29.708 62.938 13.529 67 10.257 C 71.063 6.985 81.688 3.667 85 3 C 88.313 2.333 110.688 2.623 116 4.441 C 121.313 6.258 125.313 7.046 129 10.257 C 132.688 13.469 145.375 36.615 145 45.159 Q 144.625 53.702 118 28.678 L 80 28.678 Q 50.063 60.61 51 45.159 Z " fill="rgb(102,192,184)"/><path d=" M 56 57 Q 66 39.25 77 37 C 88 34.75 108.661 34.258 117 37 Q 126.125 40 140 57 Q 141.5 63.5 140 65 L 149 61 Q 150.625 53.75 149 46 C 147.908 40.794 127.051 21.885 118 19 C 106.625 15.375 84.75 14.375 73 19 Q 55.284 25.973 48 42 Q 43.167 54.776 46 60 Q 50 67.375 56 65 L 56 57 Z " fill="rgb(255,194,102)"/><path d=" M 48 42 Q 45.938 54.203 48 56 Q 50.063 57.797 56 62" fill="none" vector-effect="non-scaling-stroke" stroke-width="1" stroke="rgb(204,155,82)" stroke-linejoin="bevel" stroke-linecap="round" stroke-miterlimit="3"/><path d=" M 54 32 Q 50 44.125 52 47 Q 54 49.875 58 53" fill="none" vector-effect="non-scaling-stroke" stroke-width="1" stroke="rgb(204,155,82)" stroke-linejoin="miter" stroke-linecap="round" stroke-miterlimit="3"/><path d=" M 64 23 Q 62.297 31.016 63 34 Q 63.703 36.984 67 42" fill="none" vector-effect="non-scaling-stroke" stroke-width="1" stroke="rgb(204,155,82)" stroke-linejoin="miter" stroke-linecap="round" stroke-miterlimit="3"/><path d=" M 80 17 Q 80.016 19.547 80 29 L 81 36" fill="none" vector-effect="non-scaling-stroke" stroke-width="1" stroke="rgb(204,155,82)" stroke-linejoin="miter" stroke-linecap="round" stroke-miterlimit="3"/><path d=" M 98 16 Q 97.172 23.344 97 35" fill="none" vector-effect="non-scaling-stroke" stroke-width="1" stroke="rgb(204,155,82)" stroke-linejoin="miter" stroke-linecap="round" stroke-miterlimit="3"/><path d=" M 116 18 Q 116.375 27.063 115 29 Q 113.625 30.938 113 36" fill="none" vector-effect="non-scaling-stroke" stroke-width="1" stroke="rgb(204,155,82)" stroke-linejoin="miter" stroke-linecap="round" stroke-miterlimit="3"/><path d=" M 131 27 Q 131.641 33.469 131 36 Q 130.359 38.531 127 43" fill="none" vector-effect="non-scaling-stroke" stroke-width="1" stroke="rgb(204,155,82)" stroke-linejoin="miter" stroke-linecap="round" stroke-miterlimit="3"/><path d=" M 142 37 Q 144.219 45.094 142 48 Q 139.781 50.906 137 53" fill="none" vector-effect="non-scaling-stroke" stroke-width="1" stroke="rgb(204,155,82)" stroke-linejoin="miter" stroke-linecap="round" stroke-miterlimit="3"/><path d=" M 149 45 Q 149.156 55.922 147 57 Q 144.844 58.078 141 59" fill="none" vector-effect="non-scaling-stroke" stroke-width="1" stroke="rgb(204,155,82)" stroke-linejoin="miter" stroke-linecap="round" stroke-miterlimit="3"/></g><g style="isolation:isolate"><g><g><path d=" M 142.75 205 L 142.75 214.055 C 142.75 225.339 133.589 234.5 122.305 234.5 L 76.195 234.5 C 64.911 234.5 55.75 225.339 55.75 214.055 L 55.75 205 L 142.75 205 L 142.75 205 Z " fill="rgb(96,125,139)"/><path d=" M 138.64 358.026 C 138.64 358.028 138.64 358.029 138.64 358.03" fill="rgb(74,134,232)"/><path d=" M 118.26 358.03 C 118.262 358.021 118.264 358.012 118.265 358.004" fill="rgb(74,134,232)"/></g><path d=" M 117.522 358.007 C 118.743 352.186 119.85 346.345 120.864 340.484 C 121.796 335.014 122.615 329.524 123.288 324.014 C 124.594 313.464 125.257 302.844 125.278 292.214 C 125.267 284.204 124.905 276.194 124.179 268.214 C 123.361 259.154 122.2 250.124 120.719 241.144 C 120.377 237.894 119.911 234.654 119.299 231.444 C 119.102 230.384 118.864 229.344 118.584 228.304 C 118.439 227.764 118.263 227.224 118.046 226.704 C 117.03 224.234 117.072 221.484 118.16 219.044 C 119.247 216.614 121.299 214.694 123.848 213.714 C 126.397 212.734 129.256 212.774 131.774 213.824 C 134.302 214.874 136.292 216.844 137.307 219.304 C 137.846 220.634 138.302 221.984 138.664 223.364 C 139.058 224.854 139.4 226.344 139.69 227.854 C 140.353 231.394 140.882 234.964 141.275 238.544 C 142.788 247.804 143.98 257.124 144.829 266.474 C 145.596 275.034 145.99 283.624 146 292.224 C 145.979 303.634 145.264 315.044 143.866 326.384 C 143.151 332.194 142.291 337.984 141.296 343.764 C 140.477 348.532 139.594 353.288 138.634 358.03" fill="rgb(96,125,139)"/><path d=" M 61.423 358.004 C 60.496 353.269 59.64 348.521 58.85 343.76 C 57.89 337.98 57.07 332.19 56.37 326.38 C 55.02 315.04 54.33 303.63 54.31 292.22 C 54.33 283.62 54.7 275.03 55.45 266.47 C 56.27 257.12 57.41 247.8 58.88 238.54 C 59.25 234.96 59.76 231.39 60.41 227.85 C 60.68 226.34 61.01 224.85 61.39 223.36 C 61.74 221.98 62.18 220.63 62.71 219.3 C 63.69 216.84 65.61 214.87 68.04 213.82 C 70.48 212.77 73.23 212.73 75.7 213.71 C 78.16 214.69 80.13 216.61 81.18 219.04 C 82.23 221.48 82.27 224.23 81.29 226.7 C 81.08 227.22 80.91 227.76 80.77 228.3 C 80.51 229.34 80.28 230.38 80.08 231.44 C 79.5 234.65 79.04 237.89 78.71 241.14 C 77.28 250.12 76.17 259.15 75.37 268.21 C 74.68 276.19 74.33 284.2 74.31 292.21 C 74.33 302.84 74.97 313.46 76.23 324.01 C 76.89 329.52 77.67 335.01 78.58 340.48 C 79.549 346.341 80.627 352.182 81.795 358.004 L 61.423 358.004 L 61.423 358.004 Z " fill="rgb(96,125,139)"/></g><rect x="96" y="205" width="7" height="29" transform="matrix(1,0,0,1,0,0)" fill="rgb(77,100,111)"/><rect x="55.7" y="207" width="87" height="7" transform="matrix(1,0,0,1,0,0)" fill="rgb(23,23,23)"/><rect x="63" y="205" width="3" height="12" transform="matrix(1,0,0,1,0,0)" fill="rgb(96,125,139)"/><rect x="81" y="205" width="3" height="12" transform="matrix(1,0,0,1,0,0)" fill="rgb(96,125,139)"/><rect x="116" y="205" width="3" height="12" transform="matrix(1,0,0,1,0,0)" fill="rgb(96,125,139)"/><rect x="134" y="205" width="3" height="12" transform="matrix(1,0,0,1,0,0)" fill="rgb(96,125,139)"/><rect x="93.155" y="206.5" width="14" height="8" transform="matrix(1,0,0,1,0,0)" fill="rgb(235,235,235)"/><rect x="117" y="341" width="26" height="18" transform="matrix(1,0,0,1,0,0)" fill="rgb(235,235,235)"/><rect x="56.5" y="341" width="26" height="18" transform="matrix(1,0,0,1,0,0)" fill="rgb(235,235,235)"/></g><g style="isolation:isolate"><g><path d=" M 36.485 201.855 C 36.041 197.959 35.791 194.046 35.743 190.126 C 35.684 185.828 35.919 181.529 36.459 177.262 C 36.952 173.292 37.715 169.363 38.749 165.475 C 39.746 161.761 40.991 158.12 42.506 154.55 C 43.997 151.011 45.746 147.553 47.73 144.199 C 49.773 140.762 52.062 137.428 54.575 134.228 C 57.228 130.843 60.117 127.591 63.228 124.513 C 66.656 121.118 70.296 117.896 74.135 114.87 C 76.448 113.044 77.833 110.49 77.986 107.771 C 78.139 105.053 77.047 102.396 74.969 100.375 C 72.879 98.354 69.955 97.144 66.844 97.01 C 63.733 96.877 60.692 97.831 58.379 99.647 C 53.882 103.206 49.632 106.971 45.617 110.941 C 41.883 114.645 38.396 118.553 35.203 122.626 C 32.15 126.513 29.379 130.566 26.89 134.751 C 24.448 138.865 22.3 143.101 20.468 147.441 C 18.625 151.811 17.087 156.283 15.889 160.818 C 14.633 165.506 13.706 170.255 13.119 175.036 C 12.473 180.124 12.191 185.243 12.262 190.362 C 12.332 195.912 12.743 201.451 13.506 206.97 C 13.66 208.077 14.018 209.145 14.563 210.131 L 36.485 201.855 L 36.485 201.855 Z " fill="rgb(139,139,139)"/><path d="M 13.572 201.934 L 34.328 194.352 C 35.883 193.784 37.607 194.585 38.175 196.14 L 38.942 198.24 C 39.51 199.795 38.709 201.519 37.153 202.087 L 16.398 209.669 C 14.842 210.237 13.119 209.436 12.55 207.881 L 11.783 205.781 C 11.215 204.226 12.017 202.502 13.572 201.934 Z" style="stroke:none;fill:#EBEBEB;stroke-miterlimit:10;"/><path d="M 34.729 123.848 L 51.116 137.561 C 51.53 137.907 51.732 138.363 51.568 138.579 L 51.568 138.579 C 51.404 138.794 50.935 138.689 50.522 138.343 L 34.134 124.629 C 33.721 124.284 33.518 123.828 33.682 123.612 L 33.682 123.612 C 33.847 123.396 34.315 123.502 34.729 123.848 Z" style="stroke:none;fill:#747474;stroke-miterlimit:10;"/><path d="M 24.408 140.864 L 43.264 150.919 C 43.739 151.172 44.031 151.577 43.915 151.822 L 43.915 151.822 C 43.799 152.066 43.318 152.059 42.843 151.806 L 23.987 141.751 C 23.512 141.498 23.22 141.093 23.336 140.848 L 23.336 140.848 C 23.452 140.604 23.933 140.611 24.408 140.864 Z" style="stroke:none;fill:#747474;stroke-miterlimit:10;"/><path d="M 16.573 160.548 L 37.385 165.395 C 37.91 165.518 38.296 165.833 38.247 166.1 L 38.247 166.1 C 38.198 166.366 37.732 166.483 37.207 166.361 L 16.396 161.514 C 15.871 161.392 15.484 161.076 15.534 160.81 L 15.534 160.81 C 15.583 160.543 16.049 160.426 16.573 160.548 Z" style="stroke:none;fill:#747474;stroke-miterlimit:10;"/><path d="M 13.227 180.967 L 34.571 182.016 C 35.109 182.042 35.545 182.283 35.545 182.554 L 35.545 182.554 C 35.544 182.826 35.106 183.024 34.568 182.998 L 13.225 181.949 C 12.687 181.923 12.25 181.681 12.251 181.41 L 12.251 181.41 C 12.252 181.139 12.689 180.941 13.227 180.967 Z" style="stroke:none;fill:#747474;stroke-miterlimit:10;"/></g><g><path d=" M 185.302 206.97 C 185.043 201.442 184.605 195.915 183.991 190.406 C 183.408 185.216 182.601 180.047 181.582 174.919 C 180.629 170.164 179.43 165.45 177.984 160.809 C 176.606 156.396 174.97 152.056 173.087 147.808 C 171.249 143.654 169.154 139.604 166.834 135.667 C 164.492 131.72 161.948 127.877 159.214 124.147 C 156.378 120.314 153.386 116.575 150.237 112.949 C 146.898 109.105 143.458 105.355 139.894 101.698 C 137.91 99.647 135.12 98.425 132.15 98.27 C 129.181 98.124 126.278 99.078 124.07 100.911 C 121.852 102.745 120.529 105.324 120.361 108.07 C 120.204 110.815 121.235 113.498 123.219 115.539 C 126.502 118.916 129.685 122.376 132.755 125.919 C 135.546 129.12 138.191 132.425 140.69 135.822 C 143.02 138.982 145.172 142.245 147.156 145.591 C 149.094 148.865 150.82 152.232 152.355 155.671 C 153.936 159.224 155.303 162.85 156.446 166.538 C 157.69 170.537 158.721 174.588 159.539 178.679 C 160.458 183.269 161.175 187.889 161.69 192.54 C 162.003 195.329 162.265 198.124 162.459 200.925 L 185.302 206.97 L 185.302 206.97 Z " fill="rgb(139,139,139)"/><path d="M 184.981 201.491 L 163.954 194.694 C 162.379 194.185 160.686 195.051 160.177 196.626 L 159.49 198.753 C 158.98 200.328 159.846 202.021 161.422 202.53 L 182.448 209.327 C 184.023 209.836 185.716 208.97 186.225 207.395 L 186.912 205.268 C 187.422 203.693 186.556 202 184.981 201.491 Z" style="stroke:none;fill:#EBEBEB;stroke-miterlimit:10;"/><path d="M 160.648 127.201 L 145.098 140.214 C 144.695 140.552 144.501 141.001 144.665 141.216 L 144.665 141.216 C 144.829 141.432 145.289 141.333 145.692 140.996 L 161.243 127.983 C 161.646 127.646 161.84 127.197 161.676 126.981 L 161.676 126.981 C 161.512 126.765 161.052 126.864 160.648 127.201 Z" style="stroke:none;fill:#747474;stroke-miterlimit:10;"/><path d="M 169.916 143.44 L 152.125 152.927 C 151.662 153.174 151.381 153.572 151.498 153.817 L 151.498 153.817 C 151.614 154.062 152.084 154.061 152.546 153.814 L 170.337 144.328 C 170.799 144.081 171.081 143.682 170.964 143.437 L 170.964 143.437 C 170.848 143.192 170.378 143.194 169.916 143.44 Z" style="stroke:none;fill:#747474;stroke-miterlimit:10;"/><path d="M 178.124 162.71 L 157.312 167.557 C 156.787 167.68 156.401 167.995 156.45 168.262 L 156.45 168.262 C 156.499 168.528 156.965 168.645 157.49 168.523 L 178.302 163.676 C 178.827 163.554 179.213 163.238 179.164 162.972 L 179.164 162.972 C 179.115 162.705 178.649 162.588 178.124 162.71 Z" style="stroke:none;fill:#747474;stroke-miterlimit:10;"/><path d="M 182.031 179.998 L 160.967 181.033 C 160.432 181.059 159.999 181.3 159.999 181.571 L 159.999 181.571 C 160 181.842 160.435 182.041 160.969 182.015 L 182.033 180.98 C 182.568 180.954 183.002 180.712 183.001 180.441 L 183.001 180.441 C 183 180.17 182.566 179.972 182.031 179.998 Z" style="stroke:none;fill:#747474;stroke-miterlimit:10;"/></g><g><path d="M 72.67 95 L 124.33 95 C 135.738 95 145 104.262 145 115.67 L 145 221 C 145 223.76 142.76 226 140 226 L 57 226 C 54.24 226 52 223.76 52 221 L 52 115.67 C 52 104.262 61.262 95 72.67 95 Z" style="stroke:none;fill:#8B8B8B;stroke-miterlimit:10;"/><rect x="52.125" y="171" width="92.875" height="1" transform="matrix(1,0,0,1,0,0)" fill="rgb(116,116,116)"/><rect x="52" y="141" width="93" height="1" transform="matrix(1,0,0,1,0,0)" fill="rgb(116,116,116)"/><rect x="52" y="113.118" width="93" height="1" transform="matrix(1,0,0,1,0,0)" fill="rgb(116,116,116)"/><rect x="52" y="197.5" width="93" height="1" transform="matrix(1,0,0,1,0,0)" fill="rgb(116,116,116)"/><rect x="97" y="96" width="3.5" height="130" transform="matrix(1,0,0,1,0,0)" fill="rgb(185,185,185)"/><rect x="97.25" y="224" width="3" height="5" transform="matrix(1,0,0,1,0,0)" fill="rgb(235,235,235)"/><rect x="97.75" y="227" width="2" height="1" transform="matrix(1,0,0,1,0,0)" fill="rgb(23,23,23)"/><path d="M 76.002 86.211 L 93.302 91.538 C 97.522 92.837 99.893 97.318 98.594 101.538 L 98.299 102.493 C 97 106.713 92.519 109.084 88.299 107.785 L 71 102.458 C 66.78 101.159 64.409 96.678 65.708 92.458 L 66.002 91.503 C 67.302 87.283 71.782 84.912 76.002 86.211 Z" style="stroke:none;fill:#EBEBEB;stroke-miterlimit:10;"/><path d="M 121.498 86.211 L 104.198 91.538 C 99.978 92.837 97.607 97.318 98.906 101.538 L 99.201 102.493 C 100.5 106.713 104.981 109.084 109.201 107.785 L 126.5 102.458 C 130.72 101.159 133.091 96.678 131.792 92.458 L 131.498 91.503 C 130.198 87.283 125.718 84.912 121.498 86.211 Z" style="stroke:none;fill:#EBEBEB;stroke-miterlimit:10;"/><rect x="63.276" y="174.919" width="4.552" height="32.051" transform="matrix(0.992,0.124,-0.124,0.992,24.233,-6.665)" fill="rgb(70,70,70)"/><rect x="129.672" y="174.919" width="4.552" height="32.051" transform="matrix(0.992,-0.124,0.124,0.992,-22.702,17.874)" fill="rgb(70,70,70)"/><path d="M 144.5 106 L 144.5 106 C 144.776 106 145 106.455 145 107.015 L 145 139.985 C 145 140.545 144.776 141 144.5 141 L 144.5 141 C 144.224 141 144 140.545 144 139.985 L 144 107.015 C 144 106.455 144.224 106 144.5 106 Z" style="stroke:none;fill:#747474;stroke-miterlimit:10;"/><path d="M 52.125 105 L 52.125 105 C 52.401 105 52.625 105.448 52.625 106 L 52.625 140 C 52.625 140.552 52.401 141 52.125 141 L 52.125 141 C 51.849 141 51.625 140.552 51.625 140 L 51.625 106 C 51.625 105.448 51.849 105 52.125 105 Z" style="stroke:none;fill:#747474;stroke-miterlimit:10;"/></g></g><g style="isolation:isolate"><g style="isolation:isolate"><g><path d="M 160 376 L 117 376 C 116.448 376 116 376.448 116 377 L 116 378 C 116 378.552 116.448 379 117 379 L 160 379 C 160.552 379 161 378.552 161 378 L 161 377 C 161 376.448 160.552 376 160 376 Z" style="stroke:none;fill:#FFFFFF;stroke-miterlimit:10;"/><path d="M 137 355 L 130 355 C 128.896 355 128 355.896 128 357 L 128 360 L 139 360 L 139 357 C 139 355.896 138.104 355 137 355 Z" style="stroke:none;fill:#EBEBEB;stroke-miterlimit:10;"/><path d="M 148 360 L 128 360 L 128 361 C 128 361.552 128.448 362 129 362 L 147 362 C 147.552 362 148 361.552 148 361 L 148 360 Z" style="stroke:none;fill:#EBEBEB;stroke-miterlimit:10;"/><path d=" M 128 360 L 157 360 C 159.208 360 161 361.792 161 364 L 161 373 C 161 375.208 159.208 377 157 377 L 120 377 C 117.792 377 116 375.208 116 373 L 116 364 C 116 362.461 116.871 361.124 118.145 360.455 C 118.648 361.341 120.633 362 123 362 C 125.76 362 128 361.104 128 360 L 128 360 Z " fill-rule="evenodd" fill="rgb(93,93,93)"/><path d="M 149 360 L 128 360 L 128 361 C 128 361.552 128.448 362 129 362 L 148 362 C 148.552 362 149 361.552 149 361 L 149 360 Z" style="stroke:none;fill:#EBEBEB;stroke-miterlimit:10;"/><line x1="148" y1="360" x2="145" y2="364" vector-effect="non-scaling-stroke" stroke-width="1" stroke="rgb(0,0,0)" stroke-linejoin="miter" stroke-linecap="round" stroke-miterlimit="3"/><line x1="143" y1="360" x2="139" y2="364" vector-effect="non-scaling-stroke" stroke-width="1" stroke="rgb(0,0,0)" stroke-linejoin="miter" stroke-linecap="round" stroke-miterlimit="3"/><line x1="139" y1="360" x2="133" y2="364" vector-effect="non-scaling-stroke" stroke-width="1" stroke="rgb(0,0,0)" stroke-linejoin="miter" stroke-linecap="round" stroke-miterlimit="3"/></g><g><path d="M 40 376 L 83 376 C 83.552 376 84 376.448 84 377 L 84 378 C 84 378.552 83.552 379 83 379 L 40 379 C 39.448 379 39 378.552 39 378 L 39 377 C 39 376.448 39.448 376 40 376 Z" style="stroke:none;fill:#FFFFFF;stroke-miterlimit:10;"/><path d="M 63 355 L 70 355 C 71.104 355 72 355.896 72 357 L 72 360 L 61 360 L 61 357 C 61 355.896 61.896 355 63 355 Z" style="stroke:none;fill:#EBEBEB;stroke-miterlimit:10;"/><path d="M 52 360 L 72 360 L 72 361 C 72 361.552 71.552 362 71 362 L 53 362 C 52.448 362 52 361.552 52 361 L 52 360 Z" style="stroke:none;fill:#EBEBEB;stroke-miterlimit:10;"/><path d=" M 72 360 L 43 360 C 40.792 360 39 361.792 39 364 L 39 373 C 39 375.208 40.792 377 43 377 L 80 377 C 82.208 377 84 375.208 84 373 L 84 364 C 84 362.461 83.129 361.124 81.855 360.455 C 81.352 361.341 79.367 362 77 362 C 74.24 362 72 361.104 72 360 L 72 360 Z " fill-rule="evenodd" fill="rgb(93,93,93)"/><path d="M 51 360 L 72 360 L 72 361 C 72 361.552 71.552 362 71 362 L 52 362 C 51.448 362 51 361.552 51 361 L 51 360 Z" style="stroke:none;fill:#EBEBEB;stroke-miterlimit:10;"/><line x1="52" y1="360" x2="55" y2="364" vector-effect="non-scaling-stroke" stroke-width="1" stroke="rgb(0,0,0)" stroke-linejoin="miter" stroke-linecap="round" stroke-miterlimit="3"/><line x1="57" y1="360" x2="61" y2="364" vector-effect="non-scaling-stroke" stroke-width="1" stroke="rgb(0,0,0)" stroke-linejoin="miter" stroke-linecap="round" stroke-miterlimit="3"/><line x1="61" y1="360" x2="67" y2="364" vector-effect="non-scaling-stroke" stroke-width="1" stroke="rgb(0,0,0)" stroke-linejoin="miter" stroke-linecap="round" stroke-miterlimit="3"/></g></g></g></g></svg>