<?xml version="1.0" standalone="no"?><!-- Generator: Gravit.io --><svg xmlns="http://www.w3.org/2000/svg" xmlns:xlink="http://www.w3.org/1999/xlink" style="isolation:isolate" viewBox="0 0 200 400" width="200" height="400"><defs><clipPath id="_clipPath_sItEVfgVBJliZ4eFHzJxzgqleEwtcsY2"><rect width="200" height="400"/></clipPath></defs><g clip-path="url(#_clipPath_sItEVfgVBJliZ4eFHzJxzgqleEwtcsY2)"><g style="isolation:isolate"><g><g><path d=" M 142.75 205 L 142.75 214.055 C 142.75 225.339 133.589 234.5 122.305 234.5 L 76.195 234.5 C 64.911 234.5 55.75 225.339 55.75 214.055 L 55.75 205 L 142.75 205 L 142.75 205 Z " fill="rgb(152,0,0)"/><path d=" M 138.64 358.026 C 138.64 358.028 138.64 358.029 138.64 358.03" fill="rgb(74,134,232)"/><path d=" M 118.26 358.03 C 118.262 358.021 118.264 358.012 118.265 358.004" fill="rgb(74,134,232)"/></g><path d=" M 121.176 279 C 120.99 275.563 120.651 272.13 120.213 268.703 C 119.115 260.054 117.558 251.434 115.57 242.861 C 115.111 239.758 114.485 236.665 113.665 233.601 C 113.401 232.589 113.081 231.596 112.706 230.603 C 112.511 230.088 112.275 229.572 111.983 229.076 C 110.621 226.718 110.677 224.093 112.136 221.763 C 113.596 219.444 116.348 217.611 119.768 216.675 C 123.188 215.74 127.024 215.778 130.402 216.78 C 133.794 217.783 136.463 219.663 137.826 222.012 C 138.549 223.281 139.16 224.57 139.647 225.887 C 140.175 227.31 140.634 228.732 141.023 230.174 C 141.913 233.553 142.622 236.961 143.15 240.379 C 145.179 249.219 146.778 258.116 147.918 267.042 C 148.419 271.021 148.801 275.007 149 279" fill="rgb(152,0,0)"/></g><rect x="96" y="205" width="7" height="29" transform="matrix(1,0,0,1,0,0)" fill="rgb(122,0,0)"/><rect x="55.75" y="207" width="86.95" height="7" transform="matrix(1,0,0,1,0,0)" fill="rgb(23,23,23)"/><rect x="63" y="205" width="3" height="12" transform="matrix(1,0,0,1,0,0)" fill="rgb(152,0,0)"/><rect x="81" y="205" width="3" height="12" transform="matrix(1,0,0,1,0,0)" fill="rgb(152,0,0)"/><rect x="116" y="205" width="3" height="12" transform="matrix(1,0,0,1,0,0)" fill="rgb(152,0,0)"/><rect x="134" y="205" width="3" height="12" transform="matrix(1,0,0,1,0,0)" fill="rgb(152,0,0)"/><rect x="93.155" y="206.5" width="14" height="8" transform="matrix(1,0,0,1,0,0)" fill="rgb(235,235,235)"/><path d=" M 78.824 280 C 79.01 276.563 79.349 273.13 79.787 269.703 C 80.885 261.054 82.442 252.434 84.43 243.861 C 84.889 240.758 85.515 237.665 86.335 234.601 C 86.599 233.589 86.919 232.596 87.294 231.603 C 87.489 231.088 87.725 230.572 88.017 230.076 C 89.379 227.718 89.323 225.093 87.864 222.763 C 86.404 220.444 83.652 218.611 80.232 217.675 C 76.812 216.74 72.976 216.778 69.598 217.78 C 66.206 218.783 63.537 220.663 62.174 223.012 C 61.451 224.281 60.84 225.57 60.353 226.887 C 59.825 228.31 59.366 229.732 58.977 231.174 C 58.087 234.553 57.378 237.961 56.85 241.379 C 54.821 250.219 53.222 259.116 52.082 268.042 C 51.581 272.021 51.199 276.007 51 280" fill="rgb(152,0,0)"/></g><g style="isolation:isolate"><g><path d="M 160 376 L 117 376 C 116.448 376 116 376.448 116 377 L 116 378 C 116 378.552 116.448 379 117 379 L 160 379 C 160.552 379 161 378.552 161 378 L 161 377 C 161 376.448 160.552 376 160 376 Z" style="stroke:none;fill:#FFFFFF;stroke-miterlimit:10;"/><path d="M 137 355 L 130 355 C 128.896 355 128 355.896 128 357 L 128 360 L 139 360 L 139 357 C 139 355.896 138.104 355 137 355 Z" style="stroke:none;fill:#EBEBEB;stroke-miterlimit:10;"/><path d="M 148 360 L 128 360 L 128 361 C 128 361.552 128.448 362 129 362 L 147 362 C 147.552 362 148 361.552 148 361 L 148 360 Z" style="stroke:none;fill:#EBEBEB;stroke-miterlimit:10;"/><path d=" M 128 360 L 157 360 C 159.208 360 161 361.792 161 364 L 161 373 C 161 375.208 159.208 377 157 377 L 120 377 C 117.792 377 116 375.208 116 373 L 116 364 C 116 362.461 116.871 361.124 118.145 360.455 C 118.648 361.341 120.633 362 123 362 C 125.76 362 128 361.104 128 360 L 128 360 Z " fill-rule="evenodd" fill="rgb(204,122,0)"/><path d="M 149 360 L 128 360 L 128 361 C 128 361.552 128.448 362 129 362 L 148 362 C 148.552 362 149 361.552 149 361 L 149 360 Z" style="stroke:none;fill:#EBEBEB;stroke-miterlimit:10;"/><line x1="148" y1="360" x2="145" y2="364" vector-effect="non-scaling-stroke" stroke-width="1" stroke="rgb(0,0,0)" stroke-linejoin="miter" stroke-linecap="round" stroke-miterlimit="3"/><line x1="143" y1="360" x2="139" y2="364" vector-effect="non-scaling-stroke" stroke-width="1" stroke="rgb(0,0,0)" stroke-linejoin="miter" stroke-linecap="round" stroke-miterlimit="3"/><line x1="139" y1="360" x2="133" y2="364" vector-effect="non-scaling-stroke" stroke-width="1" stroke="rgb(0,0,0)" stroke-linejoin="miter" stroke-linecap="round" stroke-miterlimit="3"/></g><g><path d="M 40 376 L 83 376 C 83.552 376 84 376.448 84 377 L 84 378 C 84 378.552 83.552 379 83 379 L 40 379 C 39.448 379 39 378.552 39 378 L 39 377 C 39 376.448 39.448 376 40 376 Z" style="stroke:none;fill:#FFFFFF;stroke-miterlimit:10;"/><path d="M 63 355 L 70 355 C 71.104 355 72 355.896 72 357 L 72 360 L 61 360 L 61 357 C 61 355.896 61.896 355 63 355 Z" style="stroke:none;fill:#EBEBEB;stroke-miterlimit:10;"/><path d="M 52 360 L 72 360 L 72 361 C 72 361.552 71.552 362 71 362 L 53 362 C 52.448 362 52 361.552 52 361 L 52 360 Z" style="stroke:none;fill:#EBEBEB;stroke-miterlimit:10;"/><path d=" M 72 360 L 43 360 C 40.792 360 39 361.792 39 364 L 39 373 C 39 375.208 40.792 377 43 377 L 80 377 C 82.208 377 84 375.208 84 373 L 84 364 C 84 362.461 83.129 361.124 81.855 360.455 C 81.352 361.341 79.367 362 77 362 C 74.24 362 72 361.104 72 360 L 72 360 Z " fill-rule="evenodd" fill="rgb(204,122,0)"/><path d="M 51 360 L 72 360 L 72 361 C 72 361.552 71.552 362 71 362 L 52 362 C 51.448 362 51 361.552 51 361 L 51 360 Z" style="stroke:none;fill:#EBEBEB;stroke-miterlimit:10;"/><line x1="52" y1="360" x2="55" y2="364" vector-effect="non-scaling-stroke" stroke-width="1" stroke="rgb(0,0,0)" stroke-linejoin="miter" stroke-linecap="round" stroke-miterlimit="3"/><line x1="57" y1="360" x2="61" y2="364" vector-effect="non-scaling-stroke" stroke-width="1" stroke="rgb(0,0,0)" stroke-linejoin="miter" stroke-linecap="round" stroke-miterlimit="3"/><line x1="61" y1="360" x2="67" y2="364" vector-effect="non-scaling-stroke" stroke-width="1" stroke="rgb(0,0,0)" stroke-linejoin="miter" stroke-linecap="round" stroke-miterlimit="3"/></g></g><g style="isolation:isolate"><path d=" M 143 210 L 143 117.588 C 143 106.501 133.73 97.5 122.313 97.5 L 120.752 97.5 C 118.797 105.66 111.255 111.747 102.26 111.747 L 93.685 111.747 C 84.694 111.747 77.154 105.665 75.204 97.507 C 63.994 97.739 54.968 106.648 54.968 117.588 L 54.968 210 L 143 210 L 143 210 Z " fill="rgb(255,255,255)"/><path d="M 31.715 127.52 L 53.787 103.791 C 57.017 100.319 62.459 100.122 65.931 103.352 L 78.222 114.786 L 50.297 144.806 L 31.715 127.52 Z" style="stroke:none;fill:#FFFFFF;stroke-miterlimit:10;"/><path d="M 163.508 127.714 L 141.435 103.986 C 138.205 100.513 132.763 100.317 129.291 103.547 L 117 114.98 L 144.925 145 L 163.508 127.714 Z" style="stroke:none;fill:#FFFFFF;stroke-miterlimit:10;"/></g><g style="isolation:isolate"><path d="M 72 48 L 88 48 C 90.208 48 92 49.792 92 52 L 92 62 C 92 64.208 90.208 66 88 66 L 72 66 C 69.792 66 68 64.208 68 62 L 68 52 C 68 49.792 69.792 48 72 48 Z" style="stroke:none;fill:#171717;stroke-miterlimit:10;opacity:0.5;"/><path d="M 72 48 L 88 48 C 90.208 48 92 49.792 92 52 L 92 62 C 92 64.208 90.208 66 88 66 L 72 66 C 69.792 66 68 64.208 68 62 L 68 52 C 68 49.792 69.792 48 72 48 Z" style="fill:none;stroke:#000000;stroke-width:1;stroke-linecap:square;stroke-miterlimit:2;"/><path d="M 109 48 L 125 48 C 127.208 48 129 49.792 129 52 L 129 62 C 129 64.208 127.208 66 125 66 L 109 66 C 106.792 66 105 64.208 105 62 L 105 52 C 105 49.792 106.792 48 109 48 Z" style="stroke:none;fill:#171717;stroke-linecap:square;stroke-miterlimit:2;opacity:0.5;"/><path d="M 109 48 L 125 48 C 127.208 48 129 49.792 129 52 L 129 62 C 129 64.208 127.208 66 125 66 L 109 66 C 106.792 66 105 64.208 105 62 L 105 52 C 105 49.792 106.792 48 109 48 Z" style="fill:none;stroke:#000000;stroke-width:1;stroke-linecap:square;stroke-miterlimit:2;"/><line x1="92" y1="54" x2="105" y2="54" vector-effect="non-scaling-stroke" stroke-width="1" stroke="rgb(0,0,0)" stroke-linejoin="miter" stroke-linecap="square" stroke-miterlimit="3"/><line x1="129" y1="54" x2="137" y2="48" vector-effect="non-scaling-stroke" stroke-width="1" stroke="rgb(0,0,0)" stroke-linejoin="miter" stroke-linecap="square" stroke-miterlimit="3"/><line x1="68" y1="54" x2="58" y2="49" vector-effect="non-scaling-stroke" stroke-width="1" stroke="rgb(0,0,0)" stroke-linejoin="miter" stroke-linecap="square" stroke-miterlimit="3"/></g></g></svg>