<?xml version="1.0" standalone="no"?><!-- Generator: Gravit.io --><svg xmlns="http://www.w3.org/2000/svg" xmlns:xlink="http://www.w3.org/1999/xlink" style="isolation:isolate" viewBox="0 0 200 400" width="200" height="400"><defs><clipPath id="_clipPath_ZvAk60WmKXSpk4TEhpoWXlg5aORy9E62"><rect width="200" height="400"/></clipPath></defs><g clip-path="url(#_clipPath_ZvAk60WmKXSpk4TEhpoWXlg5aORy9E62)"><g style="isolation:isolate"><ellipse vector-effect="non-scaling-stroke" cx="96.50000000000001" cy="4.9999999999999964" rx="10.5" ry="5" fill="rgb(254,254,254)"/><path d=" M 51 45.159 C 51.938 29.708 62.938 13.529 67 10.257 C 71.063 6.985 81.688 3.667 85 3 C 88.313 2.333 110.688 2.623 116 4.441 C 121.313 6.258 125.313 7.046 129 10.257 C 132.688 13.469 145.375 36.615 145 45.159 Q 144.625 53.702 118 28.678 L 80 28.678 Q 50.063 60.61 51 45.159 Z " fill="rgb(102,192,184)"/><path d=" M 56 57 Q 66 39.25 77 37 C 88 34.75 108.661 34.258 117 37 Q 126.125 40 140 57 Q 141.5 63.5 140 65 L 149 61 Q 150.625 53.75 149 46 C 147.908 40.794 127.051 21.885 118 19 C 106.625 15.375 84.75 14.375 73 19 Q 55.284 25.973 48 42 Q 43.167 54.776 46 60 Q 50 67.375 56 65 L 56 57 Z " fill="rgb(96,125,139)"/><path d=" M 48 42 Q 45.938 54.203 48 56 Q 50.063 57.797 56 62" fill="none" vector-effect="non-scaling-stroke" stroke-width="1" stroke="rgb(204,155,82)" stroke-linejoin="bevel" stroke-linecap="round" stroke-miterlimit="3"/><path d=" M 54 32 Q 50 44.125 52 47 Q 54 49.875 58 53" fill="none" vector-effect="non-scaling-stroke" stroke-width="1" stroke="rgb(204,155,82)" stroke-linejoin="miter" stroke-linecap="round" stroke-miterlimit="3"/><path d=" M 64 23 Q 62.297 31.016 63 34 Q 63.703 36.984 67 42" fill="none" vector-effect="non-scaling-stroke" stroke-width="1" stroke="rgb(204,155,82)" stroke-linejoin="miter" stroke-linecap="round" stroke-miterlimit="3"/><path d=" M 80 17 Q 80.016 19.547 80 29 L 81 36" fill="none" vector-effect="non-scaling-stroke" stroke-width="1" stroke="rgb(204,155,82)" stroke-linejoin="miter" stroke-linecap="round" stroke-miterlimit="3"/><path d=" M 98 16 Q 97.172 23.344 97 35" fill="none" vector-effect="non-scaling-stroke" stroke-width="1" stroke="rgb(204,155,82)" stroke-linejoin="miter" stroke-linecap="round" stroke-miterlimit="3"/><path d=" M 116 18 Q 116.375 27.063 115 29 Q 113.625 30.938 113 36" fill="none" vector-effect="non-scaling-stroke" stroke-width="1" stroke="rgb(204,155,82)" stroke-linejoin="miter" stroke-linecap="round" stroke-miterlimit="3"/><path d=" M 131 27 Q 131.641 33.469 131 36 Q 130.359 38.531 127 43" fill="none" vector-effect="non-scaling-stroke" stroke-width="1" stroke="rgb(204,155,82)" stroke-linejoin="miter" stroke-linecap="round" stroke-miterlimit="3"/><path d=" M 142 37 Q 144.219 45.094 142 48 Q 139.781 50.906 137 53" fill="none" vector-effect="non-scaling-stroke" stroke-width="1" stroke="rgb(204,155,82)" stroke-linejoin="miter" stroke-linecap="round" stroke-miterlimit="3"/><path d=" M 149 45 Q 149.156 55.922 147 57 Q 144.844 58.078 141 59" fill="none" vector-effect="non-scaling-stroke" stroke-width="1" stroke="rgb(204,155,82)" stroke-linejoin="miter" stroke-linecap="round" stroke-miterlimit="3"/></g><g style="isolation:isolate"><g><g><path d=" M 142.75 205 L 142.75 214.055 C 142.75 225.339 133.589 234.5 122.305 234.5 L 76.195 234.5 C 64.911 234.5 55.75 225.339 55.75 214.055 L 55.75 205 L 142.75 205 L 142.75 205 Z " fill="rgb(96,125,139)"/><path d=" M 138.64 358.026 C 138.64 358.028 138.64 358.029 138.64 358.03" fill="rgb(74,134,232)"/><path d=" M 118.26 358.03 C 118.262 358.021 118.264 358.012 118.265 358.004" fill="rgb(74,134,232)"/></g><path d=" M 116.532 358.007 C 117.809 352.186 118.966 346.345 120.026 340.484 C 121.001 335.014 121.857 329.524 122.562 324.014 C 123.927 313.464 124.62 302.844 124.642 292.214 C 124.631 284.204 124.252 276.194 123.494 268.214 C 122.638 259.154 121.424 250.124 119.875 241.144 C 119.517 237.894 119.029 234.654 118.39 231.444 C 118.184 230.384 117.935 229.344 117.643 228.304 C 117.491 227.764 117.307 227.224 117.079 226.704 C 116.017 224.234 116.061 221.484 117.198 219.044 C 118.336 216.614 120.481 214.694 123.147 213.714 C 125.812 212.734 128.803 212.774 131.436 213.824 C 134.08 214.874 136.16 216.844 137.222 219.304 C 137.785 220.634 138.262 221.984 138.641 223.364 C 139.053 224.854 139.411 226.344 139.714 227.854 C 140.407 231.394 140.96 234.964 141.372 238.544 C 142.954 247.804 144.2 257.124 145.088 266.474 C 145.89 275.034 146.302 283.624 146.313 292.224 C 146.291 303.634 145.543 315.044 144.081 326.384 C 143.333 332.194 142.434 337.984 141.393 343.764 C 140.537 348.532 139.613 353.288 138.609 358.03" fill="rgb(96,125,139)"/><path d=" M 61.017 358.004 C 60.013 353.269 59.085 348.521 58.229 343.76 C 57.189 337.98 56.301 332.19 55.542 326.38 C 54.079 315.04 53.332 303.63 53.31 292.22 C 53.332 283.62 53.733 275.03 54.545 266.47 C 55.434 257.12 56.669 247.8 58.262 238.54 C 58.663 234.96 59.215 231.39 59.92 227.85 C 60.212 226.34 60.57 224.85 60.981 223.36 C 61.361 221.98 61.837 220.63 62.412 219.3 C 63.474 216.84 65.554 214.87 68.187 213.82 C 70.831 212.77 73.81 212.73 76.487 213.71 C 79.152 214.69 81.287 216.61 82.424 219.04 C 83.562 221.48 83.605 224.23 82.544 226.7 C 82.316 227.22 82.132 227.76 81.98 228.3 C 81.698 229.34 81.449 230.38 81.233 231.44 C 80.604 234.65 80.106 237.89 79.748 241.14 C 78.199 250.12 76.996 259.15 76.129 268.21 C 75.382 276.19 75.002 284.2 74.981 292.21 C 75.002 302.84 75.696 313.46 77.061 324.01 C 77.776 329.52 78.621 335.01 79.607 340.48 C 80.657 346.341 81.825 352.182 83.091 358.004 L 61.017 358.004 L 61.017 358.004 Z " fill="rgb(96,125,139)"/></g><rect x="96" y="205" width="7" height="29" transform="matrix(1,0,0,1,0,0)" fill="rgb(77,100,111)"/><rect x="63" y="205" width="3" height="12" transform="matrix(1,0,0,1,0,0)" fill="rgb(96,125,139)"/><rect x="81" y="205" width="3" height="12" transform="matrix(1,0,0,1,0,0)" fill="rgb(96,125,139)"/><rect x="116" y="205" width="3" height="12" transform="matrix(1,0,0,1,0,0)" fill="rgb(96,125,139)"/><rect x="134" y="205" width="3" height="12" transform="matrix(1,0,0,1,0,0)" fill="rgb(96,125,139)"/><rect x="93.155" y="206.5" width="14" height="8" transform="matrix(1,0,0,1,0,0)" fill="rgb(235,235,235)"/><rect x="116" y="341" width="27" height="18" transform="matrix(1,0,0,1,0,0)" fill="rgb(235,235,235)"/><rect x="56.5" y="341" width="27.5" height="18" transform="matrix(1,0,0,1,0,0)" fill="rgb(235,235,235)"/></g><g style="isolation:isolate"><g><path d=" M 36.485 201.855 C 36.041 197.959 35.791 194.046 35.743 190.126 C 35.684 185.828 35.919 181.529 36.459 177.262 C 36.952 173.292 37.715 169.363 38.749 165.475 C 39.746 161.761 40.991 158.12 42.506 154.55 C 43.997 151.011 45.746 147.553 47.73 144.199 C 49.773 140.762 52.062 137.428 54.575 134.228 C 57.228 130.843 60.117 127.591 63.228 124.513 C 66.656 121.118 70.296 117.896 74.135 114.87 C 76.448 113.044 77.833 110.49 77.986 107.771 C 78.139 105.053 77.047 102.396 74.969 100.375 C 72.879 98.354 69.955 97.144 66.844 97.01 C 63.733 96.877 60.692 97.831 58.379 99.647 C 53.882 103.206 49.632 106.971 45.617 110.941 C 41.883 114.645 38.396 118.553 35.203 122.626 C 32.15 126.513 29.379 130.566 26.89 134.751 C 24.448 138.865 22.3 143.101 20.468 147.441 C 18.625 151.811 17.087 156.283 15.889 160.818 C 14.633 165.506 13.706 170.255 13.119 175.036 C 12.473 180.124 12.191 185.243 12.262 190.362 C 12.332 195.912 12.743 201.451 13.506 206.97 C 13.66 208.077 14.018 209.145 14.563 210.131 L 36.485 201.855 L 36.485 201.855 Z " fill="rgb(139,139,139)"/><path d="M 13.572 201.934 L 34.328 194.352 C 35.883 193.784 37.607 194.585 38.175 196.14 L 38.942 198.24 C 39.51 199.795 38.709 201.519 37.153 202.087 L 16.398 209.669 C 14.842 210.237 13.119 209.436 12.55 207.881 L 11.783 205.781 C 11.215 204.226 12.017 202.502 13.572 201.934 Z" style="stroke:none;fill:#EBEBEB;stroke-miterlimit:10;"/></g><g><path d=" M 185.302 206.97 C 185.043 201.442 184.605 195.915 183.991 190.406 C 183.408 185.216 182.601 180.047 181.582 174.919 C 180.629 170.164 179.43 165.45 177.984 160.809 C 176.606 156.396 174.97 152.056 173.087 147.808 C 171.249 143.654 169.154 139.604 166.834 135.667 C 164.492 131.72 161.948 127.877 159.214 124.147 C 156.378 120.314 153.386 116.575 150.237 112.949 C 146.898 109.105 143.458 105.355 139.894 101.698 C 137.91 99.647 135.12 98.425 132.15 98.27 C 129.181 98.124 126.278 99.078 124.07 100.911 C 121.852 102.745 120.529 105.324 120.361 108.07 C 120.204 110.815 121.235 113.498 123.219 115.539 C 126.502 118.916 129.685 122.376 132.755 125.919 C 135.546 129.12 138.191 132.425 140.69 135.822 C 143.02 138.982 145.172 142.245 147.156 145.591 C 149.094 148.865 150.82 152.232 152.355 155.671 C 153.936 159.224 155.303 162.85 156.446 166.538 C 157.69 170.537 158.721 174.588 159.539 178.679 C 160.458 183.269 161.175 187.889 161.69 192.54 C 162.003 195.329 162.265 198.124 162.459 200.925 L 185.302 206.97 L 185.302 206.97 Z " fill="rgb(139,139,139)"/><path d="M 184.981 201.491 L 163.954 194.694 C 162.379 194.185 160.686 195.051 160.177 196.626 L 159.49 198.753 C 158.98 200.328 159.846 202.021 161.422 202.53 L 182.448 209.327 C 184.023 209.836 185.716 208.97 186.225 207.395 L 186.912 205.268 C 187.422 203.693 186.556 202 184.981 201.491 Z" style="stroke:none;fill:#EBEBEB;stroke-miterlimit:10;"/></g><g><path d="M 72.67 95 L 124.33 95 C 135.738 95 145 104.262 145 115.67 L 145 221 C 145 223.76 142.76 226 140 226 L 57 226 C 54.24 226 52 223.76 52 221 L 52 115.67 C 52 104.262 61.262 95 72.67 95 Z" style="stroke:none;fill:#8B8B8B;stroke-miterlimit:10;"/><g><rect x="97.25" y="224" width="3" height="5" transform="matrix(1,0,0,1,0,0)" fill="rgb(235,235,235)"/><rect x="97.75" y="227" width="2" height="1" transform="matrix(1,0,0,1,0,0)" fill="rgb(23,23,23)"/><rect x="97" y="96" width="3.5" height="130" transform="matrix(1,0,0,1,0,0)" fill="rgb(185,185,185)"/></g><g><path d="M 73.2 84.348 L 92.939 90.426 C 97.359 91.787 99.843 96.48 98.482 100.9 L 98.411 101.131 C 97.05 105.551 92.357 108.034 87.937 106.673 L 68.197 100.595 C 63.777 99.235 61.294 94.541 62.655 90.121 L 62.726 89.891 C 64.087 85.471 68.78 82.987 73.2 84.348 Z" style="stroke:none;fill:#EBEBEB;stroke-miterlimit:10;"/><path d="M 124.706 84.223 L 104.612 90.41 C 100.163 91.78 97.664 96.503 99.034 100.951 L 99.073 101.08 C 100.443 105.528 105.166 108.027 109.614 106.658 L 129.708 100.471 C 134.156 99.101 136.656 94.378 135.286 89.93 L 135.247 89.801 C 133.877 85.353 129.154 82.854 124.706 84.223 Z" style="stroke:none;fill:#EBEBEB;stroke-miterlimit:10;"/></g><g><rect x="63.276" y="174.919" width="4.552" height="32.051" transform="matrix(0.992,0.124,-0.124,0.992,24.233,-6.665)" fill="rgb(70,70,70)"/><rect x="129.672" y="174.919" width="4.552" height="32.051" transform="matrix(0.992,-0.124,0.124,0.992,-22.702,17.874)" fill="rgb(70,70,70)"/></g><path d="M 144.5 106 L 144.5 106 C 144.776 106 145 106.455 145 107.015 L 145 139.985 C 145 140.545 144.776 141 144.5 141 L 144.5 141 C 144.224 141 144 140.545 144 139.985 L 144 107.015 C 144 106.455 144.224 106 144.5 106 Z" style="stroke:none;fill:#747474;stroke-miterlimit:10;"/><path d="M 52.125 105 L 52.125 105 C 52.401 105 52.625 105.448 52.625 106 L 52.625 140 C 52.625 140.552 52.401 141 52.125 141 L 52.125 141 C 51.849 141 51.625 140.552 51.625 140 L 51.625 106 C 51.625 105.448 51.849 105 52.125 105 Z" style="stroke:none;fill:#747474;stroke-miterlimit:10;"/></g></g><g style="isolation:isolate"><g style="isolation:isolate"><g><path d="M 160 376 L 117 376 C 116.448 376 116 376.448 116 377 L 116 378 C 116 378.552 116.448 379 117 379 L 160 379 C 160.552 379 161 378.552 161 378 L 161 377 C 161 376.448 160.552 376 160 376 Z" style="stroke:none;fill:#FFFFFF;stroke-miterlimit:10;"/><path d="M 137 355 L 130 355 C 128.896 355 128 355.896 128 357 L 128 360 L 139 360 L 139 357 C 139 355.896 138.104 355 137 355 Z" style="stroke:none;fill:#EBEBEB;stroke-miterlimit:10;"/><path d="M 148 360 L 128 360 L 128 361 C 128 361.552 128.448 362 129 362 L 147 362 C 147.552 362 148 361.552 148 361 L 148 360 Z" style="stroke:none;fill:#EBEBEB;stroke-miterlimit:10;"/><path d=" M 128 360 L 157 360 C 159.208 360 161 361.792 161 364 L 161 373 C 161 375.208 159.208 377 157 377 L 120 377 C 117.792 377 116 375.208 116 373 L 116 364 C 116 362.461 116.871 361.124 118.145 360.455 C 118.648 361.341 120.633 362 123 362 C 125.76 362 128 361.104 128 360 L 128 360 Z " fill-rule="evenodd" fill="rgb(93,93,93)"/><path d="M 149 360 L 128 360 L 128 361 C 128 361.552 128.448 362 129 362 L 148 362 C 148.552 362 149 361.552 149 361 L 149 360 Z" style="stroke:none;fill:#EBEBEB;stroke-miterlimit:10;"/><line x1="148" y1="360" x2="145" y2="364" vector-effect="non-scaling-stroke" stroke-width="1" stroke="rgb(0,0,0)" stroke-linejoin="miter" stroke-linecap="round" stroke-miterlimit="3"/><line x1="143" y1="360" x2="139" y2="364" vector-effect="non-scaling-stroke" stroke-width="1" stroke="rgb(0,0,0)" stroke-linejoin="miter" stroke-linecap="round" stroke-miterlimit="3"/><line x1="139" y1="360" x2="133" y2="364" vector-effect="non-scaling-stroke" stroke-width="1" stroke="rgb(0,0,0)" stroke-linejoin="miter" stroke-linecap="round" stroke-miterlimit="3"/></g><g><path d="M 40 376 L 83 376 C 83.552 376 84 376.448 84 377 L 84 378 C 84 378.552 83.552 379 83 379 L 40 379 C 39.448 379 39 378.552 39 378 L 39 377 C 39 376.448 39.448 376 40 376 Z" style="stroke:none;fill:#FFFFFF;stroke-miterlimit:10;"/><path d="M 63 355 L 70 355 C 71.104 355 72 355.896 72 357 L 72 360 L 61 360 L 61 357 C 61 355.896 61.896 355 63 355 Z" style="stroke:none;fill:#EBEBEB;stroke-miterlimit:10;"/><path d="M 52 360 L 72 360 L 72 361 C 72 361.552 71.552 362 71 362 L 53 362 C 52.448 362 52 361.552 52 361 L 52 360 Z" style="stroke:none;fill:#EBEBEB;stroke-miterlimit:10;"/><path d=" M 72 360 L 43 360 C 40.792 360 39 361.792 39 364 L 39 373 C 39 375.208 40.792 377 43 377 L 80 377 C 82.208 377 84 375.208 84 373 L 84 364 C 84 362.461 83.129 361.124 81.855 360.455 C 81.352 361.341 79.367 362 77 362 C 74.24 362 72 361.104 72 360 L 72 360 Z " fill-rule="evenodd" fill="rgb(93,93,93)"/><path d="M 51 360 L 72 360 L 72 361 C 72 361.552 71.552 362 71 362 L 52 362 C 51.448 362 51 361.552 51 361 L 51 360 Z" style="stroke:none;fill:#EBEBEB;stroke-miterlimit:10;"/><line x1="52" y1="360" x2="55" y2="364" vector-effect="non-scaling-stroke" stroke-width="1" stroke="rgb(0,0,0)" stroke-linejoin="miter" stroke-linecap="round" stroke-miterlimit="3"/><line x1="57" y1="360" x2="61" y2="364" vector-effect="non-scaling-stroke" stroke-width="1" stroke="rgb(0,0,0)" stroke-linejoin="miter" stroke-linecap="round" stroke-miterlimit="3"/><line x1="61" y1="360" x2="67" y2="364" vector-effect="non-scaling-stroke" stroke-width="1" stroke="rgb(0,0,0)" stroke-linejoin="miter" stroke-linecap="round" stroke-miterlimit="3"/></g></g></g></g></svg>