<?xml version="1.0" standalone="no"?><!-- Generator: Gravit.io --><svg xmlns="http://www.w3.org/2000/svg" xmlns:xlink="http://www.w3.org/1999/xlink" style="isolation:isolate" viewBox="0 0 200 400" width="200" height="400"><defs><clipPath id="_clipPath_Mt5bhaZkrMicHOCBsDDMPxB5ynxt5Jqg"><rect width="200" height="400"/></clipPath></defs><g clip-path="url(#_clipPath_Mt5bhaZkrMicHOCBsDDMPxB5ynxt5Jqg)"><g style="isolation:isolate"><g><g><path d=" M 142.75 205 L 142.75 214.055 C 142.75 225.339 133.589 234.5 122.305 234.5 L 76.195 234.5 C 64.911 234.5 55.75 225.339 55.75 214.055 L 55.75 205 L 142.75 205 L 142.75 205 Z " fill="rgb(46,46,46)"/><path d=" M 138.64 358.026 C 138.64 358.028 138.64 358.029 138.64 358.03" fill="rgb(74,134,232)"/><path d=" M 118.26 358.03 C 118.262 358.021 118.264 358.012 118.265 358.004" fill="rgb(74,134,232)"/></g><path d=" M 117.522 358.007 C 118.743 352.186 119.85 346.345 120.864 340.484 C 121.796 335.014 122.615 329.524 123.288 324.014 C 124.594 313.464 125.257 302.844 125.278 292.214 C 125.267 284.204 124.905 276.194 124.179 268.214 C 123.361 259.154 122.2 250.124 120.719 241.144 C 120.377 237.894 119.911 234.654 119.299 231.444 C 119.102 230.384 118.864 229.344 118.584 228.304 C 118.439 227.764 118.263 227.224 118.046 226.704 C 117.03 224.234 117.072 221.484 118.16 219.044 C 119.247 216.614 121.299 214.694 123.848 213.714 C 126.397 212.734 129.256 212.774 131.774 213.824 C 134.302 214.874 136.292 216.844 137.307 219.304 C 137.846 220.634 138.302 221.984 138.664 223.364 C 139.058 224.854 139.4 226.344 139.69 227.854 C 140.353 231.394 140.882 234.964 141.275 238.544 C 142.788 247.804 143.98 257.124 144.829 266.474 C 145.596 275.034 145.99 283.624 146 292.224 C 145.979 303.634 145.264 315.044 143.866 326.384 C 143.151 332.194 142.291 337.984 141.296 343.764 C 140.477 348.532 139.594 353.288 138.634 358.03" fill="rgb(46,46,46)"/><path d=" M 61.423 358.004 C 60.496 353.269 59.64 348.521 58.85 343.76 C 57.89 337.98 57.07 332.19 56.37 326.38 C 55.02 315.04 54.33 303.63 54.31 292.22 C 54.33 283.62 54.7 275.03 55.45 266.47 C 56.27 257.12 57.41 247.8 58.88 238.54 C 59.25 234.96 59.76 231.39 60.41 227.85 C 60.68 226.34 61.01 224.85 61.39 223.36 C 61.74 221.98 62.18 220.63 62.71 219.3 C 63.69 216.84 65.61 214.87 68.04 213.82 C 70.48 212.77 73.23 212.73 75.7 213.71 C 78.16 214.69 80.13 216.61 81.18 219.04 C 82.23 221.48 82.27 224.23 81.29 226.7 C 81.08 227.22 80.91 227.76 80.77 228.3 C 80.51 229.34 80.28 230.38 80.08 231.44 C 79.5 234.65 79.04 237.89 78.71 241.14 C 77.28 250.12 76.17 259.15 75.37 268.21 C 74.68 276.19 74.33 284.2 74.31 292.21 C 74.33 302.84 74.97 313.46 76.23 324.01 C 76.89 329.52 77.67 335.01 78.58 340.48 C 79.549 346.341 80.627 352.182 81.795 358.004 L 61.423 358.004 L 61.423 358.004 Z " fill="rgb(46,46,46)"/></g><rect x="96" y="205" width="7" height="29" transform="matrix(1,0,0,1,0,0)" fill="rgb(37,37,37)"/><rect x="55.7" y="207" width="87" height="7" transform="matrix(1,0,0,1,0,0)" fill="rgb(23,23,23)"/><rect x="63" y="205" width="3" height="12" transform="matrix(1,0,0,1,0,0)" fill="rgb(46,46,46)"/><rect x="81" y="205" width="3" height="12" transform="matrix(1,0,0,1,0,0)" fill="rgb(46,46,46)"/><rect x="116" y="205" width="3" height="12" transform="matrix(1,0,0,1,0,0)" fill="rgb(46,46,46)"/><rect x="134" y="205" width="3" height="12" transform="matrix(1,0,0,1,0,0)" fill="rgb(46,46,46)"/><rect x="93.155" y="206.5" width="14" height="8" transform="matrix(1,0,0,1,0,0)" fill="rgb(235,235,235)"/><rect x="117" y="341" width="26" height="18" transform="matrix(1,0,0,1,0,0)" fill="rgb(235,235,235)"/><rect x="56.5" y="341" width="26" height="18" transform="matrix(1,0,0,1,0,0)" fill="rgb(235,235,235)"/></g><g style="isolation:isolate"><path d=" M 61.838 77.782 C 54.752 82.021 50.5 87.498 50.5 93.473 L 50.5 93.473 C 50.5 106.979 72.232 117.945 99 117.945 C 125.768 117.945 147.5 106.979 147.5 93.473 C 147.5 87.193 142.802 81.462 135.088 77.125 C 131.58 82.705 126.838 87.431 121.244 90.918 C 121.249 91.032 121.25 91.147 121.25 91.263 L 121.25 93.238 C 121.25 103.593 112.843 112 102.488 112 L 94.013 112 C 83.657 112 75.25 103.593 75.25 93.238 L 75.25 91.263 C 75.25 91.142 75.251 91.021 75.256 90.902 L 75.256 90.902 C 74.294 90.326 73.369 89.698 72.47 89.035 C 68.291 85.952 64.682 82.14 61.838 77.782 Z " fill-rule="evenodd" fill="rgb(0,150,136)"/><path d=" M 66.281 83.484 C 61.696 85.605 59 88.2 59 91 C 59 95.625 66.356 99.69 77.431 101.991 C 76.035 99.382 75.25 96.401 75.25 93.238 L 75.25 91.263 C 75.25 91.142 75.251 91.021 75.255 90.901 C 74.293 90.326 73.368 89.698 72.47 89.035 C 70.233 87.385 68.159 85.526 66.281 83.484 Z  M 130.357 83.326 C 135.165 85.474 138 88.129 138 91 C 138 95.706 130.385 99.832 119 102.117 C 120.44 99.479 121.25 96.452 121.25 93.238 L 121.25 91.263 C 121.25 91.147 121.249 91.032 121.245 90.918 C 124.624 88.814 127.69 86.255 130.357 83.326 Z " fill-rule="evenodd" fill="rgb(0,105,95)"/><path d=" M 82.042 212 L 55.75 212 L 55.75 117.945 C 55.75 107.698 63.305 99.201 73.147 97.738 L 82.042 212 L 82.042 212 Z " fill="rgb(255,255,255)"/><path d=" M 82.042 211 L 142.75 211 L 142.75 211 L 142.75 117.766 C 142.75 106.581 133.589 97.5 122.305 97.5 L 120.763 97.5 C 118.831 105.732 111.377 111.873 102.488 111.873 L 94.012 111.873 C 85.127 111.873 77.676 105.737 75.748 97.508 C 74.865 97.526 73.996 97.6 73.147 97.736 L 82.042 211 L 82.042 211 Z " fill="rgb(255,255,255)"/><path d=" M 74.764 118.504 L 78.222 114.786 L 74.182 111.027 L 74.764 118.504 L 74.764 118.504 Z " fill="rgb(255,255,255)"/><path d=" M 84.066 238 L 55.297 238 C 52.537 238 50.297 235.76 50.297 233 L 50.297 115.86 C 50.297 103.795 60.092 94 72.157 94 L 72.856 94 L 84.066 238 L 84.066 238 Z " fill="rgb(0,150,136)"/><path d=" M 112.297 238 L 141.066 238 C 143.825 238 146.066 235.76 146.066 233 L 146.066 115.86 C 146.066 103.795 136.271 94 124.205 94 L 123.507 94 L 112.297 238 L 112.297 238 Z " fill="rgb(0,150,136)"/><path d=" M 36.046 200 C 35.826 197.455 35.718 194.902 35.689 192.346 C 35.635 188.083 35.85 183.821 36.342 179.59 C 36.792 175.653 37.489 171.757 38.432 167.902 C 39.342 164.219 40.478 160.608 41.86 157.068 C 43.221 153.559 44.817 150.131 46.628 146.804 C 48.492 143.397 50.581 140.091 52.874 136.917 C 55.296 133.56 57.931 130.336 60.771 127.284 C 63.899 123.917 67.22 120.723 70.724 117.722 C 72.835 115.911 74.099 113.379 74.238 110.683 C 74.377 107.987 73.381 105.353 71.485 103.349 C 69.578 101.345 66.91 100.144 64.07 100.012 C 61.231 99.88 58.456 100.826 56.346 102.626 C 52.242 106.156 48.364 109.889 44.699 113.826 C 41.292 117.498 38.11 121.374 35.196 125.412 C 32.41 129.268 29.882 133.286 27.61 137.436 C 25.382 141.515 23.421 145.716 21.75 150.019 C 20.068 154.352 18.664 158.787 17.571 163.284 C 16.425 167.932 15.578 172.642 15.043 177.382 C 14.453 182.428 14.196 187.504 14.261 192.58 C 14.29 195.056 14.381 197.53 14.574 200 L 36.046 200 L 36.046 200 Z " fill="rgb(0,150,136)"/><path d=" M 183.931 202 C 183.702 198.311 183.388 194.626 182.996 190.95 C 182.458 185.94 181.713 180.95 180.772 176 C 179.892 171.41 178.786 166.86 177.451 162.38 C 176.179 158.12 174.669 153.93 172.931 149.83 C 171.234 145.82 169.3 141.91 167.159 138.11 C 164.997 134.3 162.648 130.59 160.124 126.99 C 157.507 123.29 154.745 119.68 151.839 116.18 C 148.756 112.47 145.58 108.85 142.291 105.32 C 140.46 103.34 137.884 102.16 135.143 102.01 C 132.402 101.87 129.722 102.79 127.684 104.56 C 125.636 106.33 124.416 108.82 124.26 111.47 C 124.116 114.12 125.067 116.71 126.898 118.68 C 129.929 121.94 132.867 125.28 135.701 128.7 C 138.277 131.79 140.718 134.98 143.025 138.26 C 145.177 141.31 147.163 144.46 148.994 147.69 C 150.783 150.85 152.376 154.1 153.794 157.42 C 155.252 160.85 156.514 164.35 157.569 167.91 C 158.718 171.77 159.669 175.68 160.424 179.63 C 161.273 184.06 161.935 188.52 162.41 193.01 C 162.731 196 162.994 198.997 163.187 202 L 183.931 202 L 183.931 202 Z " fill="rgb(0,150,136)"/><rect x="14" y="195" width="22.342" height="6" transform="matrix(1,0,0,1,0,0)" fill="rgb(0,120,109)"/><rect x="162.41" y="196" width="21.52" height="6" transform="matrix(1,0,0,1,0,0)" fill="rgb(0,120,109)"/><rect x="50.359" y="197.577" width="25.438" height="2" transform="matrix(0.622,-0.783,0.783,0.622,-131.604,124.345)" fill="rgb(0,120,109)"/><rect x="120.227" y="197" width="25.438" height="2" transform="matrix(0.622,0.783,-0.783,0.622,205.164,-29.295)" fill="rgb(0,120,109)"/><path d=" M 73 91 L 65 98 L 84 238 L 75 91 L 73 91 Z " fill="rgb(0,120,109)"/><path d=" M 112 238 L 134 98 L 125 91 L 121 92 L 112 238 Z " fill="rgb(0,120,109)"/></g><g style="isolation:isolate"><g><path d="M 160 376 L 117 376 C 116.448 376 116 376.448 116 377 L 116 378 C 116 378.552 116.448 379 117 379 L 160 379 C 160.552 379 161 378.552 161 378 L 161 377 C 161 376.448 160.552 376 160 376 Z" style="stroke:none;fill:#FFFFFF;stroke-miterlimit:10;"/><path d="M 137 355 L 130 355 C 128.896 355 128 355.896 128 357 L 128 360 L 139 360 L 139 357 C 139 355.896 138.104 355 137 355 Z" style="stroke:none;fill:#8B8B8B;stroke-miterlimit:10;"/><path d="M 148 360 L 128 360 L 128 361 C 128 361.552 128.448 362 129 362 L 147 362 C 147.552 362 148 361.552 148 361 L 148 360 Z" style="stroke:none;fill:#EBEBEB;stroke-miterlimit:10;"/><path d=" M 128 360 L 157 360 C 159.208 360 161 361.792 161 364 L 161 373 C 161 375.208 159.208 377 157 377 L 120 377 C 117.792 377 116 375.208 116 373 L 116 364 C 116 362.461 116.871 361.124 118.145 360.455 C 118.648 361.341 120.633 362 123 362 C 125.76 362 128 361.104 128 360 L 128 360 Z " fill-rule="evenodd" fill="rgb(25,46,79)"/><path d="M 149 360 L 128 360 L 128 361 C 128 361.552 128.448 362 129 362 L 148 362 C 148.552 362 149 361.552 149 361 L 149 360 Z" style="stroke:none;fill:#8B8B8B;stroke-miterlimit:10;"/><line x1="148" y1="360" x2="145" y2="364" vector-effect="non-scaling-stroke" stroke-width="1" stroke="rgb(255,214,153)" stroke-linejoin="miter" stroke-linecap="round" stroke-miterlimit="3"/><line x1="143" y1="360" x2="139" y2="364" vector-effect="non-scaling-stroke" stroke-width="1" stroke="rgb(255,214,153)" stroke-linejoin="miter" stroke-linecap="round" stroke-miterlimit="3"/><line x1="139" y1="360" x2="133" y2="364" vector-effect="non-scaling-stroke" stroke-width="1" stroke="rgb(255,214,153)" stroke-linejoin="miter" stroke-linecap="round" stroke-miterlimit="3"/></g><g><path d="M 40 376 L 83 376 C 83.552 376 84 376.448 84 377 L 84 378 C 84 378.552 83.552 379 83 379 L 40 379 C 39.448 379 39 378.552 39 378 L 39 377 C 39 376.448 39.448 376 40 376 Z" style="stroke:none;fill:#FFFFFF;stroke-miterlimit:10;"/><path d="M 63 355 L 70 355 C 71.104 355 72 355.896 72 357 L 72 360 L 61 360 L 61 357 C 61 355.896 61.896 355 63 355 Z" style="stroke:none;fill:#8B8B8B;stroke-miterlimit:10;"/><path d="M 52 360 L 72 360 L 72 361 C 72 361.552 71.552 362 71 362 L 53 362 C 52.448 362 52 361.552 52 361 L 52 360 Z" style="stroke:none;fill:#EBEBEB;stroke-miterlimit:10;"/><path d=" M 72 360 L 43 360 C 40.792 360 39 361.792 39 364 L 39 373 C 39 375.208 40.792 377 43 377 L 80 377 C 82.208 377 84 375.208 84 373 L 84 364 C 84 362.461 83.129 361.124 81.855 360.455 C 81.352 361.341 79.367 362 77 362 C 74.24 362 72 361.104 72 360 L 72 360 Z " fill-rule="evenodd" fill="rgb(25,46,79)"/><path d="M 51 360 L 72 360 L 72 361 C 72 361.552 71.552 362 71 362 L 52 362 C 51.448 362 51 361.552 51 361 L 51 360 Z" style="stroke:none;fill:#8B8B8B;stroke-miterlimit:10;"/><line x1="52" y1="360" x2="55" y2="364" vector-effect="non-scaling-stroke" stroke-width="1" stroke="rgb(255,214,153)" stroke-linejoin="miter" stroke-linecap="round" stroke-miterlimit="3"/><line x1="57" y1="360" x2="61" y2="364" vector-effect="non-scaling-stroke" stroke-width="1" stroke="rgb(255,214,153)" stroke-linejoin="miter" stroke-linecap="round" stroke-miterlimit="3"/><line x1="61" y1="360" x2="67" y2="364" vector-effect="non-scaling-stroke" stroke-width="1" stroke="rgb(255,214,153)" stroke-linejoin="miter" stroke-linecap="round" stroke-miterlimit="3"/></g></g></g></svg>