<?xml version="1.0" standalone="no"?><!-- Generator: Gravit.io --><svg xmlns="http://www.w3.org/2000/svg" xmlns:xlink="http://www.w3.org/1999/xlink" style="isolation:isolate" viewBox="0 0 200 400" width="200" height="400"><defs><clipPath id="_clipPath_3GtRazEiuCNAs9zF4vEEfqsD00KdMxFD"><rect width="200" height="400"/></clipPath></defs><g clip-path="url(#_clipPath_3GtRazEiuCNAs9zF4vEEfqsD00KdMxFD)"><g style="isolation:isolate"><g><g><path d=" M 142.75 205 L 142.75 214.055 C 142.75 225.339 133.589 234.5 122.305 234.5 L 76.195 234.5 C 64.911 234.5 55.75 225.339 55.75 214.055 L 55.75 205 L 142.75 205 L 142.75 205 Z " fill="rgb(74,134,232)"/><path d=" M 138.64 358.026 C 138.64 358.028 138.64 358.029 138.64 358.03" fill="rgb(74,134,232)"/><path d=" M 118.26 358.03 C 118.262 358.021 118.264 358.012 118.265 358.004" fill="rgb(74,134,232)"/></g><path d=" M 116.532 358.007 C 117.809 352.186 118.966 346.345 120.026 340.484 C 121.001 335.014 121.857 329.524 122.562 324.014 C 123.927 313.464 124.62 302.844 124.642 292.214 C 124.631 284.204 124.252 276.194 123.494 268.214 C 122.638 259.154 121.424 250.124 119.875 241.144 C 119.517 237.894 119.029 234.654 118.39 231.444 C 118.184 230.384 117.935 229.344 117.643 228.304 C 117.491 227.764 117.307 227.224 117.079 226.704 C 116.017 224.234 116.061 221.484 117.198 219.044 C 118.336 216.614 120.481 214.694 123.147 213.714 C 125.812 212.734 128.803 212.774 131.436 213.824 C 134.08 214.874 136.16 216.844 137.222 219.304 C 137.785 220.634 138.262 221.984 138.641 223.364 C 139.053 224.854 139.411 226.344 139.714 227.854 C 140.407 231.394 140.96 234.964 141.372 238.544 C 142.954 247.804 144.2 257.124 145.088 266.474 C 145.89 275.034 146.302 283.624 146.313 292.224 C 146.291 303.634 145.543 315.044 144.081 326.384 C 143.333 332.194 142.434 337.984 141.393 343.764 C 140.537 348.532 139.613 353.288 138.609 358.03" fill="rgb(74,134,232)"/><path d=" M 61.017 358.004 C 60.013 353.269 59.085 348.521 58.229 343.76 C 57.189 337.98 56.301 332.19 55.542 326.38 C 54.079 315.04 53.332 303.63 53.31 292.22 C 53.332 283.62 53.733 275.03 54.545 266.47 C 55.434 257.12 56.669 247.8 58.262 238.54 C 58.663 234.96 59.215 231.39 59.92 227.85 C 60.212 226.34 60.57 224.85 60.981 223.36 C 61.361 221.98 61.837 220.63 62.412 219.3 C 63.474 216.84 65.554 214.87 68.187 213.82 C 70.831 212.77 73.81 212.73 76.487 213.71 C 79.152 214.69 81.287 216.61 82.424 219.04 C 83.562 221.48 83.605 224.23 82.544 226.7 C 82.316 227.22 82.132 227.76 81.98 228.3 C 81.698 229.34 81.449 230.38 81.233 231.44 C 80.604 234.65 80.106 237.89 79.748 241.14 C 78.199 250.12 76.996 259.15 76.129 268.21 C 75.382 276.19 75.002 284.2 74.981 292.21 C 75.002 302.84 75.696 313.46 77.061 324.01 C 77.776 329.52 78.621 335.01 79.607 340.48 C 80.657 346.341 81.825 352.182 83.091 358.004 L 61.017 358.004 L 61.017 358.004 Z " fill="rgb(74,134,232)"/></g><rect x="96" y="205" width="7" height="29" transform="matrix(1,0,0,1,0,0)" fill="rgb(52,94,162)"/><rect x="55.7" y="207" width="87" height="7" transform="matrix(1,0,0,1,0,0)" fill="rgb(102,61,0)"/><rect x="63" y="205" width="3" height="12" transform="matrix(1,0,0,1,0,0)" fill="rgb(74,134,232)"/><rect x="81" y="205" width="3" height="12" transform="matrix(1,0,0,1,0,0)" fill="rgb(74,134,232)"/><rect x="116" y="205" width="3" height="12" transform="matrix(1,0,0,1,0,0)" fill="rgb(74,134,232)"/><rect x="134" y="205" width="3" height="12" transform="matrix(1,0,0,1,0,0)" fill="rgb(74,134,232)"/><rect x="93.155" y="206.5" width="14" height="8" transform="matrix(1,0,0,1,0,0)" fill="rgb(235,235,235)"/></g><g style="isolation:isolate"><g><path d="M 154.942 360 L 121.058 360 C 118.266 360 116 362.266 116 365.058 L 116 371.942 C 116 374.734 118.266 377 121.058 377 L 154.942 377 C 157.734 377 160 374.734 160 371.942 L 160 365.058 C 160 362.266 157.734 360 154.942 360 Z" style="stroke:none;fill:#4D2E00;stroke-miterlimit:10;"/><rect x="117" y="348" width="23" height="18" transform="matrix(1,0,0,1,0,0)" fill="rgb(77,46,0)"/><path d="M 139.943 344 L 119.057 344 C 117.37 344 116 345.37 116 347.057 L 116 348.943 C 116 350.63 117.37 352 119.057 352 L 139.943 352 C 141.63 352 143 350.63 143 348.943 L 143 347.057 C 143 345.37 141.63 344 139.943 344 Z" style="stroke:none;fill:#EBEBEB;stroke-miterlimit:10;"/><path d="M 136 342 L 132 342 C 130.344 342 129 343.344 129 345 L 129 361 L 139 361 L 139 345 C 139 343.344 137.656 342 136 342 Z" style="stroke:none;fill:#744704;stroke-miterlimit:10;"/><path d="M 147 360 L 129 360 L 129 361 C 129 361.552 129.448 362 130 362 L 146 362 C 146.552 362 147 361.552 147 361 L 147 360 Z" style="stroke:none;fill:#744704;stroke-miterlimit:10;"/><rect x="199" y="-1" width="2" height="2" transform="matrix(1,0,0,1,0,0)" fill="rgb(235,235,235)"/><path d=" M 119 378 L 117 378 C 116.448 378 116 377.552 116 377 L 116 376 C 116 375.448 116.448 375 117 375 L 159 375 C 159.552 375 160 375.448 160 376 L 160 377 C 160 377.552 159.552 378 159 378 L 157 378 L 157 377 L 155 377 L 155 378 L 153 378 L 153 377 L 151 377 L 151 378 L 149 378 L 149 377 L 147 377 L 147 378 L 145 378 L 145 377 L 143 377 L 143 378 L 141 378 L 141 377 L 139 377 L 139 378 L 139 378 L 133 378 L 133 378 L 133 378 L 133 378 L 133 377 L 131 377 L 131 378 L 121 378 L 121 377 L 119 377 L 119 378 Z  M 137 377 L 135 377 L 135 378 L 137 378 L 137 377 L 137 377 L 137 377 L 137 377 L 137 377 Z  M 129 377 L 127 377 L 127 378 L 129 378 L 129 377 L 129 377 L 129 377 Z  M 125 377 L 123 377 L 123 378 L 125 378 L 125 377 L 125 377 Z " fill-rule="evenodd" fill="rgb(162,162,162)"/><circle vector-effect="non-scaling-stroke" cx="139" cy="364" r="1" fill="rgb(235,235,235)"/><circle vector-effect="non-scaling-stroke" cx="134.5" cy="364" r="1" fill="rgb(235,235,235)"/><circle vector-effect="non-scaling-stroke" cx="130" cy="364" r="1" fill="rgb(235,235,235)"/><circle vector-effect="non-scaling-stroke" cx="127" cy="360" r="1" fill="rgb(235,235,235)"/><circle vector-effect="non-scaling-stroke" cx="127" cy="355.9999999999999" r="1" fill="rgb(235,235,235)"/><line x1="139" y1="364" x2="142" y2="360" vector-effect="non-scaling-stroke" stroke-width="1" stroke="rgb(0,0,0)" stroke-linejoin="miter" stroke-linecap="round" stroke-miterlimit="3"/><line x1="134.5" y1="364" x2="139" y2="360" vector-effect="non-scaling-stroke" stroke-width="1" stroke="rgb(0,0,0)" stroke-linejoin="miter" stroke-linecap="round" stroke-miterlimit="3"/><line x1="130" y1="364" x2="139" y2="359" vector-effect="non-scaling-stroke" stroke-width="1" stroke="rgb(0,0,0)" stroke-linejoin="miter" stroke-linecap="round" stroke-miterlimit="3"/><line x1="127" y1="360" x2="139" y2="359" vector-effect="non-scaling-stroke" stroke-width="1" stroke="rgb(0,0,0)" stroke-linejoin="miter" stroke-linecap="round" stroke-miterlimit="3"/><line x1="127" y1="356" x2="139" y2="356" vector-effect="non-scaling-stroke" stroke-width="1" stroke="rgb(0,0,0)" stroke-linejoin="miter" stroke-linecap="round" stroke-miterlimit="3"/></g><g><path d="M 45.058 360 L 78.942 360 C 81.734 360 84 362.266 84 365.058 L 84 371.942 C 84 374.734 81.734 377 78.942 377 L 45.058 377 C 42.266 377 40 374.734 40 371.942 L 40 365.058 C 40 362.266 42.266 360 45.058 360 Z" style="stroke:none;fill:#4D2E00;stroke-miterlimit:10;"/><rect x="60" y="348" width="23" height="18" transform="matrix(1,0,0,1,0,0)" fill="rgb(77,46,0)"/><path d="M 60.057 344 L 80.943 344 C 82.63 344 84 345.37 84 347.057 L 84 348.943 C 84 350.63 82.63 352 80.943 352 L 60.057 352 C 58.37 352 57 350.63 57 348.943 L 57 347.057 C 57 345.37 58.37 344 60.057 344 Z" style="stroke:none;fill:#EBEBEB;stroke-miterlimit:10;"/><path d="M 64 342 L 68 342 C 69.656 342 71 343.344 71 345 L 71 361 L 61 361 L 61 345 C 61 343.344 62.344 342 64 342 Z" style="stroke:none;fill:#744704;stroke-miterlimit:10;"/><path d="M 53 360 L 71 360 L 71 361 C 71 361.552 70.552 362 70 362 L 54 362 C 53.448 362 53 361.552 53 361 L 53 360 Z" style="stroke:none;fill:#744704;stroke-miterlimit:10;"/><rect x="-1" y="-1" width="2" height="2" transform="matrix(1,0,0,1,0,0)" fill="rgb(235,235,235)"/><path d=" M 81 378 L 83 378 C 83.552 378 84 377.552 84 377 L 84 376 C 84 375.448 83.552 375 83 375 L 41 375 C 40.448 375 40 375.448 40 376 L 40 377 C 40 377.552 40.448 378 41 378 L 43 378 L 43 377 L 45 377 L 45 378 L 47 378 L 47 377 L 49 377 L 49 378 L 51 378 L 51 377 L 53 377 L 53 378 L 55 378 L 55 377 L 57 377 L 57 378 L 59 378 L 59 377 L 61 377 L 61 378 L 61 378 L 67 378 L 67 378 L 67 378 L 67 378 L 67 377 L 69 377 L 69 378 L 79 378 L 79 377 L 81 377 L 81 378 Z  M 63 377 L 65 377 L 65 378 L 63 378 L 63 377 L 63 377 L 63 377 L 63 377 L 63 377 Z  M 71 377 L 73 377 L 73 378 L 71 378 L 71 377 L 71 377 L 71 377 Z  M 75 377 L 77 377 L 77 378 L 75 378 L 75 377 L 75 377 Z " fill-rule="evenodd" fill="rgb(162,162,162)"/><circle vector-effect="non-scaling-stroke" cx="61" cy="364" r="1" fill="rgb(235,235,235)"/><circle vector-effect="non-scaling-stroke" cx="65.5" cy="364" r="1" fill="rgb(235,235,235)"/><circle vector-effect="non-scaling-stroke" cx="70" cy="364" r="1" fill="rgb(235,235,235)"/><circle vector-effect="non-scaling-stroke" cx="73" cy="360" r="1" fill="rgb(235,235,235)"/><circle vector-effect="non-scaling-stroke" cx="73" cy="355.9999999999999" r="1" fill="rgb(235,235,235)"/><line x1="61" y1="364" x2="58" y2="360" vector-effect="non-scaling-stroke" stroke-width="1" stroke="rgb(0,0,0)" stroke-linejoin="miter" stroke-linecap="round" stroke-miterlimit="3"/><line x1="65.5" y1="364" x2="61" y2="360" vector-effect="non-scaling-stroke" stroke-width="1" stroke="rgb(0,0,0)" stroke-linejoin="miter" stroke-linecap="round" stroke-miterlimit="3"/><line x1="70" y1="364" x2="61" y2="359" vector-effect="non-scaling-stroke" stroke-width="1" stroke="rgb(0,0,0)" stroke-linejoin="miter" stroke-linecap="round" stroke-miterlimit="3"/><line x1="73" y1="360" x2="61" y2="359" vector-effect="non-scaling-stroke" stroke-width="1" stroke="rgb(0,0,0)" stroke-linejoin="miter" stroke-linecap="round" stroke-miterlimit="3"/><line x1="73" y1="356" x2="61" y2="356" vector-effect="non-scaling-stroke" stroke-width="1" stroke="rgb(0,0,0)" stroke-linejoin="miter" stroke-linecap="round" stroke-miterlimit="3"/></g></g><g style="isolation:isolate"><path d=" M 61.838 77.782 C 54.752 82.021 50.5 87.498 50.5 93.473 L 50.5 93.473 C 50.5 106.979 72.232 117.945 99 117.945 C 125.768 117.945 147.5 106.979 147.5 93.473 C 147.5 87.193 142.802 81.462 135.088 77.125 C 131.58 82.705 126.838 87.431 121.244 90.918 C 121.249 91.032 121.25 91.147 121.25 91.263 L 121.25 93.238 C 121.25 103.593 112.843 112 102.488 112 L 94.013 112 C 83.657 112 75.25 103.593 75.25 93.238 L 75.25 91.263 C 75.25 91.142 75.251 91.021 75.256 90.902 L 75.256 90.902 C 74.294 90.326 73.369 89.698 72.47 89.035 C 68.291 85.952 64.682 82.14 61.838 77.782 Z " fill-rule="evenodd" fill="rgb(255,204,128)"/><path d=" M 66.281 83.484 C 61.696 85.605 59 88.2 59 91 C 59 95.625 66.356 99.69 77.431 101.991 C 76.035 99.382 75.25 96.401 75.25 93.238 L 75.25 91.263 C 75.25 91.142 75.251 91.021 75.255 90.901 C 74.293 90.326 73.368 89.698 72.47 89.035 C 70.233 87.385 68.159 85.526 66.281 83.484 Z  M 130.357 83.326 C 135.165 85.474 138 88.129 138 91 C 138 95.706 130.385 99.832 119 102.117 C 120.44 99.479 121.25 96.452 121.25 93.238 L 121.25 91.263 C 121.25 91.147 121.249 91.032 121.245 90.918 C 124.624 88.814 127.69 86.255 130.357 83.326 Z " fill-rule="evenodd" fill="rgb(23,23,23)"/><g><path d=" M 36.485 202.154 C 36.041 198.258 35.791 194.345 35.743 190.425 C 35.684 186.127 35.919 181.829 36.459 177.561 C 36.952 173.591 37.715 169.662 38.749 165.774 C 39.746 162.061 40.991 158.419 42.506 154.849 C 43.997 151.31 45.746 147.853 47.73 144.498 C 49.773 141.062 52.062 137.728 54.575 134.527 C 57.228 131.142 60.117 127.89 63.228 124.812 C 66.656 121.417 70.296 118.196 74.135 115.17 C 76.448 113.344 77.833 110.789 77.986 108.071 C 78.139 105.352 77.047 102.695 74.969 100.674 C 72.879 98.654 69.955 97.443 66.844 97.31 C 63.733 97.176 60.692 98.13 58.379 99.946 C 53.882 103.506 49.632 107.271 45.617 111.241 C 41.883 114.944 38.396 118.852 35.203 122.925 C 32.15 126.813 29.379 130.865 26.89 135.05 C 24.448 139.164 22.3 143.401 20.468 147.74 C 18.625 152.11 17.087 156.583 15.889 161.117 C 14.633 165.805 13.706 170.555 13.119 175.335 C 12.473 180.423 12.191 185.542 12.262 190.661 C 12.332 196.211 12.743 201.75 13.506 207.27 C 13.66 208.377 14.018 209.444 14.563 210.43 L 36.485 202.154 L 36.485 202.154 Z " fill="rgb(46,46,46)"/><path d="M 12.569 194.022 L 32.727 187.449 C 35.136 186.664 37.723 187.984 38.501 190.395 L 41.158 198.628 C 41.936 201.04 40.612 203.635 38.203 204.42 L 18.044 210.993 C 15.635 211.778 13.048 210.458 12.27 208.047 L 9.614 199.814 C 8.836 197.402 10.16 194.807 12.569 194.022 Z" style="stroke:none;fill:#FFCC80;stroke-miterlimit:10;"/><g><path d="M 34.729 124.147 L 51.116 137.861 C 51.53 138.206 51.732 138.662 51.568 138.878 L 51.568 138.878 C 51.404 139.094 50.935 138.988 50.522 138.642 L 34.134 124.929 C 33.721 124.583 33.518 124.127 33.682 123.911 L 33.682 123.911 C 33.847 123.696 34.315 123.801 34.729 124.147 Z" style="stroke:none;fill:#747474;stroke-miterlimit:10;"/><path d="M 24.408 141.164 L 43.264 151.218 C 43.739 151.472 44.031 151.876 43.915 152.121 L 43.915 152.121 C 43.799 152.366 43.318 152.359 42.843 152.105 L 23.987 142.051 C 23.512 141.797 23.22 141.393 23.336 141.148 L 23.336 141.148 C 23.452 140.903 23.933 140.91 24.408 141.164 Z" style="stroke:none;fill:#747474;stroke-miterlimit:10;"/><path d="M 16.573 160.848 L 37.385 165.695 C 37.91 165.817 38.296 166.133 38.247 166.399 L 38.247 166.399 C 38.198 166.666 37.732 166.783 37.207 166.661 L 16.396 161.814 C 15.871 161.691 15.484 161.376 15.534 161.109 L 15.534 161.109 C 15.583 160.843 16.049 160.726 16.573 160.848 Z" style="stroke:none;fill:#747474;stroke-miterlimit:10;"/><path d="M 13.227 181.267 L 34.571 182.315 C 35.109 182.341 35.545 182.583 35.545 182.854 L 35.545 182.854 C 35.544 183.125 35.106 183.323 34.568 183.297 L 13.225 182.249 C 12.687 182.222 12.25 181.981 12.251 181.71 L 12.251 181.71 C 12.252 181.439 12.689 181.24 13.227 181.267 Z" style="stroke:none;fill:#747474;stroke-miterlimit:10;"/></g></g><g><path d=" M 185.302 206.97 C 185.043 201.442 184.605 195.915 183.991 190.406 C 183.408 185.216 182.601 180.047 181.582 174.919 C 180.629 170.164 179.43 165.45 177.984 160.809 C 176.606 156.396 174.97 152.056 173.087 147.808 C 171.249 143.654 169.154 139.604 166.834 135.667 C 164.492 131.72 161.948 127.877 159.214 124.147 C 156.378 120.314 153.386 116.575 150.237 112.949 C 146.898 109.105 143.458 105.355 139.894 101.698 C 137.91 99.647 135.12 98.425 132.15 98.27 C 129.181 98.124 126.278 99.078 124.07 100.911 C 121.852 102.745 120.529 105.324 120.361 108.07 C 120.204 110.815 121.235 113.498 123.219 115.539 C 126.502 118.916 129.685 122.376 132.755 125.919 C 135.546 129.12 138.191 132.425 140.69 135.822 C 143.02 138.982 145.172 142.245 147.156 145.591 C 149.094 148.865 150.82 152.232 152.355 155.671 C 153.936 159.224 155.303 162.85 156.446 166.538 C 157.69 170.537 158.721 174.588 159.539 178.679 C 160.458 183.269 161.175 187.889 161.69 192.54 C 162.003 195.329 162.265 198.124 162.459 200.925 L 185.302 206.97 L 185.302 206.97 Z " fill="rgb(46,46,46)"/><path d="M 185.707 192.772 L 164.807 187.781 C 162.48 187.226 160.139 188.664 159.584 190.991 L 157.877 198.14 C 157.321 200.467 158.759 202.808 161.086 203.363 L 181.986 208.354 C 184.313 208.909 186.654 207.471 187.209 205.144 L 188.916 197.995 C 189.472 195.668 188.034 193.327 185.707 192.772 Z" style="stroke:none;fill:#FFCC80;stroke-miterlimit:10;"/><g><path d="M 160.648 127.201 L 145.098 140.214 C 144.695 140.552 144.501 141.001 144.665 141.216 L 144.665 141.216 C 144.829 141.432 145.289 141.333 145.692 140.996 L 161.243 127.983 C 161.646 127.646 161.84 127.197 161.676 126.981 L 161.676 126.981 C 161.512 126.765 161.052 126.864 160.648 127.201 Z" style="stroke:none;fill:#747474;stroke-miterlimit:10;"/><path d="M 169.916 143.44 L 152.125 152.927 C 151.662 153.174 151.381 153.572 151.498 153.817 L 151.498 153.817 C 151.614 154.062 152.084 154.061 152.546 153.814 L 170.337 144.328 C 170.799 144.081 171.081 143.682 170.964 143.437 L 170.964 143.437 C 170.848 143.192 170.378 143.194 169.916 143.44 Z" style="stroke:none;fill:#747474;stroke-miterlimit:10;"/><path d="M 178.124 162.71 L 157.312 167.557 C 156.787 167.68 156.401 167.995 156.45 168.262 L 156.45 168.262 C 156.499 168.528 156.965 168.645 157.49 168.523 L 178.302 163.676 C 178.827 163.554 179.213 163.238 179.164 162.972 L 179.164 162.972 C 179.115 162.705 178.649 162.588 178.124 162.71 Z" style="stroke:none;fill:#747474;stroke-miterlimit:10;"/><path d="M 182.031 179.998 L 160.967 181.033 C 160.432 181.059 159.999 181.3 159.999 181.571 L 159.999 181.571 C 160 181.842 160.435 182.041 160.969 182.015 L 182.033 180.98 C 182.568 180.954 183.002 180.712 183.001 180.441 L 183.001 180.441 C 183 180.17 182.566 179.972 182.031 179.998 Z" style="stroke:none;fill:#747474;stroke-miterlimit:10;"/></g></g><g><path d="M 72.67 95 L 124.33 95 C 135.738 95 145 104.262 145 115.67 L 145 221 C 145 223.76 142.76 226 140 226 L 57 226 C 54.24 226 52 223.76 52 221 L 52 115.67 C 52 104.262 61.262 95 72.67 95 Z" style="stroke:none;fill:#2E2E2E;stroke-miterlimit:10;"/><g><rect x="52.125" y="171" width="92.875" height="1" transform="matrix(1,0,0,1,0,0)" fill="rgb(116,116,116)"/><rect x="52" y="141" width="93" height="1" transform="matrix(1,0,0,1,0,0)" fill="rgb(116,116,116)"/><rect x="52" y="113.118" width="93" height="1" transform="matrix(1,0,0,1,0,0)" fill="rgb(116,116,116)"/><rect x="52" y="197.5" width="93" height="1" transform="matrix(1,0,0,1,0,0)" fill="rgb(116,116,116)"/></g><rect x="97" y="96" width="3.5" height="130" transform="matrix(1,0,0,1,0,0)" fill="rgb(185,185,185)"/><rect x="97.25" y="224" width="3" height="5" transform="matrix(1,0,0,1,0,0)" fill="rgb(235,235,235)"/><rect x="97.75" y="227" width="2" height="1" transform="matrix(1,0,0,1,0,0)" fill="rgb(23,23,23)"/><rect x="63.276" y="174.919" width="4.552" height="32.051" transform="matrix(0.992,0.124,-0.124,0.992,24.233,-6.665)" fill="rgb(70,70,70)"/><rect x="129.672" y="174.919" width="4.552" height="32.051" transform="matrix(0.992,-0.124,0.124,0.992,-22.702,17.874)" fill="rgb(70,70,70)"/><path d="M 144.5 106 L 144.5 106 C 144.776 106 145 106.461 145 107.029 L 145 140.971 C 145 141.539 144.776 142 144.5 142 L 144.5 142 C 144.224 142 144 141.539 144 140.971 L 144 107.029 C 144 106.461 144.224 106 144.5 106 Z" style="stroke:none;fill:#747474;stroke-miterlimit:10;"/><path d="M 52.125 105 L 52.125 105 C 52.401 105 52.625 105.448 52.625 106 L 52.625 140 C 52.625 140.552 52.401 141 52.125 141 L 52.125 141 C 51.849 141 51.625 140.552 51.625 140 L 51.625 106 C 51.625 105.448 51.849 105 52.125 105 Z" style="stroke:none;fill:#747474;stroke-miterlimit:10;"/></g><g><path d="M 68.5 86 L 128.5 86 C 131.26 86 133.5 88.24 133.5 91 L 133.5 100 C 133.5 102.76 131.26 105 128.5 105 L 68.5 105 C 65.74 105 63.5 102.76 63.5 100 L 63.5 91 C 63.5 88.24 65.74 86 68.5 86 Z" style="stroke:none;fill:#4A86E8;stroke-miterlimit:10;"/><rect x="106" y="105" width="22" height="62" transform="matrix(1,0,0,1,0,0)" fill="rgb(74,134,232)"/><rect x="106" y="166" width="2" height="7" transform="matrix(1,0,0,1,0,0)" fill="rgb(74,134,232)"/><rect x="110" y="166" width="2" height="7" transform="matrix(1,0,0,1,0,0)" fill="rgb(74,134,232)"/><rect x="114" y="166" width="2" height="7" transform="matrix(1,0,0,1,0,0)" fill="rgb(74,134,232)"/><rect x="118" y="166" width="2" height="7" transform="matrix(1,0,0,1,0,0)" fill="rgb(74,134,232)"/><rect x="122" y="166" width="2" height="7" transform="matrix(1,0,0,1,0,0)" fill="rgb(74,134,232)"/><rect x="126" y="166" width="2" height="7" transform="matrix(1,0,0,1,0,0)" fill="rgb(74,134,232)"/><rect x="106" y="147" width="22" height="10" transform="matrix(1,0,0,1,0,0)" fill="rgb(152,0,0)"/><rect x="106" y="126" width="22" height="10" transform="matrix(1,0,0,1,0,0)" fill="rgb(152,0,0)"/><rect x="106" y="105" width="22" height="10" transform="matrix(1,0,0,1,0,0)" fill="rgb(152,0,0)"/><rect x="65.75" y="90.5" width="19" height="10" transform="matrix(0,1,-1,0,170.75,20.25)" fill="rgb(152,0,0)"/><rect x="86.5" y="90.5" width="19" height="10" transform="matrix(0,1,-1,0,191.5,-0.5)" fill="rgb(152,0,0)"/><rect x="108.5" y="90.5" width="19" height="10" transform="matrix(0,1,-1,0,213.5,-22.5)" fill="rgb(152,0,0)"/></g></g><g style="isolation:isolate"><ellipse vector-effect="non-scaling-stroke" cx="96.36775925441908" cy="4.9999999999999964" rx="10.5" ry="5" fill="rgb(254,254,254)"/><path d=" M 50.868 45.159 C 51.805 29.708 62.805 13.529 66.868 10.257 C 70.93 6.985 81.555 3.667 84.868 3 C 88.18 2.333 110.555 2.623 115.868 4.441 C 121.18 6.258 125.18 7.046 128.868 10.257 C 132.555 13.469 145.243 36.615 144.868 45.159 Q 144.493 53.702 117.868 28.678 L 79.868 28.678 Q 49.93 60.61 50.868 45.159 Z " fill="rgb(152,0,0)"/><path d=" M 55.868 57 Q 65.868 39.25 76.868 37 C 87.868 34.75 108.528 34.258 116.868 37 Q 125.993 40 139.868 57 Q 141.368 63.5 139.868 65 L 148.868 61 Q 150.493 53.75 148.868 46 C 147.776 40.794 126.919 21.885 117.868 19 C 106.493 15.375 84.618 14.375 72.868 19 Q 55.151 25.973 47.868 42 Q 43.035 54.776 45.868 60 Q 49.868 67.375 55.868 65 L 55.868 57 Z " fill="rgb(93,93,93)"/><path d=" M 47.868 42 Q 45.805 54.203 47.868 56 Q 49.93 57.797 55.868 62" fill="none" vector-effect="non-scaling-stroke" stroke-width="1" stroke="rgb(162,162,162)" stroke-linejoin="bevel" stroke-linecap="round" stroke-miterlimit="3"/><path d=" M 53.868 32 Q 49.868 44.125 51.868 47 Q 53.868 49.875 57.868 53" fill="none" vector-effect="non-scaling-stroke" stroke-width="1" stroke="rgb(162,162,162)" stroke-linejoin="miter" stroke-linecap="round" stroke-miterlimit="3"/><path d=" M 63.868 23 Q 62.165 31.016 62.868 34 Q 63.571 36.984 66.868 42" fill="none" vector-effect="non-scaling-stroke" stroke-width="1" stroke="rgb(162,162,162)" stroke-linejoin="miter" stroke-linecap="round" stroke-miterlimit="3"/><path d=" M 79.868 17 Q 79.883 19.547 79.868 29 L 80.868 36" fill="none" vector-effect="non-scaling-stroke" stroke-width="1" stroke="rgb(162,162,162)" stroke-linejoin="miter" stroke-linecap="round" stroke-miterlimit="3"/><path d=" M 97.868 16 Q 97.04 23.344 96.868 35" fill="none" vector-effect="non-scaling-stroke" stroke-width="1" stroke="rgb(162,162,162)" stroke-linejoin="miter" stroke-linecap="round" stroke-miterlimit="3"/><path d=" M 115.868 18 Q 116.243 27.063 114.868 29 Q 113.493 30.938 112.868 36" fill="none" vector-effect="non-scaling-stroke" stroke-width="1" stroke="rgb(162,162,162)" stroke-linejoin="miter" stroke-linecap="round" stroke-miterlimit="3"/><path d=" M 130.868 27 Q 131.508 33.469 130.868 36 Q 130.227 38.531 126.868 43" fill="none" vector-effect="non-scaling-stroke" stroke-width="1" stroke="rgb(162,162,162)" stroke-linejoin="miter" stroke-linecap="round" stroke-miterlimit="3"/><path d=" M 141.868 37 Q 144.087 45.094 141.868 48 Q 139.649 50.906 136.868 53" fill="none" vector-effect="non-scaling-stroke" stroke-width="1" stroke="rgb(162,162,162)" stroke-linejoin="miter" stroke-linecap="round" stroke-miterlimit="3"/><path d=" M 148.868 45 Q 149.024 55.922 146.868 57 Q 144.712 58.078 140.868 59" fill="none" vector-effect="non-scaling-stroke" stroke-width="1" stroke="rgb(162,162,162)" stroke-linejoin="miter" stroke-linecap="round" stroke-miterlimit="3"/></g></g></svg>